<?xml version="1.0" standalone="no"?>
<svg version="1.1" id="Layer_1" xmlns="http://www.w3.org/2000/svg" xmlns:xlink="http://www.w3.org/1999/xlink" x="0px" y="0px" viewBox="0 0 595.276 595.276" enable-background="new 0 0 595.276 595.276" xml:space="preserve">
<path id="color_x5F_6_51_" fill="#22417B" d="M398.759,168.031c0-4.824,0.639-9.505,1.819-13.96
	c-33.558-5.722-78.257-10.733-102.905-10.733c-23.883,0-66.577,4.702-99.73,10.199c1.271,4.614,1.965,9.473,1.965,14.493
	c0,29.145-22.908,52.934-51.7,54.352c3.545,48.074,15.936,113.446,30.538,148.724c19.555,47.261,77.968,89.902,105.49,109.3
	c0.628,0.442,1.243,0.875,1.837,1.293c5.584,3.925,9.681,6.766,11.601,8.336c1.919-1.571,6.017-4.414,11.604-8.341
	c0.594-0.418,1.21-0.851,1.837-1.293c27.521-19.4,85.929-62.038,105.478-109.295c14.628-35.343,27.039-100.899,30.556-148.994
	C419.933,219.109,398.759,196.044,398.759,168.031z M407.698,306.645c-0.328,1.535-0.651,3.083-0.987,4.596
	c-4.655,20.998-10.004,39.698-15.339,52.585c-16.09,38.883-67.854,77.492-93.695,95.817c-0.023,0.02-0.057,0.037-0.08,0.058
	c-25.816-18.295-77.677-56.944-93.784-95.875c-5.326-12.871-10.676-31.577-15.335-52.585c-0.335-1.513-0.659-3.06-0.987-4.596
	c-4.126-19.326-7.651-40.305-10.016-60.372c26.71-11.38,45.954-36.535,49.112-66.413c27.482-3.732,54.951-6.185,71.01-6.185
	c0.023,0,0.057,0,0.08,0c16.692,0.01,45.901,2.692,74.306,6.652c3.172,28.387,20.873,52.58,45.897,64.514
	C415.515,265.337,411.926,286.862,407.698,306.645z"></path>
<path id="color_x5F_5_50_" fill="#51B4E6" d="M297.598,173.675c-16.059,0-43.528,2.453-71.01,6.185
	c-3.158,29.878-22.403,55.033-49.112,66.413c2.366,20.068,5.891,41.046,10.016,60.372h110.185v-132.97
	C297.654,173.675,297.621,173.675,297.598,173.675z M263.178,269.353l0.008,8.527h-38.211l-0.013-20.443
	c-2.898,2.751-5.001,2.738-6.344,1.422l-0.122-0.119c-1.378-1.35-1.382-3.568-0.009-4.923l20.361-19.987
	c0.432,1.08,0.892,2.148,1.389,3.2c1.026,2.174,0.588,4.756-1.124,6.444l-9.42,9.293l0.012,20.885l8.476,0.01l-0.018-11.957h11.77
	l0.023,11.957l8.497-0.01l-0.007-15.649c-1.87,4.817-6.503,7.626-6.503,7.626s2.115-4.351,1.192-12.966
	c-1.341-12.518-11.057-12.114-12.106-22.768c-0.38-3.734,1.385-7.429,4.84-9.141c-1.721,5.259,0.911,8.799,2.95,12.612l0.277,0.273
	c0.157-8.839,7.739-13.002,3.621-22.46c11.297,11.453-0.923,23.748,5.261,31.125c-0.969-1.863-0.427-12.836,6.169-15.216
	c-3.793,10.105,3.488,13.843,6.538,22.25C274.002,258.473,267.742,268.16,263.178,269.353z M297.677,306.645v152.998
	c25.841-18.325,77.605-56.934,93.695-95.817c5.335-12.888,10.684-31.587,15.339-52.585c0.336-1.513,0.659-3.061,0.987-4.596H297.677
	z M375.001,356.216c-1.222,7.45-20.86,26.149-21.934,27.07c-0.807,0.693-2.559,2.09-4.456,2.09c-1.897,0-3.649-1.397-4.457-2.09
	c-1.074-0.921-20.712-19.621-21.934-27.07c-0.858-5.268-0.02-9.61,2.493-12.906c2.535-3.328,5.841-5.807,11.794-5.807
	c5.954,0,8.877,2.601,12.103,5.827c2.713-2.713,5.902-5.827,12.103-5.827s9.259,2.48,11.795,5.807
	C375.021,346.606,375.859,350.948,375.001,356.216z M366.746,361.439c0,0.7-0.567,1.267-1.267,1.267h-8.657l-2.527,6.095
	c-0.186,0.448-0.61,0.751-1.094,0.78c-0.026,0.001-0.052,0.003-0.077,0.003c-0.455,0-0.879-0.245-1.104-0.645l-6.661-11.806
	l-2.855,5.024c-0.225,0.396-0.646,0.641-1.101,0.641h-9.662c-0.7,0-1.267-0.567-1.267-1.267c0-0.7,0.567-1.267,1.267-1.267h8.924
	l3.596-6.328c0.225-0.396,0.65-0.647,1.104-0.641c0.455,0.001,0.877,0.247,1.101,0.645l6.483,11.489l1.855-4.475
	c0.197-0.474,0.658-0.782,1.171-0.782h9.503C366.179,360.172,366.746,360.739,366.746,361.439z"></path>
<path id="color_x5F_4_49_" fill="#297DC1" d="M329.377,258.448l-1.524-1.787l6.283-5.359l1.524,1.787
	c0.565,0.662,0.486,1.658-0.177,2.223l-3.884,3.313C330.937,259.19,329.942,259.111,329.377,258.448z M342.581,269.286l0.074,0.057
	c1.295,1.095,3.79,0.973,5.232-0.258l14.324-12.216c1.442-1.231,1.958-3.674,1.081-5.127l-0.046-0.082l-2.519-5.07
	c-0.219-0.441-0.794-0.559-1.169-0.239l-21.638,18.455c-0.375,0.319-0.349,0.906,0.052,1.192L342.581,269.286z M350.568,242.447
	l3.884-3.313c0.662-0.565,0.741-1.56,0.176-2.223l-1.524-1.787l-6.283,5.359l1.524,1.787
	C348.911,242.933,349.906,243.012,350.568,242.447z M417.88,244.841c-2.366,20.495-5.955,42.02-10.182,61.804H297.677v-132.97
	c16.692,0.01,45.901,2.692,74.306,6.652C375.155,208.714,392.856,232.907,417.88,244.841z M367.533,263.535l4.31-5.612l-6.896,1.779
	c-0.413,0.107-0.662,0.528-0.555,0.941v0c0.107,0.413,0.528,0.662,0.942,0.555l2.55-0.658l-2.429,3.163l2.701,2.537l-3.511,0.062
	l-0.982,3.825l-2.26-2.451l-3.454,1.358l1.569-3.92c0.159-0.396-0.034-0.846-0.43-1.005c-0.396-0.159-0.846,0.034-1.005,0.43
	l-2.899,7.242l5.8-2.279l3.469,3.763l1.396-5.439l6.139-0.107L367.533,263.535z M319.662,249.655l3.181,3.73
	c-0.72,1.822-0.559,3.777,0.619,5.159l4.733,5.549c0.79,0.926,1.91,1.442,3.138,1.551c0.426,0.038,0.608,0.557,0.298,0.852
	l-4.573,4.347c0,0-0.475,1.671,2.367,2.775c2.843,1.105,5.728-4.884,5.728-4.884l-0.991-2.021c-0.16-0.327,0.226-0.648,0.518-0.431
	l5.407,4.023c3.733,3.393,7.164,2.349,10.036-0.1l12.84-10.951c2.872-2.449,4.444-5.673,1.683-9.895l-3.119-5.974
	c-0.168-0.322,0.21-0.653,0.507-0.444l1.839,1.297c0,0,6.37-1.903,5.728-4.885c-0.642-2.981-2.367-2.775-2.367-2.775l-5.014,3.83
	c-0.34,0.26-0.824-0.002-0.794-0.429c0.086-1.23-0.246-2.417-1.036-3.343l-4.734-5.55c-1.178-1.381-3.085-1.848-4.996-1.425
	l-3.181-3.73c-1.076-1.262-8.038,4.675-6.962,5.938l2.646,3.104l-13.892,11.848l-2.646-3.104
	C325.547,242.455,318.586,248.393,319.662,249.655z M377.82,274.317h-58.418v3.562h58.418V274.317z M187.492,306.645h110.185
	v152.998c-0.023,0.02-0.057,0.037-0.08,0.058c-25.816-18.295-77.677-56.944-93.784-95.875
	c-5.326-12.871-10.676-31.577-15.335-52.585C188.143,309.728,187.82,308.181,187.492,306.645z M254.979,350.327l-11.994,15.056
	l3.284,3.727c0.703,0.798,1.092,1.826,1.092,2.89v3.12c0,2.415-1.958,4.373-4.374,4.373h-7.452c-1.037,0-1.878,0.841-1.878,1.878
	v3.35h18.76V359.66h3.293v22.042c0,1.691,1.131,3.237,2.785,3.592c2.274,0.487,4.31-1.25,4.31-3.469c0,0-0.059-25.105-0.197-25.452
	C261.935,351.709,257.494,350.588,254.979,350.327z M235.183,340.278c0,4.313,3.503,7.814,7.82,7.814c4.311,0,7.815-3.5,7.815-7.814
	c0-4.315-3.504-7.821-7.815-7.821C238.686,332.458,235.183,335.964,235.183,340.278z M226.274,373.592
	c0,1.153,0.559,2.166,1.411,2.814h15.301c0.71,0,1.286-0.576,1.286-1.286V372c0-0.314-0.114-0.615-0.321-0.849l-13.623-15.462
	c-0.564-0.64-0.502-1.615,0.138-2.178c0.64-0.563,1.615-0.501,2.178,0.138l7.95,9.022l9.893-12.417h-17.82
	c0,0-5.956-0.471-6.363,6.867C226.296,357.243,226.274,373.592,226.274,373.592z"></path>
<path id="color_x5F_3_52_" fill="#00A8CE" d="M309.277,481.697c4.565-0.286,9.085-0.737,13.555-1.35
	c-12.411,9.021-21.861,15.311-25.159,18.012c-3.3-2.7-12.745-8.985-25.149-18c4.468,0.611,8.986,1.06,13.548,1.344
	c5.584,3.925,9.681,6.766,11.601,8.336C299.592,488.466,303.69,485.623,309.277,481.697z M405.331,146.873
	c-0.686-0.117-1.383-0.233-2.078-0.349c0.621,0.435,1.24,0.872,1.855,1.314C405.187,147.518,405.247,147.191,405.331,146.873z
	 M241.789,73.691c0-16.708,7.346-31.691,18.974-41.926c0.847-0.746,1.717-1.465,2.609-2.159
	c9.462-7.365,21.347-11.764,34.266-11.764c12.919,0,24.804,4.399,34.266,11.764c0.892,0.694,1.762,1.413,2.609,2.159
	C346.14,42,353.486,56.984,353.486,73.691c0,0.363-0.021,0.721-0.027,1.083c-0.019,1.009-0.065,2.01-0.138,3.005
	c-1.132,15.622-8.674,29.465-20.027,38.894c-0.397,0.33-0.806,0.644-1.212,0.963c-9.491,7.45-21.443,11.904-34.444,11.904
	c-13.001,0-24.954-4.454-34.444-11.904c-0.406-0.319-0.815-0.633-1.212-0.963C249.646,106.429,241.789,90.979,241.789,73.691z
	 M276.126,62.377c3.624,2.83,7.239,5.671,10.905,8.446c0.402,0.304,1.215,0.295,1.757,0.145c3.089-0.855,6.153-1.796,10.057-2.955
	c-6.334-2.703-11.868-5.27-17.572-7.377c-1.179-0.436-3.451-0.051-4.89,0.364C275.767,61.177,275.621,61.983,276.126,62.377z
	 M261.989,73.255c0,0,2.296,5.956,3.378,8.959c1.08,2.998,3.202,4.566,6.299,4.229c4.394-0.477,20.599-3.722,24.74-4.696
	c-2.212,7.29-4.288,14.131-6.371,20.995c-0.16,0.528,0.259,1.072,0.808,1.017c2.59-0.256,4.862-1.659,6.65-4.435
	c3.461-5.374,6.976-10.745,9.942-16.394c2.088-3.976,4.796-6.091,9.192-7.39c6.455-1.908,9.94-3.192,13.606-4.552
	c3.164-1.174,4.611-3.742,0.651-4.556c-2.091-0.43-3.966-2.418-5.989-2.448c-3.481-0.053-7.08,0.438-10.447,1.364
	c-3.258,0.896-6.511,1.808-9.762,2.731l-1.591,3.828l10.067-2.425l-14.325,20.24l5.196-13.187l-9.829,2.346l2.955-8.642
	c-6.767,1.956-13.525,3.946-20.281,5.942c-3.087,0.912-5.508,1.437-8.311-2.967C267.668,71.805,261.989,73.255,261.989,73.255z
	 M113.516,147.217c0.877-5.617,5.538-12.682,10.829-16.693c-5.725,0.542-14.486,4.83-18.669,15.372
	C106.618,145.574,110.816,143.875,113.516,147.217z M76.239,157.615c0-4.9,0.636-9.651,1.821-14.18
	c0.535-2.046,1.193-4.041,1.948-5.988c4.566-11.782,13.007-21.625,23.768-27.968c1.754-1.034,3.571-1.972,5.442-2.813
	c6.982-3.139,14.718-4.9,22.87-4.9c11.558,0,22.296,3.512,31.206,9.526c0.856,0.578,1.691,1.185,2.513,1.808
	c11.497,8.722,19.503,21.794,21.582,36.766c0.062,0.447,0.12,0.896,0.171,1.347c0.24,2.102,0.376,4.236,0.376,6.402
	c0,29.894-23.487,54.301-53.014,55.777c-0.446,0.022-0.897,0.022-1.346,0.034c-0.496,0.013-0.99,0.038-1.489,0.038
	C101.243,213.464,76.239,188.459,76.239,157.615z M140.415,180.39c0.003-0.967-0.74-1.7-1.729-1.703
	c-0.988-0.004-1.736,0.724-1.74,1.691c-0.002,0.432,0.073,3.029-0.011,3.838c-0.219,2.118-1.567,2.867-2.765,2.862
	c-0.009,0-0.018,0-0.027,0c-1.362-0.018-2.902-1.008-3.065-3.141c-0.178-2.302,0.115-30.884,0.117-31.528
	c0.004-0.968-0.74-1.7-1.729-1.703c-0.988-0.004-1.736,0.723-1.74,1.691l-0.108,29.601c-0.01,2.689-0.02,5.47,2.573,7.395
	c1.083,0.804,3.153,1.165,4.773,1.171c1.62,0.006,3.203-1.114,4.165-2.481C140.884,185.588,140.413,180.799,140.415,180.39z
	 M103.035,149.317c2.361-1.785,7.599-2.533,10.823,0.46c3.281-1.899,9.096-1.187,10.132,1.018c1.32-1.743,4.572-1.964,5.527-1.992
	c0.954,0.028,4.206,0.248,5.526,1.992c1.036-2.205,6.85-2.916,10.132-1.018c3.223-2.993,8.461-2.245,10.822-0.46
	c0-7.195-8.5-20.667-26.479-20.667S103.035,142.772,103.035,149.317z M145.554,147.217c2.7-3.341,6.898-1.643,7.84-1.32
	c-4.183-10.542-12.944-14.83-18.669-15.372C140.017,134.535,144.677,141.599,145.554,147.217z M133.654,147.768
	c0-8.743-2.247-12.907-4.138-17.027c-2.086,4.267-4.026,7.766-4.026,16.982c1.49-0.565,3.132-0.691,3.996-0.716
	C130.41,147.031,132.129,147.164,133.654,147.768z M96.375,293.634l-1.604,0.005c-1.056,0.003-1.416-0.34-1.418-1.202l-0.001-0.493
	c-0.003-1.101,0.565-1.197,1.721-1.186c0.987-0.003,3.129,0.081,4.336,0.182l-0.007-2.546c-0.993-0.301-2.059-0.522-3.465-0.588
	l-0.005-1.729l-1.903,0.005l0.005,1.714c-2.192,0.076-3.949,1.003-3.951,3.858l0.004,1.241c0.003,1.096,0.285,4.025,3.858,4.015
	l1.545-0.004c0.982-0.003,1.207,0.425,1.209,1.143l0.002,0.578c0.002,0.862-0.675,1.063-1.522,1.066
	c-1.854,0.005-3.817-0.124-4.615-0.181l0.007,2.531c1.297,0.4,1.875,0.553,3.505,0.598l0.005,1.659l1.903-0.005l-0.005-1.634
	c1.983-0.006,3.999-0.784,3.989-4.177l-0.002-0.832C99.96,296.046,99.335,293.626,96.375,293.634z M107.501,295.153
	c0.02,6.89-5.55,12.492-12.441,12.511c-6.89,0.019-12.492-5.55-12.511-12.441c-0.02-6.89,5.55-12.492,12.441-12.511
	C101.88,282.692,107.481,288.262,107.501,295.153z M106.156,295.156c-0.017-6.148-5.015-11.117-11.163-11.1
	c-6.148,0.017-11.118,5.015-11.1,11.163c0.017,6.148,5.015,11.117,11.163,11.1C101.204,306.302,106.173,301.304,106.156,295.156z
	 M146.221,295.289c0,19.969-10.488,37.48-26.248,47.353c-0.348,0.218-0.697,0.436-1.051,0.646c-8.355,4.98-18.116,7.85-28.549,7.85
	c-4.675,0-9.213-0.583-13.554-1.665c-1.091-0.272-2.171-0.572-3.236-0.907c-22.639-7.128-39.059-28.283-39.059-53.276
	c0-25.489,17.083-46.975,40.419-53.672c0.534-0.153,1.065-0.311,1.605-0.449c4.421-1.126,9.052-1.728,13.825-1.728
	c10.889,0,21.042,3.127,29.632,8.516c0.348,0.218,0.694,0.439,1.036,0.664C136.206,258.608,146.221,275.775,146.221,295.289z
	 M64.407,293.35c0,0.355,0.288,0.643,0.643,0.643h4.227c-0.438-2.105-0.679-3.969-0.807-5.467h-3.42
	c-0.355,0-0.643,0.288-0.643,0.643V293.35z M58.672,300.961h12.622c-0.144-0.385-0.283-0.764-0.411-1.135
	c-0.523-1.509-0.938-2.961-1.27-4.332h-10.94c-0.356,0-0.643,0.288-0.643,0.643v4.181C58.029,300.673,58.316,300.961,58.672,300.961
	z M63.764,302.891c-0.356,0-0.643,0.288-0.643,0.643v4.181c0,0.355,0.287,0.643,0.643,0.643h11.123
	c-1.137-1.872-2.062-3.716-2.815-5.467H63.764z M62.156,315.647h18.309c-1.705-1.789-3.162-3.632-4.407-5.467H62.156
	c-0.355,0-0.644,0.288-0.644,0.644v4.181C61.513,315.359,61.801,315.647,62.156,315.647z M83.381,318.426
	c-0.324-0.281-0.642-0.565-0.951-0.85H63.764c-0.356,0-0.643,0.288-0.643,0.643v4.181c0,0.355,0.287,0.643,0.643,0.643h18.974
	c0.355,0,0.644-0.288,0.644-0.643V318.426z M119.495,284.5l-0.133-2.906l-2.822-0.702c-6.489-1.615-6.638-7.663-6.642-7.899v-3.095
	l-3.018-0.705c-0.733-0.169-7.289-1.657-11.856-1.657c-4.567,0-11.123,1.487-11.859,1.657l-3.015,0.705v3.095
	c-0.001,0.255-0.092,6.268-6.641,7.899l-2.822,0.702l-0.133,2.906c-0.011,0.262-0.26,6.505,2.398,14.179
	c2.463,7.112,7.983,16.918,20.291,23.245l1.783,0.916l1.783-0.916c12.309-6.328,17.829-16.134,20.292-23.245
	C119.702,291.159,119.523,285.164,119.495,284.5z M115.421,284.819c0.023,0.921,0.038,6.117-2.18,12.523
	c-2.214,6.392-7.171,15.199-18.218,20.909c-11.047-5.709-16.004-14.517-18.217-20.909c-2.227-6.433-2.204-11.614-2.181-12.523
	c8.959-2.308,9.563-10.448,9.603-11.682c1.006-0.227,6.895-1.52,10.795-1.52c3.904,0,9.804,1.296,10.796,1.52
	C105.864,274.297,106.499,282.52,115.421,284.819z M110.025,295.146c-0.023-8.284-6.758-14.982-15.043-14.958
	c-8.285,0.023-14.982,6.758-14.958,15.043c0.023,8.285,6.758,14.982,15.043,14.958C103.351,310.165,110.048,303.43,110.025,295.146z
	 M554.88,295.289c0,30.844-25.004,55.849-55.848,55.849c-8.36,0-16.283-1.849-23.404-5.141c-0.361-0.167-0.723-0.33-1.08-0.504
	c-18.105-8.846-30.702-27.195-31.324-48.553c-5.741,29.559-13.12,57.619-21.14,76.995c-17.717,42.827-65.941,82.029-97.241,104.943
	c-4.526,0.676-9.104,1.187-13.731,1.525c27.521-19.4,85.929-62.038,105.478-109.295c14.628-35.343,27.039-100.899,30.556-148.994
	c-27.216-3.005-48.39-26.07-48.39-54.083c0-4.824,0.639-9.505,1.819-13.96c-33.558-5.722-78.257-10.733-102.905-10.733
	c-23.883,0-66.577,4.702-99.73,10.199c1.271,4.614,1.965,9.473,1.965,14.493c0,29.145-22.908,52.934-51.7,54.352
	c3.545,48.074,15.936,113.446,30.538,148.724c19.555,47.261,77.968,89.902,105.49,109.3c-4.624-0.336-9.2-0.844-13.724-1.518
	c-31.301-22.913-79.536-62.12-97.26-104.955c-15.276-36.908-28.239-105.299-31.948-155.595
	c30.122-1.483,54.089-26.372,54.089-56.863c0-5.031-0.672-9.903-1.897-14.547c0.404-0.28,0.805-0.563,1.211-0.84
	c34.484-5.654,78.307-10.446,102.967-10.446c24.634,0,68.404,4.784,102.876,10.431c1.44,0.981,2.862,1.985,4.272,3.006
	c-0.891,3.994-1.392,8.137-1.392,12.396c0,29.307,22.152,53.437,50.625,56.581c-1.264,17.29-3.628,36.737-6.806,56.317
	c5.013-12.401,14.347-22.585,26.14-28.694c0.353-0.183,0.705-0.369,1.063-0.544c7.419-3.643,15.759-5.697,24.582-5.697
	c6.528,0,12.79,1.131,18.613,3.189c0.973,0.344,1.935,0.708,2.882,1.104C540.7,252.155,554.88,272.064,554.88,295.289z
	 M507.742,274.472c0,2.53,2.049,4.584,4.574,4.584c2.521,0,4.571-2.053,4.571-4.584c0-2.531-2.05-4.588-4.571-4.588
	C509.791,269.884,507.742,271.941,507.742,274.472z M500.748,285.641c1.704,0.3,3.178,1.273,4.138,2.638v-2.437h1.971v10.182
	c2.269,0.241,5.264,1.405,5.983,4.669h0.847v1.107c1.067-0.198,2.276-0.363,3.665-0.469c0.13-0.094,0.298-0.226,0.477-0.371v-15.119
	h1.926v13.002c0,0.134,0.015,0.265,0.039,0.392c0.201-0.194,0.362-0.359,0.441-0.461c0.883-1.231,2.109-2.686,3.656-3.943
	c-0.017-4.376-0.05-10.785-0.103-10.919c-0.553-3.847-5.476-3.59-5.476-3.59h-12.035c0,0-5.289-0.277-5.527,4.028
	C500.75,284.364,500.749,284.854,500.748,285.641z M495.054,291.978c0,2.53,2.049,4.584,4.574,4.584c2.521,0,4.57-2.053,4.57-4.584
	c0-2.531-2.049-4.587-4.57-4.587C497.103,287.391,495.054,289.448,495.054,291.978z M482.366,274.472
	c0,2.53,2.049,4.584,4.574,4.584c2.521,0,4.571-2.053,4.571-4.584c0-2.531-2.05-4.588-4.571-4.588
	C484.415,269.884,482.366,271.941,482.366,274.472z M475.361,294.825c1.553,1.26,2.784,2.721,3.674,3.962
	c0.077,0.098,0.236,0.261,0.435,0.453c0.024-0.129,0.039-0.261,0.039-0.396v-13.002h1.972V301c0.16,0.128,0.31,0.245,0.428,0.331
	c1.407,0.106,2.63,0.274,3.707,0.475v-1.114h0.741c0.705-3.31,3.774-4.462,6.095-4.68v-10.172h1.926v2.442
	c0.948-1.35,2.398-2.319,4.078-2.633c-0.013-1.026-0.027-1.696-0.044-1.738c-0.553-3.847-5.476-3.59-5.476-3.59h-12.035
	c0,0-5.289-0.277-5.527,4.028C475.372,284.398,475.365,290.552,475.361,294.825z M497.855,315.895
	c-1.38-6.155-6.46-9.791-7.015-10.221c-0.306-0.238-2.737-2.077-9.48-2.524c-0.371-0.031-3.346-2.599-3.836-3.283
	c-3.278-4.57-6.491-5.488-6.971-5.669c-0.64-0.309-3.09,0.071-1.913,1.705c0.074,0.013,3.748,5.173,3.987,5.586
	c0.422,0.728,2.211,2.434,2.63,2.893c0,0-2.349-1.391-2.913-2.001c-0.251-0.273-4.149-5.726-4.373-6.08
	c-1.111-1.755,0.158-2.805,1.365-2.938c-0.059-0.202-0.614-5.51-0.711-6.401c-0.277-2.559-2.663-5.059-2.945-4.762
	c-0.333,0.35-0.532,2.209-0.628,3.384c0,0-0.641,6.306-0.487,9.248c0.083,1.578,4.984,12.434,6.393,14.111
	c1.407,1.677,12.424,8.027,12.424,8.027c0.368,0.306,2.408,1.877,2.408,3.937v4.471l11.877,0.014c0,0,0.166-5.615,0.258-6.37
	C498.183,318.158,497.975,316.528,497.855,315.895z M499.632,315.352c0.987-4.17,3.399-7.277,5.509-9.313v-2.692h1.926v1.027
	c0.047-0.036,0.097-0.077,0.142-0.111l0.073-0.056c0.535-0.414,1.714-1.156,3.851-1.8c-0.01-0.592-0.021-0.958-0.033-0.989
	c-0.553-3.847-5.476-3.59-5.476-3.59H493.59c0,0-5.289-0.277-5.527,4.028c-0.001,0.008-0.001,0.203-0.002,0.53
	c2.178,0.648,3.377,1.402,3.918,1.821l0.073,0.056c0.046,0.035,0.098,0.076,0.146,0.113v-1.029h1.972v2.738
	C496.276,308.128,498.67,311.225,499.632,315.352z M534.201,285.584c-0.097-1.175-0.295-3.034-0.628-3.384
	c-0.282-0.298-2.668,2.203-2.945,4.762c-0.098,0.891-0.653,6.199-0.711,6.401c1.208,0.133,2.477,1.183,1.365,2.938
	c-0.225,0.355-4.122,5.807-4.373,6.08c-0.564,0.61-2.913,2.001-2.913,2.001c0.419-0.459,2.208-2.165,2.63-2.893
	c0.24-0.413,3.914-5.573,3.988-5.586c1.177-1.634-1.274-2.014-1.914-1.705c-0.48,0.181-3.693,1.099-6.971,5.669
	c-0.49,0.684-3.465,3.252-3.836,3.283c-6.743,0.447-9.173,2.286-9.48,2.524c-0.555,0.43-5.635,4.066-7.015,10.221
	c-0.121,0.633-0.328,2.263-0.069,3.126c0.091,0.755,0.258,6.37,0.258,6.37l11.877-0.014v-4.471c0-2.06,2.04-3.63,2.408-3.937
	c0,0,11.016-6.35,12.424-8.027c1.408-1.677,6.31-12.533,6.392-14.111C534.842,291.89,534.201,285.584,534.201,285.584z
	 M413.351,157.615c0-0.65,0.027-1.293,0.049-1.938c0.017-0.487,0.034-0.973,0.063-1.456c1.756-29.263,26.033-52.455,55.736-52.455
	c4.671,0,9.205,0.582,13.542,1.662c1.298,0.323,2.575,0.696,3.834,1.109c20.315,6.647,35.489,24.621,38.068,46.463
	c0.16,1.356,0.279,2.725,0.34,4.11c0.037,0.831,0.063,1.665,0.063,2.505c0,16.947-7.559,32.119-19.477,42.362
	c-0.768,0.66-1.552,1.301-2.356,1.92c-9.421,7.248-21.211,11.567-34.016,11.567c-2.639,0-5.23-0.196-7.772-0.55
	c-0.483-0.067-0.965-0.14-1.444-0.22C433.527,208.298,413.351,185.319,413.351,157.615z M492.627,181.292
	c-3.814,1.759-7.358-1.331-10.484-3.202c-0.725-0.434-1.686-0.434-2.41,0c-2.186,1.309-5.154,3.835-7.839,3.835
	c-2.685-0.001-5.646-2.525-7.833-3.835c-0.725-0.434-1.686-0.434-2.41,0c-2.782,1.666-5.81,4.289-9.183,3.431
	c-2.649-0.674-3.037-0.873-5.1-2.635c-2.117-1.808-5.938,2.251-0.984,4.96c3.018,1.65,5.817,3.383,9.418,2.636
	c2.529-0.525,4.845-2.111,7.057-3.52c2.774,1.754,5.693,3.738,9.035,3.739c3.355,0,6.278-1.993,9.06-3.752
	c4.559,2.748,8.555,5.017,14.083,2.467C497.825,184.129,495.401,180.012,492.627,181.292z M449.951,146.288
	c2.654,0.746,4.69,2.29,6.094,4.273l1.606-0.722l-0.781,2.083c1.351,2.572,1.814,5.63,1.384,8.538l4.904-13.079l16.731-7.456
	l7.682,16.627l-4.18,11.141c0.856,1.177,2.128,2.148,3.537,2.784l3.17-8.45l2.177,5.075l5.853-2.584l-13.76-30.145
	c-0.555-1.47-2.465-2.346-4.198-1.577L449.951,146.288z M467.5,157.673l-3.674,9.826c1.896,0.454,3.135,2.04,4.792,2.934
	c1.998,1.079,3.704,1.067,5.335,0.479l3.542-9.485L467.5,157.673z M456.649,165.172c-0.676,1.178-1.555,2.232-2.621,3.114
	l3.221,1.21c1.642-1.097,3.35-2.075,5.208-2.133L456.649,165.172z M437.539,168.722c2.279,2.854,5.77,4.421,8.844,6.289
	c2.94,1.786,5.817,3.383,9.418,2.636c2.529-0.525,4.845-2.111,7.057-3.52c2.774,1.754,5.693,3.739,9.035,3.739
	c3.355,0,6.278-1.993,9.06-3.752c4.559,2.748,8.555,5.017,14.083,2.467c2.788-1.285,0.364-5.403-2.41-4.123
	c-3.814,1.759-7.358-1.331-10.484-3.202c-0.725-0.434-1.686-0.434-2.41,0c-2.186,1.309-5.154,3.835-7.839,3.835
	c-2.685-0.001-5.646-2.525-7.833-3.835c-0.725-0.434-1.686-0.434-2.41,0c-2.782,1.666-5.81,4.289-9.183,3.431
	c-2.649-0.674-5.1-2.635-7.405-4.065c-4.655-2.889-8.74-9.561-3.402-14.372c2.735-2.465,7.629-2.492,9.559,0.971
	c1.97,3.534-0.806,7.273-4.615,5.972c-2.914-0.996-4.166,3.615-1.269,4.605c8.57,2.928,14.265-7.072,9.382-13.979
	c-5.396-7.632-17.187-3.831-19.608,4.33C433.831,160.454,434.736,165.212,437.539,168.722z"></path>
<path id="color_x5F_2_50_" fill="#FFFFFF" d="M322.832,480.346c-4.47,0.613-8.99,1.065-13.555,1.35
	c0.594-0.418,1.21-0.851,1.837-1.293c4.626-0.338,9.205-0.849,13.731-1.525c72.295-10.806,130.914-63.992,149.704-133.386
	c0.356,0.174,0.719,0.337,1.08,0.504C456.47,416.436,396.522,470.235,322.832,480.346z M121.041,248.622
	c3.421-12.31,8.096-24.102,13.881-35.23c-0.446,0.022-0.897,0.022-1.346,0.034c-5.63,10.924-10.197,22.481-13.572,34.532
	C120.353,248.176,120.699,248.396,121.041,248.622z M459.984,212.693c5.488,10.446,9.996,21.483,13.403,32.989
	c0.353-0.183,0.705-0.369,1.063-0.544c-3.338-11.223-7.713-22.003-13.022-32.225C460.944,212.846,460.463,212.773,459.984,212.693z
	 M332.082,117.636c24.979,4.77,48.176,14.619,68.466,28.44c1.44,0.981,2.862,1.985,4.272,3.006c2.925,2.117,5.787,4.315,8.58,6.596
	c0.017-0.487,0.034-0.973,0.063-1.456c-2.723-2.204-5.508-4.335-8.355-6.383c-0.615-0.442-1.234-0.879-1.855-1.314
	c-20.636-14.466-44.354-24.815-69.959-29.851C332.897,117.002,332.488,117.317,332.082,117.636z M118.923,343.288
	c18.348,71.793,78.931,126.857,153.601,137.069c4.468,0.611,8.986,1.06,13.548,1.344c-0.594-0.418-1.21-0.851-1.837-1.293
	c-4.624-0.336-9.2-0.844-13.724-1.518c-73.319-10.926-132.593-65.436-150.538-136.247
	C119.625,342.86,119.276,343.078,118.923,343.288z M187.56,151.213c1.947-1.468,3.928-2.892,5.935-4.282
	c0.404-0.28,0.805-0.563,1.211-0.84c20.295-13.828,43.5-23.683,68.488-28.455c-0.406-0.319-0.815-0.633-1.212-0.963
	c-27.54,5.417-52.906,16.972-74.593,33.193C187.451,150.313,187.508,150.762,187.56,151.213z M524.645,151.001
	c0.16,1.356,0.279,2.725,0.34,4.11c26.003,41.328,41.07,90.198,41.07,142.528c0,72.38-28.808,138.149-75.546,186.474
	c10.336-21.893,20.922-47.374,21.219-53.047c0.936-17.819-2.946-56.005-2.946-56.005c-0.584-7.119-1.786-18.372-3.804-20.493
	c-1.706-1.802-16.159,13.341-17.835,28.836c-0.591,5.397-3.953,37.542-4.308,38.767c7.314,0.803,15.001,7.162,8.267,17.792
	c-1.361,2.147-24.96,35.166-26.484,36.822c-3.412,3.693-17.639,12.116-17.639,12.116c2.536-2.781,13.371-13.109,15.927-17.52
	c1.45-2.499,23.699-33.752,24.151-33.828c7.128-9.897-7.713-12.197-11.59-10.328c-2.907,1.095-22.362,6.654-42.215,34.329
	c-2.966,4.142-20.984,19.697-23.231,19.883c-40.834,2.708-55.549,13.842-57.408,15.283c-2.069,1.601-14.514,10.568-25.729,25.908
	c-0.396,0.209-0.665,0.586-0.747,1.029c-6.722,9.416-12.905,21.136-16.004,34.961c-0.306,1.598-0.699,4.249-0.943,7.172
	c-3.832,0.163-7.68,0.265-11.551,0.265c-2.68,0-5.347-0.051-8.008-0.129c-0.243-2.976-0.645-5.685-0.954-7.307
	c-8.356-37.276-39.122-59.296-42.484-61.898c-1.855-1.441-16.574-12.575-57.408-15.283c-2.247-0.186-20.261-15.741-23.229-19.883
	c-19.853-27.675-39.31-33.234-42.217-34.329c-3.874-1.869-18.715,0.431-11.586,10.328c0.451,0.077,22.7,31.329,24.147,33.828
	c2.555,4.411,13.391,14.738,15.927,17.52c0,0-14.227-8.423-17.639-12.116c-1.52-1.656-25.123-34.675-26.484-36.822
	c-6.731-10.63,0.956-16.989,8.267-17.792c-0.356-1.224-3.717-33.37-4.304-38.767c-1.679-15.495-16.13-30.638-17.835-28.836
	c-2.018,2.121-3.223,13.374-3.803,20.493c0,0-3.883,38.186-2.951,56.005c0.329,6.27,13.224,36.735,24.462,59.811
	c-50.714-48.858-82.318-117.423-82.318-193.238c0-57.345,18.086-110.54,48.84-154.202c0.535-2.046,1.193-4.041,1.948-5.988
	c-34.113,46.14-52.549,101.747-52.549,160.19c0,72.168,28.103,140.015,79.133,191.044c2.406,2.406,4.861,4.744,7.341,7.048
	c4.938,9.874,9.328,17.775,11.857,20.787c8.523,10.155,75.236,48.61,75.236,48.61c1.898,1.578,11.117,8.701,13.828,18.471
	c23.402,6.763,47.988,10.727,73.377,11.515c0.293-7.946,0.621-15.565,0.862-17.564c0.774-2.581,0.858-6.296,0.658-9.857
	c2.623,0.075,5.25,0.124,7.885,0.124c3.821,0,7.627-0.096,11.423-0.253c-0.208,3.6-0.13,7.374,0.654,9.986
	c0.24,1.987,0.565,9.533,0.857,17.43c25.545-1.093,50.254-5.401,73.735-12.537c3.08-9.174,11.653-15.8,13.475-17.315
	c0,0,66.711-38.455,75.237-48.61c3.055-3.639,8.826-14.414,14.997-27.182c0.221-0.22,0.447-0.432,0.668-0.652
	c51.03-51.029,79.133-118.877,79.133-191.044C567.816,244.806,552.737,194.299,524.645,151.001z M260.763,31.765
	c0.847-0.746,1.717-1.465,2.609-2.159c-59.186,7.445-113.916,34.124-156.778,76.986c-0.952,0.952-1.881,1.922-2.817,2.886
	c1.754-1.034,3.571-1.972,5.442-2.813C149.445,66.971,202.107,39.861,260.763,31.765z M482.742,103.429
	c1.298,0.323,2.575,0.696,3.834,1.109c-42.544-41.651-96.445-67.607-154.672-74.931c0.892,0.694,1.762,1.413,2.609,2.159
	C391.565,39.639,442.957,65.492,482.742,103.429z M376.666,85.04c0.169,0.062,0.342,0.092,0.513,0.092
	c0.597,0,1.158-0.366,1.379-0.959c0.283-0.761-0.105-1.609-0.866-1.892c-3.154-1.173-6.383-2.293-9.6-3.329
	c-0.777-0.252-1.604,0.176-1.851,0.949c-0.25,0.774,0.176,1.602,0.949,1.851C370.366,82.775,373.554,83.882,376.666,85.04z
	 M190.808,97.361c0.232,0,0.468-0.056,0.688-0.173c2.944-1.561,5.964-3.079,8.977-4.51c0.734-0.348,1.047-1.226,0.698-1.96
	c-0.348-0.733-1.225-1.043-1.96-0.698c-3.054,1.45-6.113,2.987-9.096,4.569c-0.717,0.381-0.99,1.271-0.61,1.989
	C189.771,97.077,190.28,97.361,190.808,97.361z M166.238,110.981c-0.473-0.659-1.39-0.813-2.053-0.342
	c-0.298,0.213-0.593,0.437-0.891,0.652c0.856,0.578,1.691,1.185,2.513,1.808c0.03-0.022,0.06-0.044,0.09-0.066
	C166.557,112.562,166.71,111.642,166.238,110.981z M173.391,107.616c0.275,0,0.553-0.077,0.801-0.238
	c2.787-1.812,5.66-3.59,8.538-5.286c0.7-0.412,0.934-1.314,0.521-2.014c-0.412-0.701-1.316-0.934-2.014-0.521
	c-2.916,1.716-5.826,3.518-8.65,5.354c-0.681,0.443-0.874,1.354-0.431,2.036C172.438,107.38,172.91,107.616,173.391,107.616z
	 M209.077,88.688c0.19,0,0.384-0.037,0.571-0.116c3.076-1.297,6.221-2.54,9.348-3.696c0.762-0.282,1.152-1.128,0.87-1.89
	c-0.282-0.762-1.126-1.153-1.89-0.87c-3.168,1.171-6.355,2.431-9.471,3.743c-0.749,0.316-1.1,1.179-0.785,1.928
	C207.957,88.35,208.503,88.688,209.077,88.688z M429.544,113.189c0.259,0.186,0.56,0.275,0.856,0.275
	c0.458,0,0.91-0.213,1.197-0.614c0.473-0.661,0.322-1.58-0.339-2.053c-2.735-1.961-5.555-3.889-8.38-5.729
	c-0.678-0.444-1.592-0.251-2.035,0.429c-0.444,0.68-0.251,1.592,0.43,2.035C424.06,109.351,426.844,111.254,429.544,113.189z
	 M412.762,102.25c0.235,0.139,0.492,0.204,0.746,0.204c0.504,0,0.994-0.258,1.269-0.723c0.414-0.699,0.181-1.601-0.519-2.015
	c-2.901-1.714-5.877-3.383-8.847-4.965c-0.716-0.381-1.609-0.109-1.99,0.607c-0.382,0.717-0.11,1.608,0.607,1.99
	C406.959,98.91,409.897,100.559,412.762,102.25z M359.384,77.861c0.214-0.784-0.247-1.592-1.031-1.807
	c-1.619-0.443-3.254-0.87-4.894-1.28c-0.019,1.009-0.065,2.01-0.138,3.005c1.425,0.36,2.848,0.728,4.256,1.113
	c0.13,0.035,0.26,0.053,0.389,0.053C358.612,78.945,359.205,78.515,359.384,77.861z M84.765,215.083
	c0.177,0.07,0.361,0.104,0.541,0.104c0.585,0,1.139-0.353,1.368-0.931c1.224-3.093,2.532-6.195,3.887-9.22
	c0.332-0.742,0.001-1.612-0.741-1.944c-0.742-0.334-1.612-0.001-1.944,0.742c-1.373,3.064-2.697,6.206-3.938,9.34
	C83.639,213.929,84.009,214.784,84.765,215.083z M228.056,81.672c0.149,0,0.299-0.023,0.448-0.07
	c3.165-1.012,6.401-1.968,9.619-2.84c0.785-0.212,1.248-1.021,1.035-1.805c-0.212-0.783-1.019-1.248-1.805-1.035
	c-3.261,0.884-6.54,1.852-9.745,2.877c-0.774,0.248-1.201,1.076-0.954,1.85C226.855,81.273,227.433,81.672,228.056,81.672z
	 M517.66,352.619c-0.809,3.242-1.697,6.498-2.641,9.677c-0.232,0.779,0.212,1.598,0.992,1.829c0.14,0.042,0.281,0.061,0.42,0.061
	c0.635,0,1.22-0.414,1.41-1.053c0.956-3.221,1.857-6.519,2.675-9.803c0.197-0.789-0.282-1.587-1.071-1.783
	C518.651,351.349,517.857,351.831,517.66,352.619z M78.307,234.208c0.14,0.042,0.28,0.061,0.418,0.061
	c0.635,0,1.22-0.414,1.41-1.054c0.944-3.194,1.973-6.408,3.058-9.552c0.264-0.769-0.144-1.606-0.911-1.871
	c-0.769-0.267-1.606,0.144-1.871,0.912c-1.098,3.186-2.14,6.441-3.097,9.676C77.083,233.16,77.527,233.979,78.307,234.208z
	 M307.392,524.189c-0.812,0.035-1.443,0.721-1.408,1.532c0.034,0.791,0.686,1.409,1.469,1.409c0.021,0,0.042,0,0.063-0.001
	c3.383-0.144,6.794-0.364,10.139-0.654c0.809-0.07,1.409-0.783,1.339-1.592c-0.069-0.809-0.769-1.406-1.592-1.339
	C314.099,523.831,310.732,524.047,307.392,524.189z M80.338,372.359c0.21,0.61,0.781,0.994,1.391,0.994
	c0.159,0,0.32-0.026,0.478-0.081c0.769-0.264,1.177-1.101,0.913-1.869c-1.081-3.144-2.107-6.359-3.049-9.556
	c-0.23-0.78-1.048-1.225-1.827-0.995c-0.779,0.23-1.225,1.048-0.995,1.827C78.203,365.918,79.243,369.175,80.338,372.359z
	 M287.203,527.107c3.37,0.151,6.787,0.228,10.158,0.232c0,0,0,0,0.001,0c0.812,0,1.47-0.658,1.471-1.469
	c0.001-0.813-0.657-1.472-1.469-1.473c-3.328-0.003-6.702-0.08-10.03-0.228c-0.818-0.056-1.498,0.593-1.535,1.404
	C285.762,526.384,286.391,527.071,287.203,527.107z M517.646,242.631c0.973,0.344,1.935,0.708,2.882,1.104
	c0.184-0.318,0.255-0.702,0.161-1.087c-0.803-3.268-1.693-6.569-2.643-9.811c-0.229-0.78-1.049-1.224-1.826-0.998
	c-0.78,0.229-1.226,1.046-0.998,1.826C516.091,236.628,516.9,239.639,517.646,242.631z M506.17,206.274
	c0.2,0,0.404-0.042,0.599-0.128c0.742-0.331,1.075-1.201,0.744-1.943c-0.628-1.409-1.28-2.82-1.941-4.226
	c-0.768,0.66-1.552,1.301-2.356,1.92c0.545,1.167,1.089,2.336,1.61,3.505C505.069,205.948,505.607,206.274,506.17,206.274z
	 M76.819,349.473c-1.091-0.272-2.171-0.572-3.236-0.907c0.326,1.44,0.66,2.879,1.011,4.305c0.166,0.671,0.766,1.119,1.428,1.119
	c0.117,0,0.235-0.014,0.354-0.043c0.789-0.195,1.27-0.992,1.076-1.782C77.232,351.274,77.03,350.371,76.819,349.473z
	 M395.089,92.841c0.204,0.097,0.42,0.144,0.632,0.144c0.549,0,1.077-0.31,1.329-0.839c0.35-0.733,0.038-1.611-0.695-1.961
	c-3.04-1.45-6.15-2.849-9.245-4.16c-0.749-0.32-1.613,0.032-1.928,0.781c-0.317,0.749,0.033,1.612,0.78,1.929
	C389.017,90.029,392.088,91.41,395.089,92.841z M74.943,241.617c0.534-0.153,1.065-0.311,1.605-0.449
	c-0.042-0.015-0.074-0.045-0.118-0.056C75.855,240.969,75.29,241.19,74.943,241.617z M512.183,224.106
	c0.209,0.611,0.78,0.995,1.392,0.995c0.158,0,0.319-0.026,0.477-0.08c0.769-0.263,1.178-1.1,0.915-1.868
	c-1.094-3.191-2.276-6.407-3.517-9.561c-0.297-0.754-1.149-1.126-1.908-0.83c-0.756,0.297-1.128,1.151-0.83,1.908
	C509.936,217.782,511.104,220.957,512.183,224.106z M329.271,246.82l13.892-11.848l-2.646-3.104c-1.076-1.262,5.886-7.2,6.962-5.938
	l3.181,3.73c1.912-0.423,3.818,0.044,4.996,1.425l4.734,5.55c0.79,0.926,1.122,2.113,1.036,3.343
	c-0.03,0.427,0.454,0.689,0.794,0.429l5.014-3.83c0,0,1.725-0.206,2.367,2.775c0.643,2.982-5.728,4.885-5.728,4.885l-1.839-1.297
	c-0.297-0.21-0.675,0.121-0.507,0.444l3.119,5.974c2.761,4.222,1.189,7.446-1.683,9.895l-12.84,10.951
	c-2.872,2.449-6.303,3.492-10.036,0.1l-5.407-4.023c-0.292-0.217-0.678,0.104-0.518,0.431l0.991,2.021c0,0-2.885,5.99-5.728,4.884
	c-2.842-1.104-2.367-2.775-2.367-2.775l4.573-4.347c0.31-0.295,0.128-0.814-0.298-0.852c-1.228-0.109-2.348-0.625-3.138-1.551
	l-4.733-5.549c-1.178-1.382-1.339-3.337-0.619-5.159l-3.181-3.73c-1.076-1.262,5.885-7.199,6.962-5.938L329.271,246.82z
	 M346.821,240.483l1.524,1.787c0.565,0.663,1.56,0.742,2.223,0.176l3.884-3.313c0.662-0.565,0.741-1.56,0.176-2.223l-1.524-1.787
	L346.821,240.483z M337.972,265.999l4.609,3.287l0.074,0.057c1.295,1.095,3.79,0.973,5.232-0.258l14.324-12.216
	c1.442-1.231,1.958-3.674,1.081-5.127l-0.046-0.082l-2.519-5.07c-0.219-0.441-0.794-0.559-1.169-0.239l-21.638,18.455
	C337.546,265.126,337.571,265.713,337.972,265.999z M334.136,251.303l-6.283,5.359l1.524,1.787c0.565,0.662,1.56,0.741,2.223,0.176
	l3.884-3.313c0.663-0.565,0.742-1.56,0.177-2.223L334.136,251.303z M319.402,277.879h58.418v-3.562h-58.418V277.879z
	 M359.088,264.11c-0.396-0.159-0.846,0.034-1.005,0.43l-2.899,7.242l5.8-2.279l3.469,3.763l1.396-5.439l6.139-0.107l-4.455-4.185
	l4.31-5.612l-6.896,1.779c-0.413,0.107-0.662,0.528-0.555,0.941v0c0.107,0.413,0.528,0.662,0.942,0.555l2.55-0.658l-2.429,3.163
	l2.701,2.537l-3.511,0.062l-0.982,3.825l-2.26-2.451l-3.454,1.358l1.569-3.92C359.677,264.718,359.485,264.268,359.088,264.11z
	 M257.981,242.304c-6.185-7.377,6.036-19.672-5.261-31.125c4.118,9.458-3.464,13.621-3.621,22.46l-0.277-0.273
	c-2.038-3.814-4.67-7.354-2.95-12.612c-3.455,1.711-5.22,5.407-4.84,9.141c1.049,10.654,10.765,10.249,12.106,22.768
	c0.923,8.615-1.192,12.966-1.192,12.966s4.633-2.809,6.503-7.626l0.007,15.649l-8.497,0.01l-0.023-11.957h-11.77l0.018,11.957
	l-8.476-0.01l-0.012-20.885l9.42-9.293c1.712-1.689,2.15-4.27,1.124-6.444c-0.497-1.052-0.957-2.12-1.389-3.2l-20.361,19.987
	c-1.374,1.355-1.37,3.573,0.009,4.923l0.122,0.119c1.343,1.316,3.446,1.328,6.344-1.422l0.013,20.443h38.211l-0.008-8.527
	c4.564-1.192,10.824-10.879,7.51-20.015c-3.05-8.407-10.331-12.145-6.538-22.25C257.554,229.468,257.012,240.441,257.981,242.304z
	 M372.509,343.309c2.512,3.297,3.351,7.639,2.493,12.906c-1.222,7.45-20.86,26.149-21.934,27.07c-0.807,0.693-2.559,2.09-4.456,2.09
	c-1.897,0-3.649-1.397-4.457-2.09c-1.074-0.921-20.712-19.621-21.934-27.07c-0.858-5.268-0.02-9.61,2.493-12.906
	c2.535-3.328,5.841-5.807,11.794-5.807c5.954,0,8.877,2.601,12.103,5.827c2.713-2.713,5.902-5.827,12.103-5.827
	S369.973,339.982,372.509,343.309z M366.746,361.439c0-0.7-0.567-1.267-1.267-1.267h-9.503c-0.512,0-0.974,0.308-1.171,0.782
	l-1.855,4.475l-6.483-11.489c-0.224-0.397-0.646-0.643-1.101-0.645c-0.454-0.006-0.878,0.245-1.104,0.641l-3.596,6.328h-8.924
	c-0.7,0-1.267,0.567-1.267,1.267c0,0.701,0.567,1.267,1.267,1.267h9.662c0.455,0,0.876-0.245,1.101-0.641l2.855-5.024l6.661,11.806
	c0.225,0.4,0.648,0.645,1.104,0.645c0.025,0,0.051-0.001,0.077-0.003c0.484-0.028,0.908-0.332,1.094-0.78l2.527-6.095h8.657
	C366.179,362.706,366.746,362.139,366.746,361.439z M250.819,340.278c0-4.315-3.504-7.821-7.815-7.821
	c-4.317,0-7.82,3.506-7.82,7.821c0,4.313,3.503,7.814,7.82,7.814C247.314,348.092,250.819,344.592,250.819,340.278z
	 M226.305,357.119c-0.009,0.123-0.031,16.473-0.031,16.473c0,1.153,0.559,2.166,1.411,2.814h15.301c0.71,0,1.286-0.576,1.286-1.286
	V372c0-0.314-0.114-0.615-0.321-0.849l-13.623-15.462c-0.564-0.64-0.502-1.615,0.138-2.178c0.64-0.563,1.615-0.501,2.178,0.138
	l7.95,9.022l9.893-12.417h-17.82C232.667,350.252,226.711,349.781,226.305,357.119z M258.495,385.293
	c2.274,0.487,4.31-1.25,4.31-3.469c0,0-0.059-25.105-0.197-25.452c-0.672-4.664-5.113-5.785-7.628-6.046l-11.994,15.056l3.284,3.727
	c0.703,0.798,1.092,1.826,1.092,2.89v3.12c0,2.415-1.958,4.373-4.374,4.373h-7.452c-1.037,0-1.878,0.841-1.878,1.878v3.35h18.76
	V359.66h3.293v22.042C255.71,383.393,256.841,384.939,258.495,385.293z M287.03,70.823c0.402,0.304,1.215,0.295,1.757,0.145
	c3.089-0.855,6.153-1.796,10.057-2.955c-6.334-2.703-11.868-5.27-17.572-7.377c-1.179-0.436-3.451-0.051-4.89,0.364
	c-0.616,0.177-0.762,0.984-0.257,1.378C279.75,65.207,283.365,68.048,287.03,70.823z M265.367,82.214
	c1.08,2.998,3.202,4.566,6.299,4.229c4.394-0.477,20.599-3.722,24.74-4.696c-2.212,7.29-4.288,14.131-6.371,20.995
	c-0.16,0.528,0.259,1.072,0.808,1.017c2.59-0.256,4.862-1.659,6.65-4.435c3.461-5.374,6.976-10.745,9.942-16.394
	c2.088-3.976,4.796-6.091,9.192-7.39c6.455-1.908,9.94-3.192,13.606-4.552c3.164-1.174,4.611-3.742,0.651-4.556
	c-2.091-0.43-3.966-2.418-5.989-2.448c-3.481-0.053-7.08,0.438-10.447,1.364c-3.258,0.896-6.511,1.808-9.762,2.731l-1.591,3.828
	l10.067-2.425l-14.325,20.24l5.196-13.187l-9.829,2.346l2.955-8.642c-6.767,1.956-13.525,3.946-20.281,5.942
	c-3.087,0.912-5.508,1.437-8.311-2.967c-0.898-1.411-6.577,0.04-6.577,0.04S264.285,79.211,265.367,82.214z M486.94,269.884
	c-2.525,0-4.574,2.057-4.574,4.588c0,2.53,2.049,4.584,4.574,4.584c2.521,0,4.571-2.053,4.571-4.584
	C491.51,271.941,489.461,269.884,486.94,269.884z M512.316,279.056c2.521,0,4.571-2.053,4.571-4.584c0-2.531-2.05-4.588-4.571-4.588
	c-2.525,0-4.574,2.057-4.574,4.588C507.742,277.002,509.791,279.056,512.316,279.056z M495.054,291.978
	c0,2.53,2.049,4.584,4.574,4.584c2.521,0,4.57-2.053,4.57-4.584c0-2.531-2.049-4.587-4.57-4.587
	C497.103,287.391,495.054,289.448,495.054,291.978z M492.937,280.323h-12.035c0,0-5.289-0.277-5.527,4.028
	c-0.003,0.047-0.01,6.202-0.014,10.474c1.553,1.26,2.784,2.721,3.674,3.962c0.077,0.098,0.236,0.261,0.435,0.453
	c0.024-0.129,0.039-0.261,0.039-0.396v-13.002h1.972V301c0.16,0.128,0.31,0.245,0.428,0.331c1.407,0.106,2.63,0.274,3.707,0.475
	v-1.114h0.741c0.705-3.31,3.774-4.462,6.095-4.68v-10.172h1.926v2.442c0.948-1.35,2.398-2.319,4.078-2.633
	c-0.013-1.026-0.027-1.696-0.044-1.738C497.86,280.066,492.937,280.323,492.937,280.323z M504.885,288.279v-2.437h1.971v10.182
	c2.269,0.241,5.264,1.405,5.983,4.669h0.847v1.107c1.067-0.198,2.276-0.363,3.665-0.469c0.13-0.094,0.298-0.226,0.477-0.371v-15.119
	h1.926v13.002c0,0.134,0.015,0.265,0.039,0.392c0.201-0.194,0.362-0.359,0.441-0.461c0.883-1.231,2.109-2.686,3.656-3.943
	c-0.017-4.376-0.05-10.785-0.103-10.919c-0.553-3.847-5.476-3.59-5.476-3.59h-12.035c0,0-5.289-0.277-5.527,4.028
	c-0.001,0.013-0.002,0.503-0.003,1.29C502.452,285.941,503.925,286.914,504.885,288.279z M505.141,306.039v-2.692h1.926v1.027
	c0.047-0.036,0.097-0.077,0.142-0.111l0.073-0.056c0.535-0.414,1.714-1.156,3.851-1.8c-0.01-0.592-0.021-0.958-0.033-0.989
	c-0.553-3.847-5.476-3.59-5.476-3.59H493.59c0,0-5.289-0.277-5.527,4.028c-0.001,0.008-0.001,0.203-0.002,0.53
	c2.178,0.648,3.377,1.402,3.918,1.821l0.073,0.056c0.046,0.035,0.098,0.076,0.146,0.113v-1.029h1.972v2.738
	c2.107,2.043,4.501,5.14,5.463,9.266C500.62,311.181,503.032,308.075,505.141,306.039z M497.666,325.391c0,0,0.166-5.615,0.258-6.37
	c0.259-0.863,0.051-2.493-0.069-3.126c-1.38-6.155-6.46-9.791-7.015-10.221c-0.306-0.238-2.737-2.077-9.48-2.524
	c-0.371-0.031-3.346-2.599-3.836-3.283c-3.278-4.57-6.491-5.488-6.971-5.669c-0.64-0.309-3.09,0.071-1.913,1.705
	c0.074,0.013,3.748,5.173,3.987,5.586c0.422,0.728,2.211,2.434,2.63,2.893c0,0-2.349-1.391-2.913-2.001
	c-0.251-0.273-4.149-5.726-4.373-6.08c-1.111-1.755,0.158-2.805,1.365-2.938c-0.059-0.202-0.614-5.51-0.711-6.401
	c-0.277-2.559-2.663-5.059-2.945-4.762c-0.333,0.35-0.532,2.209-0.628,3.384c0,0-0.641,6.306-0.487,9.248
	c0.083,1.578,4.984,12.434,6.393,14.111c1.407,1.677,12.424,8.027,12.424,8.027c0.368,0.306,2.408,1.877,2.408,3.937v4.471
	L497.666,325.391z M530.613,295.904c1.177-1.634-1.274-2.014-1.914-1.705c-0.48,0.181-3.693,1.099-6.971,5.669
	c-0.49,0.684-3.465,3.252-3.836,3.283c-6.743,0.447-9.173,2.286-9.48,2.524c-0.555,0.43-5.635,4.066-7.015,10.221
	c-0.121,0.633-0.328,2.263-0.069,3.126c0.091,0.755,0.258,6.37,0.258,6.37l11.877-0.014v-4.471c0-2.06,2.04-3.63,2.408-3.937
	c0,0,11.016-6.35,12.424-8.027c1.408-1.677,6.31-12.533,6.392-14.111c0.155-2.942-0.486-9.248-0.486-9.248
	c-0.097-1.175-0.295-3.034-0.628-3.384c-0.282-0.298-2.668,2.203-2.945,4.762c-0.098,0.891-0.653,6.199-0.711,6.401
	c1.208,0.133,2.477,1.183,1.365,2.938c-0.225,0.355-4.122,5.807-4.373,6.08c-0.564,0.61-2.913,2.001-2.913,2.001
	c0.419-0.459,2.208-2.165,2.63-2.893C526.865,301.077,530.539,295.916,530.613,295.904z M83.893,295.22
	c-0.017-6.148,4.952-11.146,11.1-11.163c6.148-0.017,11.146,4.952,11.163,11.1c0.017,6.148-4.952,11.146-11.1,11.163
	C88.908,306.337,83.91,301.367,83.893,295.22z M90.081,291.654l0.004,1.241c0.003,1.096,0.285,4.025,3.858,4.015l1.545-0.004
	c0.982-0.003,1.207,0.425,1.209,1.143l0.002,0.578c0.002,0.862-0.675,1.063-1.522,1.066c-1.854,0.005-3.817-0.124-4.615-0.181
	l0.007,2.531c1.297,0.4,1.875,0.553,3.505,0.598l0.005,1.659l1.903-0.005l-0.005-1.634c1.983-0.006,3.999-0.784,3.989-4.177
	l-0.002-0.832c-0.005-1.604-0.629-4.024-3.589-4.016l-1.604,0.005c-1.056,0.003-1.416-0.34-1.418-1.202l-0.001-0.493
	c-0.003-1.101,0.565-1.197,1.721-1.186c0.987-0.003,3.129,0.081,4.336,0.182l-0.007-2.546c-0.993-0.301-2.059-0.522-3.465-0.588
	l-0.005-1.729l-1.903,0.005l0.005,1.714C91.84,287.872,90.083,288.799,90.081,291.654z M80.024,295.23
	c-0.023-8.284,6.674-15.02,14.958-15.043c8.285-0.023,15.019,6.674,15.043,14.958c0.023,8.285-6.674,15.019-14.958,15.043
	C86.782,310.212,80.047,303.515,80.024,295.23z M82.548,295.223c0.019,6.891,5.621,12.46,12.511,12.441
	c6.891-0.02,12.461-5.621,12.441-12.511c-0.019-6.89-5.621-12.461-12.512-12.441C88.099,282.731,82.529,288.333,82.548,295.223z
	 M83.164,269.193c0.737-0.169,7.292-1.657,11.859-1.657c4.568,0,11.123,1.487,11.856,1.657l3.018,0.705v3.095
	c0.004,0.236,0.153,6.284,6.642,7.899l2.822,0.702l0.133,2.906c0.028,0.663,0.206,6.659-2.397,14.179
	c-2.463,7.112-7.983,16.918-20.292,23.245l-1.783,0.916l-1.783-0.916c-12.308-6.328-17.829-16.134-20.291-23.245
	c-2.658-7.674-2.409-13.916-2.398-14.179l0.133-2.906l2.822-0.702c6.55-1.63,6.64-7.644,6.641-7.899v-3.095L83.164,269.193z
	 M84.228,273.137c-0.04,1.234-0.644,9.374-9.603,11.682c-0.023,0.909-0.047,6.09,2.181,12.523
	c2.213,6.392,7.17,15.199,18.217,20.909c11.047-5.709,16.004-14.517,18.218-20.909c2.218-6.407,2.203-11.602,2.18-12.523
	c-8.922-2.299-9.557-10.522-9.602-11.682c-0.992-0.224-6.892-1.52-10.796-1.52C91.124,271.618,85.234,272.91,84.228,273.137z
	 M69.277,293.993c-0.438-2.105-0.679-3.969-0.807-5.467h-3.42c-0.355,0-0.643,0.288-0.643,0.643v4.181
	c0,0.355,0.288,0.643,0.643,0.643H69.277z M58.029,296.137v4.181c0,0.355,0.287,0.644,0.643,0.644h12.622
	c-0.144-0.385-0.283-0.764-0.411-1.135c-0.523-1.509-0.938-2.961-1.27-4.332h-10.94C58.316,295.494,58.029,295.782,58.029,296.137z
	 M63.121,303.534v4.181c0,0.355,0.287,0.643,0.643,0.643h11.123c-1.137-1.872-2.062-3.716-2.815-5.467h-8.308
	C63.408,302.891,63.121,303.178,63.121,303.534z M62.156,315.647h18.309c-1.705-1.789-3.162-3.632-4.407-5.467H62.156
	c-0.355,0-0.644,0.288-0.644,0.644v4.181C61.513,315.359,61.801,315.647,62.156,315.647z M83.381,318.426
	c-0.324-0.281-0.642-0.565-0.951-0.85H63.764c-0.356,0-0.643,0.288-0.643,0.643v4.181c0,0.355,0.287,0.643,0.643,0.643h18.974
	c0.355,0,0.644-0.288,0.644-0.643V318.426z M103.035,149.317c0-6.544,8.502-20.667,26.481-20.667s26.479,13.472,26.479,20.667
	c-2.361-1.785-7.598-2.533-10.822,0.46c-3.281-1.899-9.096-1.187-10.132,1.018c-1.32-1.743-4.572-1.964-5.526-1.992
	c-0.955,0.028-4.207,0.248-5.527,1.992c-1.036-2.205-6.851-2.916-10.132-1.018C110.634,146.783,105.396,147.532,103.035,149.317z
	 M134.725,130.524c5.291,4.011,9.952,11.075,10.829,16.693c2.7-3.341,6.898-1.643,7.84-1.32
	C149.211,135.354,140.45,131.066,134.725,130.524z M125.49,147.722c1.49-0.565,3.132-0.691,3.996-0.716
	c0.925,0.025,2.644,0.158,4.169,0.762c0-8.743-2.247-12.907-4.138-17.027C127.43,135.007,125.49,138.507,125.49,147.722z
	 M105.676,145.896c0.942-0.323,5.14-2.021,7.84,1.32c0.877-5.617,5.538-12.682,10.829-16.693
	C118.62,131.066,109.859,135.354,105.676,145.896z M129.466,150.705c-0.988-0.004-1.736,0.723-1.74,1.691l-0.108,29.601
	c-0.01,2.689-0.02,5.47,2.573,7.395c1.083,0.804,3.153,1.165,4.773,1.171c1.62,0.006,3.203-1.114,4.165-2.481
	c1.755-2.494,1.284-7.282,1.286-7.691c0.003-0.967-0.74-1.7-1.729-1.703c-0.988-0.004-1.736,0.724-1.74,1.691
	c-0.002,0.432,0.073,3.029-0.011,3.838c-0.219,2.118-1.567,2.867-2.765,2.862c-0.009,0-0.018,0-0.027,0
	c-1.362-0.018-2.902-1.008-3.065-3.141c-0.178-2.302,0.115-30.884,0.117-31.528C131.199,151.441,130.455,150.709,129.466,150.705z
	 M457.25,169.496c1.642-1.097,3.35-2.075,5.208-2.133l-5.808-2.19c-0.676,1.178-1.555,2.232-2.621,3.114L457.25,169.496z
	 M473.952,170.913l3.542-9.485l-9.994-3.754l-3.674,9.826c1.896,0.454,3.135,2.04,4.792,2.934
	C470.615,171.512,472.322,171.5,473.952,170.913z M480.171,132.798l-30.219,13.49c2.654,0.746,4.69,2.29,6.094,4.273l1.606-0.722
	l-0.781,2.083c1.351,2.572,1.814,5.63,1.384,8.538l4.904-13.079l16.731-7.456l7.682,16.627l-4.18,11.141
	c0.856,1.177,2.128,2.148,3.537,2.784l3.17-8.45l2.177,5.075l5.853-2.584l-13.76-30.145
	C483.814,132.905,481.904,132.029,480.171,132.798z M435.109,156.147c-1.278,4.307-0.373,9.065,2.431,12.575
	c2.279,2.854,5.77,4.421,8.844,6.289c2.94,1.786,5.817,3.383,9.418,2.636c2.529-0.525,4.845-2.111,7.057-3.52
	c2.774,1.754,5.693,3.739,9.035,3.739c3.355,0,6.278-1.993,9.06-3.752c4.559,2.748,8.555,5.017,14.083,2.467
	c2.788-1.285,0.364-5.403-2.41-4.123c-3.814,1.759-7.358-1.331-10.484-3.202c-0.725-0.434-1.686-0.434-2.41,0
	c-2.186,1.309-5.154,3.835-7.839,3.835c-2.685-0.001-5.646-2.525-7.833-3.835c-0.725-0.434-1.686-0.434-2.41,0
	c-2.782,1.666-5.81,4.289-9.183,3.431c-2.649-0.674-5.1-2.635-7.405-4.065c-4.655-2.889-8.74-9.561-3.402-14.372
	c2.735-2.465,7.629-2.492,9.559,0.971c1.97,3.534-0.806,7.273-4.615,5.972c-2.914-0.996-4.166,3.615-1.269,4.605
	c8.57,2.928,14.265-7.072,9.382-13.979C449.32,144.184,437.53,147.986,435.109,156.147z M492.627,181.292
	c-3.814,1.759-7.358-1.331-10.484-3.202c-0.725-0.434-1.686-0.434-2.41,0c-2.186,1.309-5.154,3.835-7.839,3.835
	c-2.685-0.001-5.646-2.525-7.833-3.835c-0.725-0.434-1.686-0.434-2.41,0c-2.782,1.666-5.81,4.289-9.183,3.431
	c-2.649-0.674-3.037-0.873-5.1-2.635c-2.117-1.808-5.938,2.251-0.984,4.96c3.018,1.65,5.817,3.383,9.418,2.636
	c2.529-0.525,4.845-2.111,7.057-3.52c2.774,1.754,5.693,3.738,9.035,3.739c3.355,0,6.278-1.993,9.06-3.752
	c4.559,2.748,8.555,5.017,14.083,2.467C497.825,184.129,495.401,180.012,492.627,181.292z"></path>
<path id="color_x5F_1_49_" fill="#70C9DE" d="M146.221,295.289c0-19.515-10.016-36.682-25.18-46.667
	c3.421-12.31,8.096-24.102,13.881-35.23c29.527-1.476,53.014-25.883,53.014-55.777c0-2.167-0.136-4.3-0.376-6.402
	c1.947-1.468,3.928-2.892,5.935-4.282c1.225,4.644,1.897,9.516,1.897,14.547c0,30.491-23.966,55.38-54.089,56.863
	c3.709,50.295,16.672,118.687,31.948,155.595c17.723,42.834,65.958,82.042,97.26,104.955
	c-73.319-10.926-132.593-65.436-150.538-136.247C135.734,332.769,146.221,315.259,146.221,295.289z M359.384,77.861
	c0.214-0.784-0.247-1.592-1.031-1.807c-1.619-0.443-3.254-0.87-4.894-1.28c0.007-0.362,0.027-0.72,0.027-1.083
	c0-16.708-7.346-31.691-18.974-41.926c57.052,7.874,108.444,33.727,148.229,71.664c-4.337-1.08-8.871-1.662-13.542-1.662
	c-29.704,0-53.981,23.192-55.736,52.455c-2.723-2.204-5.508-4.335-8.355-6.383c0.079-0.32,0.139-0.647,0.223-0.965
	c-0.686-0.117-1.383-0.233-2.078-0.349c-20.636-14.466-44.354-24.815-69.959-29.851c11.353-9.428,18.896-23.271,20.027-38.894
	c1.425,0.36,2.848,0.728,4.256,1.113c0.13,0.035,0.26,0.053,0.389,0.053C358.612,78.945,359.205,78.515,359.384,77.861z
	 M421.272,107.533c2.788,1.818,5.572,3.72,8.272,5.656c0.259,0.186,0.56,0.275,0.856,0.275c0.458,0,0.91-0.213,1.197-0.614
	c0.473-0.661,0.322-1.58-0.339-2.053c-2.735-1.961-5.555-3.889-8.38-5.729c-0.678-0.444-1.592-0.251-2.035,0.429
	C420.399,106.178,420.591,107.09,421.272,107.533z M404.027,97.349c2.932,1.561,5.87,3.209,8.734,4.901
	c0.235,0.139,0.492,0.204,0.746,0.204c0.504,0,0.994-0.258,1.269-0.723c0.414-0.699,0.181-1.601-0.519-2.015
	c-2.901-1.714-5.877-3.383-8.847-4.965c-0.716-0.381-1.609-0.109-1.99,0.607C403.039,96.076,403.31,96.967,404.027,97.349z
	 M385.962,88.735c3.055,1.294,6.125,2.676,9.127,4.107c0.204,0.097,0.42,0.144,0.632,0.144c0.549,0,1.077-0.31,1.329-0.839
	c0.35-0.733,0.038-1.611-0.695-1.961c-3.04-1.45-6.15-2.849-9.245-4.16c-0.749-0.32-1.613,0.032-1.928,0.781
	C384.865,87.555,385.215,88.418,385.962,88.735z M367.19,81.752c3.175,1.023,6.363,2.13,9.475,3.288
	c0.169,0.062,0.342,0.092,0.513,0.092c0.597,0,1.158-0.366,1.379-0.959c0.283-0.761-0.105-1.609-0.866-1.892
	c-3.154-1.173-6.383-2.293-9.6-3.329c-0.777-0.252-1.604,0.176-1.851,0.949C365.991,80.675,366.417,81.503,367.19,81.752z
	 M297.638,129.54c-13.001,0-24.954-4.454-34.444-11.904c-24.988,4.772-48.192,14.626-68.488,28.455
	c34.484-5.654,78.307-10.446,102.967-10.446c24.634,0,68.404,4.784,102.876,10.431c-20.29-13.821-43.487-23.67-68.466-28.44
	C322.591,125.085,310.639,129.54,297.638,129.54z M410.02,481.437c-40.834,2.708-55.549,13.842-57.408,15.283
	c-2.069,1.601-14.514,10.568-25.729,25.908c-0.396,0.209-0.665,0.586-0.747,1.029c-6.722,9.416-12.905,21.136-16.004,34.961
	c-0.306,1.598-0.699,4.249-0.943,7.172c-3.832,0.163-7.68,0.265-11.551,0.265c-2.68,0-5.347-0.051-8.008-0.129
	c-0.243-2.976-0.645-5.685-0.954-7.307c-8.356-37.276-39.122-59.296-42.484-61.898c-1.855-1.441-16.574-12.575-57.408-15.283
	c-2.247-0.186-20.261-15.741-23.229-19.883c-19.853-27.675-39.31-33.234-42.217-34.329c-3.874-1.869-18.715,0.431-11.586,10.328
	c0.451,0.077,22.7,31.329,24.147,33.828c2.555,4.411,13.391,14.738,15.927,17.52c0,0-14.227-8.423-17.639-12.116
	c-1.52-1.656-25.123-34.675-26.484-36.822c-6.731-10.63,0.956-16.989,8.267-17.792c-0.356-1.224-3.717-33.37-4.304-38.767
	c-1.679-15.495-16.13-30.638-17.835-28.836c-2.018,2.121-3.223,13.374-3.803,20.493c0,0-3.883,38.186-2.951,56.005
	c0.329,6.27,13.224,36.735,24.462,59.811c-50.714-48.858-82.318-117.423-82.318-193.238c0-57.345,18.086-110.54,48.84-154.202
	c-1.185,4.529-1.821,9.279-1.821,14.18c0,30.844,25.004,55.848,55.848,55.848c0.499,0,0.993-0.025,1.489-0.038
	c-5.63,10.924-10.197,22.481-13.572,34.532c-8.59-5.389-18.743-8.516-29.632-8.516c-4.772,0-9.403,0.602-13.825,1.728
	c-0.042-0.015-0.074-0.045-0.118-0.056c-0.575-0.144-1.14,0.077-1.487,0.505c-23.336,6.697-40.419,28.183-40.419,53.672
	c0,24.993,16.42,46.148,39.059,53.276c0.326,1.44,0.66,2.879,1.011,4.305c0.166,0.671,0.766,1.119,1.428,1.119
	c0.117,0,0.235-0.014,0.354-0.043c0.789-0.195,1.27-0.992,1.076-1.782c-0.22-0.892-0.423-1.794-0.633-2.693
	c4.34,1.082,8.878,1.665,13.554,1.665c10.434,0,20.194-2.869,28.549-7.85c18.348,71.793,78.931,126.857,153.601,137.069
	c12.404,9.015,21.849,15.301,25.149,18c3.298-2.701,12.749-8.991,25.159-18.012c73.69-10.111,133.638-63.911,152.797-134.35
	c7.12,3.292,15.044,5.141,23.404,5.141c30.844,0,55.848-25.004,55.848-55.849c0-23.225-14.18-43.134-34.353-51.555
	c0.184-0.318,0.255-0.702,0.161-1.087c-0.803-3.268-1.693-6.569-2.643-9.811c-0.229-0.78-1.049-1.224-1.826-0.998
	c-0.78,0.229-1.226,1.046-0.998,1.826c0.87,2.963,1.679,5.974,2.425,8.966c-5.823-2.059-12.085-3.189-18.613-3.189
	c-8.823,0-17.164,2.053-24.582,5.697c-3.338-11.223-7.713-22.003-13.022-32.225c2.541,0.354,5.133,0.55,7.772,0.55
	c12.805,0,24.595-4.32,34.016-11.567c0.545,1.167,1.089,2.336,1.61,3.505c0.243,0.547,0.781,0.872,1.344,0.872
	c0.2,0,0.404-0.042,0.599-0.128c0.742-0.331,1.075-1.201,0.744-1.943c-0.628-1.409-1.28-2.82-1.941-4.226
	c11.918-10.242,19.477-25.415,19.477-42.362c0-0.84-0.027-1.674-0.063-2.505c26.003,41.328,41.07,90.198,41.07,142.528
	c0,72.38-28.808,138.149-75.546,186.474c10.336-21.893,20.922-47.374,21.219-53.047c0.936-17.819-2.946-56.005-2.946-56.005
	c-0.584-7.119-1.786-18.372-3.804-20.493c-1.706-1.802-16.159,13.341-17.835,28.836c-0.591,5.397-3.953,37.542-4.308,38.767
	c7.314,0.803,15.001,7.162,8.267,17.792c-1.361,2.147-24.96,35.166-26.484,36.822c-3.412,3.693-17.639,12.116-17.639,12.116
	c2.536-2.781,13.371-13.109,15.927-17.52c1.45-2.499,23.699-33.752,24.151-33.828c7.128-9.897-7.713-12.197-11.59-10.328
	c-2.907,1.095-22.362,6.654-42.215,34.329C430.285,465.696,412.267,481.251,410.02,481.437z M514.967,223.153
	c-1.094-3.191-2.276-6.407-3.517-9.561c-0.297-0.754-1.149-1.126-1.908-0.83c-0.756,0.297-1.128,1.151-0.83,1.908
	c1.224,3.112,2.392,6.287,3.471,9.436c0.209,0.611,0.78,0.995,1.392,0.995c0.158,0,0.319-0.026,0.477-0.08
	C514.821,224.758,515.23,223.922,514.967,223.153z M516.01,364.125c0.14,0.042,0.281,0.061,0.42,0.061
	c0.635,0,1.22-0.414,1.41-1.053c0.956-3.221,1.857-6.519,2.675-9.803c0.197-0.789-0.282-1.587-1.071-1.783
	c-0.793-0.199-1.587,0.283-1.783,1.071c-0.809,3.242-1.697,6.498-2.641,9.677C514.787,363.074,515.231,363.894,516.01,364.125z
	 M84.765,215.083c0.177,0.07,0.361,0.104,0.541,0.104c0.585,0,1.139-0.353,1.368-0.931c1.224-3.093,2.532-6.195,3.887-9.22
	c0.332-0.742,0.001-1.612-0.741-1.944c-0.742-0.334-1.612-0.001-1.944,0.742c-1.373,3.064-2.697,6.206-3.938,9.34
	C83.639,213.929,84.009,214.784,84.765,215.083z M78.307,234.208c0.14,0.042,0.28,0.061,0.418,0.061c0.635,0,1.22-0.414,1.41-1.054
	c0.944-3.194,1.973-6.408,3.058-9.552c0.264-0.769-0.144-1.606-0.911-1.871c-0.769-0.267-1.606,0.144-1.871,0.912
	c-1.098,3.186-2.14,6.441-3.097,9.676C77.083,233.16,77.527,233.979,78.307,234.208z M83.12,371.403
	c-1.081-3.144-2.107-6.359-3.049-9.556c-0.23-0.78-1.048-1.225-1.827-0.995c-0.779,0.23-1.225,1.048-0.995,1.827
	c0.955,3.239,1.994,6.496,3.089,9.681c0.21,0.61,0.781,0.994,1.391,0.994c0.159,0,0.32-0.026,0.478-0.081
	C82.976,373.008,83.385,372.171,83.12,371.403z M298.833,525.869c0.001-0.813-0.657-1.472-1.469-1.473
	c-3.328-0.003-6.702-0.08-10.03-0.228c-0.818-0.056-1.498,0.593-1.535,1.404c-0.037,0.812,0.592,1.499,1.404,1.535
	c3.37,0.151,6.787,0.228,10.158,0.232c0,0,0,0,0.001,0C298.174,527.339,298.832,526.681,298.833,525.869z M318.994,524.884
	c-0.069-0.809-0.769-1.406-1.592-1.339c-3.302,0.286-6.67,0.502-10.009,0.644c-0.812,0.035-1.443,0.721-1.408,1.532
	c0.034,0.791,0.686,1.409,1.469,1.409c0.021,0,0.042,0,0.063-0.001c3.383-0.144,6.794-0.364,10.139-0.654
	C318.465,526.406,319.064,525.693,318.994,524.884z M241.789,73.691c0,17.287,7.857,32.737,20.192,42.982
	c-27.54,5.417-52.906,16.972-74.593,33.193c-2.079-14.972-10.085-28.043-21.582-36.766c0.03-0.022,0.06-0.044,0.09-0.066
	c0.661-0.473,0.813-1.392,0.342-2.053c-0.473-0.659-1.39-0.813-2.053-0.342c-0.298,0.213-0.593,0.437-0.891,0.652
	c-8.91-6.014-19.648-9.526-31.206-9.526c-8.152,0-15.888,1.761-22.87,4.9c40.228-39.696,92.889-66.806,151.545-74.902
	C249.135,42,241.789,56.984,241.789,73.691z M183.251,100.078c-0.412-0.701-1.316-0.934-2.014-0.521
	c-2.916,1.716-5.826,3.518-8.65,5.354c-0.681,0.443-0.874,1.354-0.431,2.036c0.282,0.433,0.754,0.669,1.235,0.669
	c0.275,0,0.553-0.077,0.801-0.238c2.787-1.812,5.66-3.59,8.538-5.286C183.43,101.68,183.664,100.778,183.251,100.078z
	 M201.172,90.718c-0.348-0.733-1.225-1.043-1.96-0.698c-3.054,1.45-6.113,2.987-9.096,4.569c-0.717,0.381-0.99,1.271-0.61,1.989
	c0.264,0.498,0.773,0.782,1.301,0.782c0.232,0,0.468-0.056,0.688-0.173c2.944-1.561,5.964-3.079,8.977-4.51
	C201.208,92.331,201.52,91.453,201.172,90.718z M219.867,82.987c-0.282-0.762-1.126-1.153-1.89-0.87
	c-3.168,1.171-6.355,2.431-9.471,3.743c-0.749,0.316-1.1,1.179-0.785,1.928c0.237,0.562,0.783,0.9,1.357,0.9
	c0.19,0,0.384-0.037,0.571-0.116c3.076-1.297,6.221-2.54,9.348-3.696C219.759,84.595,220.148,83.749,219.867,82.987z
	 M239.158,76.957c-0.212-0.783-1.019-1.248-1.805-1.035c-3.261,0.884-6.54,1.852-9.745,2.877c-0.774,0.248-1.201,1.076-0.954,1.85
	c0.2,0.625,0.778,1.024,1.402,1.024c0.149,0,0.299-0.023,0.448-0.07c3.165-1.012,6.401-1.968,9.619-2.84
	C238.908,78.55,239.371,77.741,239.158,76.957z M309.06,567.563c-3.795,0.157-7.601,0.253-11.423,0.253
	c-2.635,0-5.262-0.049-7.885-0.124c0.2,3.561,0.116,7.276-0.658,9.857c-0.241,1.999-0.569,9.618-0.862,17.564
	c3.125,0.097,6.258,0.163,9.406,0.163c4.335,0,8.643-0.113,12.933-0.297c-0.292-7.897-0.618-15.443-0.857-17.43
	C308.931,574.937,308.852,571.163,309.06,567.563z M413.351,157.615c0-0.65,0.027-1.293,0.049-1.938
	c-2.793-2.281-5.654-4.48-8.58-6.596c-0.891,3.994-1.392,8.137-1.392,12.396c0,29.307,22.152,53.437,50.625,56.581
	c-1.264,17.29-3.628,36.737-6.806,56.317c5.013-12.401,14.347-22.585,26.14-28.694c-3.407-11.506-7.915-22.543-13.403-32.989
	C433.527,208.298,413.351,185.319,413.351,157.615z M443.225,296.94c-5.741,29.559-13.12,57.619-21.14,76.995
	c-17.717,42.827-65.941,82.029-97.241,104.943c72.295-10.806,130.914-63.992,149.704-133.386
	C456.444,336.646,443.847,318.297,443.225,296.94z M297.638,0C133.257,0,0,133.257,0,297.638
	c0,135.652,90.755,250.097,214.855,285.96c-2.71-9.771-11.93-16.893-13.828-18.471c0,0-66.714-38.455-75.236-48.61
	c-2.53-3.012-6.92-10.913-11.857-20.787c-2.479-2.303-4.935-4.642-7.341-7.048C55.563,437.653,27.46,369.806,27.46,297.638
	c0-58.443,18.436-114.05,52.549-160.19c4.566-11.782,13.007-21.625,23.768-27.968c0.936-0.964,1.865-1.934,2.817-2.886
	c42.863-42.862,97.592-69.541,156.778-76.986c9.462-7.365,21.347-11.764,34.266-11.764c12.919,0,24.804,4.399,34.266,11.764
	c58.227,7.324,112.128,33.28,154.672,74.931c20.315,6.647,35.489,24.621,38.068,46.463c28.092,43.298,43.171,93.805,43.171,146.637
	c0,72.168-28.103,140.015-79.133,191.044c-0.22,0.22-0.447,0.432-0.668,0.652c-6.171,12.769-11.942,23.544-14.997,27.182
	c-8.526,10.155-75.237,48.61-75.237,48.61c-1.822,1.515-10.395,8.141-13.475,17.315c122.104-37.11,210.97-150.572,210.97-284.804
	C595.276,133.257,462.019,0,297.638,0z"></path>
</svg>