<?xml version="1.0" standalone="no"?>
<svg version="1.1" id="Layer_1" xmlns="http://www.w3.org/2000/svg" xmlns:xlink="http://www.w3.org/1999/xlink" x="0px" y="0px" width="595.279px" height="595.281px" viewBox="0 0 595.279 595.281" enable-background="new 0 0 595.279 595.281" xml:space="preserve">
<path id="color_x5F_2" fill="#1d5ca2" d="M113.628,181.672c-1.327,1.832-2.622,3.688-3.891,5.561l1.45-2.781L113.628,181.672z
	 M176.521,197.786c0,0,0.073-0.152,0.213-0.438c16.766-45.545,48.744-94.633,97.412-109.693c0.26-0.08,0.519-0.15,0.776-0.229
	c-0.949,0.123-1.896,0.254-2.845,0.391l-20.77,3.982c-28.089,6.77-54.949,18.887-78.817,35.35
	c-6.731,5.57-18.949,15.354-27.572,22.229c-15.289,14.348-28.63,30.754-39.363,48.83c18.511,0,37.021,0,55.531,0L176.521,197.786z
	 M395.28,146.278c0.194,0.281,0.391,0.566,0.573,0.84c1.404,2.107,2.975,5.061,4.606,8.492c5.025,9.768,9.137,20.064,12.406,30.645
	c2.257,6.186,3.86,10.859,4.235,11.953c24.185,0,48.368,0,72.554,0l-1.384-3.598c-4.034-9.207-8.896-17.807-14.449-25.82
	l-0.942-1.348c-29.771-42.02-78.892-67.551-129.622-77.811c-8.202-1.658-16.459-2.781-24.727-3.414
	c11.656,2.711,22.902,7.703,33.396,14.451C370.183,112.405,384.461,128.208,395.28,146.278z M360.521,91.118l-3.271-0.475
	c1.981,0.494,3.958,1.012,5.93,1.555C361.489,91.51,360.521,91.118,360.521,91.118z M490.364,200.045
	c-0.037,0.004-0.074,0.01-0.11,0.01c-4.745,0-9.491,0-14.236,0l14.502,0.396L490.364,200.045z M411.043,487.573
	c-2.82-0.92-5.587-0.625-8.111,0.439c0.054,2.998,0.213,5.967-0.892,8.701c-0.305,1.875-0.714,3.814-1.348,5.633
	c4.489,4.594,11.34,6.615,15.069-2.334C418.427,493.62,418.078,489.87,411.043,487.573z M436.255,503.493
	c1.277,0.791,2.449,1.408,3.544,1.846c0.386-1.717,0.813-3.424,1.254-5.129c0.142-0.854,0.305-1.701,0.479-2.547
	c0.491-4.041,0.724-8.08,0.672-12.113C434.596,487.307,425.149,496.618,436.255,503.493z M435.27,450.598
	c-1.076-4.16-1.88-8.369-1.939-12.697c-0.004-0.289,0.239-0.545,0.583-0.732c-4.752,0.617-9.563,0.541-14.389,0.305
	c0.089,3.25,0.835,11.469,5.997,14.646C430.368,455.1,433.825,452.245,435.27,450.598z M428.77,436.436l-9.248-0.318
	c0,0-0.002,0.045-0.005,0.119C422.607,436.415,425.694,436.528,428.77,436.436z M420.541,415.588
	c0.625-1.016,1.011-2.168,1.276-3.326c0.813-3.553,1.097-7.172,1.2-10.801c-7.146-2.041-25.625,3.965-24.007,13.488
	c4.035-0.152,8.074-0.236,12.107-0.107C412.026,414.872,420.403,415.817,420.541,415.588z M411.794,416.608
	c-2.241-0.082-4.483-0.119-6.726-0.113C407.231,416.674,409.52,416.684,411.794,416.608z M437.085,340.366
	c1.841-3.438,0.793-6.391-1.553-8.396c-0.387,0.121-0.855,0.189-1.26,0.217c-0.94,0.41-1.932,1.148-2.669,1.533
	c-1.829,0.951-3.705,1.779-5.643,2.488c-3.887,1.42-7.642,1.891-11.184,1.521C417.205,344.473,431.545,350.709,437.085,340.366z
	 M416.125,382.198c7.747-14.635-16.104-25.08-24.604-10.08l0.005,0.037C377.708,384.676,404.43,404.292,416.125,382.198z
	 M372.271,332.309c-6.536,6.623-14.771,11.16-23.866,11.406c-0.128,0.041-0.218,0.07-0.218,0.07l-0.217-0.063
	c-0.731,0.008-1.469-0.008-2.212-0.055c-0.096,0.836-0.162,1.67-0.208,2.504c5.915,6.059,18.139,7.629,25.074-5.477
	C372.342,337.456,372.751,334.633,372.271,332.309z M358.638,340.59c-1.67,0.482-3.437,1.014-5.041,1.506
	C355.359,341.766,357.038,341.26,358.638,340.59z M433.079,374.641c5.479-11.066-6.956-15.887-10.189-9.064
	c0.082,0.627,0.157,1.254,0.229,1.883l1.471-0.475c-0.593,0.984-0.982,1.969-1.216,2.922c0.165,1.762,0.298,3.529,0.407,5.305
	C425.515,379.081,430.236,380.383,433.079,374.641z M449.005,345.555c-1.563-0.168-3.392,0.604-5.172,2.779
	c-7.728,9.438,2.951,16.865,7.726,11.34c-0.042-0.688-0.09-1.377-0.148-2.061l-1.021,0.088c0.345-0.357,0.645-0.723,0.918-1.092
	C450.924,352.838,450.224,349.137,449.005,345.555z M371.341,366.491l-0.053,0.006c0.014,0.008,0.026,0.016,0.04,0.023
	C371.332,366.508,371.337,366.5,371.341,366.491z M365.183,354.985c-1.522,2.059-3.14,4.066-3.638,6.627
	c-0.035,0.18-0.188,0.344-0.402,0.48c3.025,0.834,5.95,1.996,8.67,3.514C374.145,359.782,370.156,352.678,365.183,354.985z
	 M449.89,393.702c0.876-0.906,1.52-1.865,1.968-2.83c-0.229-2.457-0.328-4.943-0.355-7.451c-1.703-2.391-5.012-2.941-8.168,0.914
	c-8.437,10.307,5.064,18.205,8.867,9.469c-0.014-0.098-0.028-0.197-0.042-0.297L449.89,393.702z M404.715,452.151
	c-1.529-8.594-6.521-16.188-15.354-18.377c-0.089-0.021-0.143-0.055-0.182-0.088c-9.269,8.451-21.766,12.99-34.201,14.297
	c-7.646,0.801-14.872,0.477-22.147-2.242c-3.422-1.277-6.724-3.043-9.775-5.047c-0.756-0.496-1.534-1.166-2.336-1.742
	c-1.525,3.402-2.436,7.004-3.174,10.668c-0.019,0.094-0.082,0.184-0.177,0.266c0.053,0.48,0.086,0.963,0.075,1.459
	c-0.037,1.732-0.521,3.152-1.309,4.299c0.084,0.105,0.129,0.238,0.11,0.41c-0.483,4.373-1.078,10.17,2.809,13.199
	c1.875,1.297,4.438,1.605,6.654,1.736c1.364,0.082,2.747,0.143,4.11,0.012c0.47-0.045,1.961-0.471,1.643-0.094
	c0.211-0.25,0.673-0.432,1.167-0.529c-1.094-5.318-1.347-10.705,0.38-16.262c0.308-0.99,3.221-1.395,2.898-0.357
	c-3.771,12.145,1.922,23.521,5.254,35.154c0.343-0.121,0.684-0.178,0.938-0.125c11.111,2.303,26.774,4.887,37.31-0.447
	c0.107-0.055,0.219-0.094,0.328-0.125c0.15-3.459-0.261-7.195,0.321-10.539c-2.046-1.145-3.276-2.766-3.057-4.84
	c0.037-0.352,0.309-0.637,0.668-0.834c-6.152-3.553-9.851-10.07-7.332-19.105c0.363-1.303,3.337-1.621,2.94-0.201
	c-4.236,15.195,10.433,23.098,23.683,19.293c0.6-0.172,1.055-0.053,1.334,0.197C404.516,468.434,405.902,458.817,404.715,452.151z
	 M351.527,447.206c2.055-0.107,4.109-0.313,6.153-0.598l-6.337,0.602C351.405,447.206,351.465,447.209,351.527,447.206z
	 M336.778,445.098c2.298,0.781,4.633,1.369,7.021,1.729L336.778,445.098z M235.874,356.633c1.493-0.74,2.834-1.318,3.442-1.609
	c3.509-1.682,8.741-4.324,13.011-3.563c-0.293-4.477-1.875-9.1-3.483-13.152c-1.259-3.174-2.715-7.023-5.02-9.896
	c0.09,0.986,0.228,1.979,0.379,2.963c0.04,0.258-0.081,0.488-0.286,0.686C243.734,340.319,240.591,349.354,235.874,356.633z
	 M279.445,397.231c-0.512,3.756-0.905,7.523-1.294,11.293c-0.038,0.375-0.063,0.779-0.084,1.193
	c3.524,0.016,7.034,0.07,10.556-0.072c-0.092-4.27-0.284-8.533-0.535-12.793C285.051,397.821,282.124,397.895,279.445,397.231z
	 M210.613,329.854c0.091-0.527,0.189-1.086,0.291-1.67c-0.844,1.131-1.977,2.666-3.11,4.25c-2.572,5.037-4.132,11.293-4.211,16.064
	c5.084,0.256,10.065,2.748,14.432,5.129c1.407,0.77,2.8,1.564,4.181,2.375c-1.438-1.879-2.776-3.813-4.021-5.668
	c-3.916-5.842-8.178-12.734-7.949-20.027C210.229,330.131,210.383,329.981,210.613,329.854z M270.03,372.729
	c0.294-0.275,0.795-0.559,1.282-0.65c0.074-0.016,0.144-0.021,0.217-0.033c0.063-0.02,0.117-0.051,0.184-0.07
	c0.352-0.107,0.651-0.111,0.896-0.051c4.035-0.217,5.73,2.65,6.492,6.74c0.771,4.143,1.176,11.357,7.207,9.5
	c0.576-0.178,0.971-0.162,1.196-0.059c-0.397-5.404-0.848-10.811-1.271-16.221c-8.201-3.83-10.901-13.324-8.423-21.811
	c0.084-0.287,0.183-0.537,0.277-0.795c-1.598-8.117-17.719-9.035-25.411-9.17c1.482,4.195,2.732,8.646,2.613,13.063
	c-0.031,1.184-2.942,1.684-2.921,0.279c-0.243,0.023-0.461,0.008-0.617-0.063c-3.255-1.49-8.414,1.375-11.298,2.813
	c-0.729,0.363-5.024,2.305-6.979,3.805c-0.317,0.406-0.638,0.813-0.966,1.203c0,0.006-0.005,0.012-0.004,0.018
	c0.046,0.424-0.367,0.779-0.895,1c0.137,0.113,0.267,0.238,0.404,0.35c0.121,0.096-0.136,0.313-0.537,0.523
	c0,8.607,0,17.217,0,25.824c0,1.078-2.897,1.605-2.897,0.777c0-8.754,0-17.508,0-26.262c0-0.066,0.012-0.131,0.032-0.191
	c-0.191-0.105-0.29-0.262-0.221-0.48c-0.312-0.27-0.623-0.535-0.927-0.818c-2.198-0.652-4.603-2.771-5.948-3.576
	c-5.457-3.268-12.027-7.652-18.628-8.184c-0.854,0.359-2.199,0.463-2.211,0.121c-0.002-0.08,0.002-0.166,0-0.248
	c-0.359-0.129-0.282-0.428,0.001-0.73c0.026-2.324,0.385-4.943,1.03-7.607c-1.062-0.059-5.082,1.021-6.313,1.314
	c-4.339,1.023-8.651,2.258-12.815,3.855c-8.001,3.072-19.2,7.814-22.784,16.355c-5.476,13.051-6.593,28.244-7.24,42.275
	c-0.317,6.896,7.354,6.732,12.681,7.119c7.647,0.555,15.302,0.373,22.964,0.354c0.072,0,0.129,0.008,0.189,0.012
	c-2.543-8.447-4.801-16.941-4.942-25.77c-0.02-1.168,2.883-1.75,2.897-0.777c0.33,20.43,11.979,39.066,12.31,59.496
	c0.003,0.18-0.069,0.344-0.186,0.492c16.042,1.197,29.382,10.902,44.296,15.928c5.783,1.947,11.486,2.184,16.81,5.313
	c3.218,1.893,6.633,3.721,9.702,5.914c-1.782-4.854-8.212-6.77-12.586-10.066c-5.44,1.129-12.671-0.211-13.271-6.887
	c-0.196-2.186,0.637-4.371,2.493-5.621c1.352-0.908,2.896-1.139,4.434-0.971c-2.438-8.537-2.301-18.047,4.049-24.975
	c5.358-5.848,12.528-8.98,20.158-10.496c-0.076-0.182-0.075-0.406,0.045-0.684c0.843-1.947,0.593-5.031,0.811-7.113
	c0.366-3.521,0.751-7.041,1.256-10.547c-3.531-1.666-6.463-4.707-8.385-8.693C266.03,382.883,265.138,375.602,270.03,372.729z
	 M188.652,414.157l0.096,0.021c-0.009-0.029-0.018-0.059-0.026-0.088C188.699,414.114,188.675,414.135,188.652,414.157z
	 M237.682,480.797c-0.115,0.018-0.226,0.025-0.318,0.012c-15.012-1.959-30.256-1.504-45.324-2.84
	c-4.995-0.441-10.388-0.75-15.131-2.512c-1.104-0.41-2.063-1.016-2.915-1.75c-0.062,0.414-0.117,0.805-0.146,1.146
	c-0.305,3.641-0.639,7.277-0.948,10.918c-0.637,7.436-1.469,14.965-1.299,22.438c0.004,0.148-0.032,0.283-0.092,0.408h60.459
	c0.224-3.332,0.297-6.877,1.507-9.895c1.284-3.207,3.517-5.449,6.186-7.523l-0.31-2.518
	C238.602,486.084,238.035,483.442,237.682,480.797z M189.854,475.942c3.143,0.346,6.3,0.578,9.455,0.768L189.854,475.942z
	 M400.186,344.534c1.923-4.416,0.673-11.982-4.795-12.781c-0.218-0.031-0.429-0.074-0.66-0.084
	c-1.255,3.975-3.437,6.258-6.015,9.164c-0.229,0.258-0.459,0.514-0.694,0.785l-0.666,0.189l-2.773,0.793l-0.061,0.018
	C388.645,345.893,396.324,353.405,400.186,344.534z M425.231,459.708c-5.497-8.457-25.688,14.408-7.337,18.492
	c6.76,1.504,10.393,0.504,11.421-6.824c0.587-4.18-1.214-7.83-4.084-10.619V459.708z"></path>
<path id="color_x5F_1" d="M232.79,298.786c-0.652-0.965,2.159-1.916,2.693-1.125c0.073,0.174,0.169,0.326,0.264,0.479
	c1.442-6.535,0.955-13.516-0.187-20.043c-0.185-1.049,2.729-1.746,2.897-0.775c1.294,7.395,1.768,15.496-0.413,22.77
	c-0.234,0.787-1.639,1.143-2.338,0.961C234.14,300.647,233.756,300.213,232.79,298.786z M220.902,304.565
	c3.187,2.654,6.796,4.377,11.016,3.598c0.584-0.107,1.496-0.357,1.626-1.063c0.121-0.66-0.825-0.846-1.288-0.762
	c-3.351,0.619-6.165-0.873-8.68-2.969C222.701,302.641,219.986,303.801,220.902,304.565z M217.495,275.389c0,1.643,0,3.283,0,4.924
	c0,1.381,2.918,0.838,2.918-0.291c0-1.641,0-3.281,0-4.924C220.413,273.719,217.495,274.262,217.495,275.389z M247.038,275.389
	c0,1.643,0,3.283,0,4.924c0,1.381,2.918,0.838,2.918-0.291c0-1.641,0-3.281,0-4.924
	C249.956,273.719,247.038,274.262,247.038,275.389z M244.776,267.836c1.645-1.789,4.219-0.965,5.676,0.646
	c0.839,0.93,3.597-0.211,2.66-1.246c-2.811-3.105-7.861-3.307-10.74-0.176C241.146,268.395,243.944,268.743,244.776,267.836z
	 M217.695,267.424c1.645-1.787,4.219-0.963,5.676,0.646c0.84,0.928,3.598-0.211,2.66-1.246c-2.811-3.104-7.861-3.305-10.74-0.174
	C214.065,267.983,216.862,268.331,217.695,267.424z M190.824,279.86c-0.622-0.027-1.518,0.252-1.924,0.748
	c-0.445,0.541,0.382,0.676,0.741,0.689c2.261,0.1,2.216,4.303,2.425,5.824c0.111,0.811,3.027,0.17,2.897-0.777
	c-0.209-1.518-0.282-3.1-0.867-4.533C193.518,280.385,192.265,279.92,190.824,279.86z M267.475,287.76
	c-0.73-1.145-0.491-2.398,0.088-3.551c0.235-0.473,0.554-0.885,0.899-1.279c0.159-0.182,0.335-0.35,0.523-0.502
	c0.066-0.053,0.109-0.082,0.145-0.104c0.572-0.123,1.252-0.461,1.346-1.063c0.109-0.701-0.802-0.887-1.309-0.836
	c-3.603,0.371-6.31,5.508-4.358,8.559C265.449,289.989,268.236,288.95,267.475,287.76z M154.467,413.631
	c-0.012,0.01-0.023,0.02-0.036,0.027c-0.015,0.059-0.021,0.184-0.015,0.393C154.493,413.86,154.489,413.684,154.467,413.631z
	 M288.633,456.002c-2.865,2.596-7.438,1.721-10.722,0.527c-1.181-0.43-3.404,1.268-1.689,1.889
	c4.888,1.777,10.75,2.061,14.819-1.625C292.365,455.596,289.533,455.188,288.633,456.002z M282.311,453.555
	c1.729,0.111,4.05-0.221,4.994-1.893c0.809-1.426,0.062-3.107-0.883-4.26c-0.543-0.664-3.314,0.326-2.709,1.064
	c0.577,0.705,0.948,1.504,1.024,2.416c0.03,0.369-0.075,0.729-0.228,1.061c-0.037,0.082-0.101,0.152-0.168,0.219
	c-0.048,0.004-0.113,0.006-0.211,0c-0.702-0.045-1.479,0.113-2.049,0.549C281.646,453.045,281.708,453.518,282.311,453.555z
	 M276.363,445.26c-3.197-1.402-6.664,0.246-8.819,2.703c-1.212,1.383,1.561,1.855,2.428,0.865c1.235-1.408,2.866-2.42,4.723-1.605
	C275.915,447.76,278.056,446.004,276.363,445.26z M287.762,443.86c-0.248,0.133-0.994,0.635-0.34,0.813
	c0.624,0.168,1.479-0.059,2.029-0.354c1.686-0.906,3.445-0.717,4.871,0.584c0.597,0.545,3.229-0.551,2.725-1.01
	C294.528,441.592,290.5,442.385,287.762,443.86z M273.697,441.571c0.8,0.189,3.395-1.053,1.813-1.426
	c-4.125-0.977-7.886-0.084-11.28,2.395c-0.483,0.354-0.329,0.797,0.233,0.877c0.697,0.1,1.486-0.139,2.049-0.549
	C268.817,441.186,270.933,440.917,273.697,441.571z M286.518,437.971c0.632,0.25,1.478,0.002,2.043-0.307
	c1.854-1.012,4.151-1.58,5.926-0.113c0.724,0.598,3.385-0.521,2.705-1.082c-2.918-2.414-7.397-1.129-10.386,0.502
	C286.462,437.161,285.883,437.721,286.518,437.971z M333.137,408.028c-0.143,0.02-0.287,0.031-0.43,0.033
	c-0.501,0.006-1.063-0.104-1.366-0.541c-1.06-1.529,0.036-4.021,0.545-5.545c0.173-0.514-2.613-0.193-2.854,0.523
	c-0.624,1.865-2.167,5.877,0.711,6.604c0.991,0.25,2.134,0.088,3.121-0.092c0.54-0.098,2.219-0.344,2.406-0.984
	C335.384,407.641,334.023,407.708,333.137,408.028z M347.001,408.881c0.746-1.266-2.188-1.064-2.723-0.156
	c-0.677,1.146-2.036,1.211-3.205,0.879c-0.67-0.189-1.558,0.066-2.049,0.551c-0.462,0.451-0.294,0.984,0.311,1.154
	C341.947,412.051,345.53,411.375,347.001,408.881z M340.757,397.196c-0.231,0.07-1.451,0.381-1.334,0.818
	c0.114,0.424,1.334,0.113,1.564,0.041c0.811-0.252,1.69-0.182,2.53-0.17c0.688,0.01,1.461-0.188,2.05-0.549
	c0.463-0.285,0.391-0.6-0.164-0.609C343.839,396.706,342.266,396.725,340.757,397.196z M328.332,399.456
	c0.188-0.262,0.13-0.475-0.025-0.637c-0.005-0.043-0.012-0.086-0.016-0.129c-0.018-0.197-0.008-0.365,0.001-0.613
	c0.021-0.516,0.063-1.059,0.236-1.547c0.23-0.664-0.921-0.768-1.279-0.727c-0.651,0.07-1.4,0.383-1.631,1.043
	c-0.269,0.768-0.259,1.641-0.234,2.441c0.009,0.346,0.054,0.688,0.396,0.873C326.595,400.61,327.821,400.172,328.332,399.456z
	 M341.322,391.407c-0.315,0.295,0.159,0.004,0.42-0.047c0.46-0.09,0.923-0.119,1.389-0.145c1.056-0.051,2.122,0.084,3.075,0.553
	c0.681,0.334,3.353-0.729,2.354-1.219c-1.598-0.787-3.564-0.76-5.297-0.58c-1.546,0.162-3.408,0.457-4.591,1.561
	c-0.511,0.475,0.439,0.615,0.72,0.604C340.072,392.1,340.819,391.875,341.322,391.407z M327.457,392.223
	c0.686,0.08,1.365,0.328,1.951,0.688c0.532,0.324,1.35,0.104,1.884-0.1c0.147-0.057,1.341-0.629,0.833-0.938
	c-2.068-1.266-6.208-1.758-8.018,0.27c-0.448,0.502,0.386,0.619,0.719,0.605c0.554-0.025,1.266-0.199,1.733-0.57
	C326.861,392.167,327.158,392.19,327.457,392.223z M367.762,296.057c-4.974,0.877-3.339-5.672-2.927-8.482
	c0.047-0.318-2.77-0.098-2.897,0.777c-0.33,2.254-1.039,4.824-0.304,7.063c0.761,2.309,3.71,2.02,5.583,1.688
	C368.361,296.903,369.8,295.7,367.762,296.057z M375.063,298.389c-0.138,2.16-3.386,3.84-5.002,2.121
	c-0.739-0.787-3.5,0.297-2.682,1.166c2.782,2.959,10.322,0.576,10.59-3.619C378.05,296.792,375.129,297.342,375.063,298.389z
	 M377.564,284.331c0-1.643,0-3.281,0-4.924c0-1.373-2.916-0.826-2.916,0.293c0,1.643,0,3.281,0,4.924
	C374.648,285.999,377.564,285.452,377.564,284.331z M357.414,279.7c0,1.643,0,3.281,0,4.924c0,1.375,2.916,0.828,2.916-0.293
	c0-1.643,0-3.281,0-4.924C360.33,278.034,357.414,278.581,357.414,279.7z M360.155,270.397c-2.066,0.211-4.063,0.705-5.853,1.789
	c-0.279,0.168-0.973,0.686-0.314,0.904c0.606,0.201,1.506-0.01,2.036-0.33c1.166-0.705,2.304-0.939,3.649-1.078
	c0.496-0.051,1.477-0.328,1.678-0.869C361.564,270.249,360.38,270.374,360.155,270.397z M378.076,270.348
	c-1.637-0.113-3.273-0.225-4.911-0.336c-0.662-0.045-1.482,0.221-2.049,0.549c-0.498,0.287-0.368,0.518,0.147,0.553
	c1.638,0.111,3.273,0.225,4.911,0.336c0.661,0.047,1.482-0.221,2.049-0.549C378.723,270.612,378.593,270.383,378.076,270.348z
	 M490.572,200.135c-0.016-0.037-0.031-0.072-0.045-0.109c-0.057,0.012-0.109,0.016-0.162,0.021c-0.037,0.002-0.074,0.01-0.11,0.01
	c-4.745,0-9.491,0-14.235,0c-19.938,0-39.875,0-59.813,0c-0.688,0.658-2.434,0.908-2.634,0.078
	c-0.006-0.025-0.015-0.053-0.021-0.078c-39.218,0-78.436,0-117.652,0c-0.019,46.186-0.56,92.367-0.587,138.553
	c0.047-0.027,0.089-0.059,0.137-0.084c3.385-1.869,6.701-1.197,9.106,1.969c1.522,2.002,4.542,4.719,5.212,7.287
	c0.972,3.725,2.707,8.539,1.515,12.436c-1.208,3.945-3.951,7.168-6.39,10.422c-0.054,0.07-0.117,0.135-0.188,0.191
	c3.674,7.217,6.706,14.693,9.442,22.307c1.374-2.063,2.863-4.043,4.319-5.914c0.13-0.166,0.382-0.293,0.685-0.387
	c-0.074-0.691-0.17-1.379-0.297-2.059c-0.018-0.094,0.011-0.188,0.063-0.275c-0.456-11.68,11.17-20.281,21.905-22.92
	c-0.2-0.07-0.301-0.193-0.215-0.379c2.581-5.684,1.523-11.734,2.337-17.744c0.005-0.035,0.021-0.068,0.032-0.102
	c-1.428-0.23-2.869-0.566-4.326-1.023c-9.084-2.848-17.99-9.723-19.162-18.832c-0.311-1.299-0.346-2.605-0.019-3.896
	c0.206-1.809,0.707-3.682,1.573-5.615c1.655-3.697,3.937-6.984,6.427-10.164c1.887-2.406,4.229-4.818,5.243-7.766
	c2.462-7.146,2.234-14.938,2.676-22.393c0.786-13.338,3.586-25.676,14.252-32.961c0.134-0.162,0.213-0.256,0.213-0.256l0.298-0.094
	c1.604-1.047,3.379-1.982,5.345-2.795c0.71-0.293,1.703-0.25,1.825,0.023c12.013-6.678,29.077-7.563,42.138-4.229
	c16.646,4.246,23.126,20.146,23.57,36.182c0.194,7.045,1.063,13.783,4.664,19.992c2.345,2.615,4.701,5.068,6.131,6.535
	c1.537,1.184,3.116,2.314,4.535,3.545c3.613,3.135,7.246,7.148,7.36,12.227c0.156,6.982-3.969,13.064-8.28,18.289
	c4.832,0.252,9.613,4.455,11.702,8.391c9.67,18.209,2.302,39.842,6.783,59.021c0.243,1.041-2.661,1.791-2.897,0.777
	c-0.024-0.105-0.045-0.211-0.067-0.316c-0.058,0.012-0.111,0.025-0.168,0.037c0.03,0.033,0.051,0.072,0.057,0.117
	c1.42,11.398,2.756,32.615-10.987,37.225c-2.061,0.691-4.137,1.17-6.225,1.521c0.345,0.09,0.592,0.295,0.598,0.66
	c0.141,9.959,4.388,19.299,6.629,28.869c3.164,13.516,2.929,26.936-0.063,40.477c-0.229,1.037-3.159,1.49-2.904,0.34
	c0.706-3.195,1.249-6.391,1.639-9.584c0.49-4.041,0.724-8.078,0.672-12.111c-0.088-6.865-0.982-13.719-2.791-20.545
	c-1.273-4.807-2.895-9.572-4.146-14.406c-1.076-4.16-1.879-8.369-1.938-12.697c-0.004-0.291,0.239-0.545,0.583-0.732
	c-4.752,0.617-9.563,0.541-14.39,0.305c-6.478-0.314-12.98-0.9-19.403-0.49c5.203,4.666,8.015,11.924,7.863,19.121
	c-0.104,5.033-1.475,10.025-4.46,13.631c0.524-0.012,0.966,0.184,1.014,0.65c0.239,2.352-0.729,4.234-2.416,5.682
	c0.081,0.029,0.157,0.063,0.215,0.115c0.938,0.881,0.588,4.256,0.619,5.381c0.114,4.162,0.023,8.365-0.525,12.498
	c-0.113,0.854-0.24,1.746-0.389,2.652c-0.306,1.875-0.714,3.814-1.349,5.633c-1.178,3.377-3.129,6.326-6.646,7.615
	c-1.099,0.4-2.941,0.063-1-0.648c6.122-2.24,6.647-14.09,6.915-19.271c0.155-3.021,0.21-6.057,0.039-9.078
	c-0.032-0.57,0.098-2.473-0.187-3.385c-4.744,2.387-12.021,2.725-17.085,1.193c-0.521,4.621,0.084,9.545-0.653,14.178
	c-0.459,2.879-1.067,5.938-2.186,8.719c0.027,0.098-0.012,0.211-0.138,0.344c-1.191,2.832-2.938,5.35-5.642,7.049
	c-0.834,0.523-3.405,0.348-1.754-0.691c1.719-1.082,3.01-2.676,3.999-4.531c-5.71,2.426-12.473,2.865-18.494,2.805
	c-3.845-0.039-10.419,0.314-14.752-1.531c-0.101,0.934-0.232,1.867-0.432,2.811c-0.21,1.002-3.133,1.475-2.897,0.357
	c2.311-11-2.455-21.34-5.584-31.797c-3.123,1.453-7.23,1.859-10.482,1.67c-0.167-0.01-0.324-0.023-0.485-0.037
	c0.173,5.139,0.807,10.266,0.96,15.404c1.98,4.918,2.852,10.354,3.257,15.576c0.105,1.363-2.799,2.053-2.897,0.777
	c-0.356-4.592-1.021-9.686-2.645-14.293c-0.339-0.039-0.581-0.172-0.586-0.428c-0.008-0.396-0.024-0.795-0.038-1.191
	c-0.862-2.076-1.942-4.025-3.318-5.744c-5.638-7.037-15.578-8.297-24.138-8.469c-0.131,0.236-0.694,0.5-1.297,0.666
	c-4.705,6.098-13.385,5.164-19.642,1.223c-0.9,0.689-2.016,1.014-3.216,0.979c-2.137-0.063-4.672-0.85-6.853-2.063
	c0.979,1.424,2.189,2.748,3.236,3.945c1.729,1.977,3.875,2.979,6.172,4.141c2.729,1.385,3.976,5.521,0.74,7.26
	c-1.199,0.643-2.523,0.83-3.863,0.727c-1.613,2.695-3.964,4.072-6.724,3.43c-1.96,2.883-5.339,3.367-8.335,2.068
	c-0.021,0.016-0.033,0.031-0.056,0.049c-2.835,2.236-8.182,1.369-9.988-2.01c-1.248-2.332-2.351-4.785-3.286-7.311
	c-2.404,2.035-4.315,4.42-4.917,7.666c-0.623,3.359-0.729,6.803-1.128,10.193c-0.128,1.088-3.062,1.594-2.91,0.316
	c0.092-0.781,0.152-1.59,0.208-2.408c0.223-3.332,0.297-6.877,1.507-9.895c1.284-3.207,3.516-5.449,6.185-7.523
	c0.126-0.1,0.248-0.197,0.376-0.295c-0.243-0.736-0.47-1.479-0.685-2.223c-0.749-2.6-1.314-5.24-1.668-7.885
	c-0.116,0.018-0.227,0.025-0.319,0.012c-15.012-1.959-30.256-1.504-45.323-2.84c-4.995-0.441-10.389-0.75-15.132-2.512
	c-1.104-0.41-2.062-1.016-2.915-1.75c-0.061,0.414-0.116,0.805-0.146,1.146c-0.306,3.641-0.64,7.277-0.949,10.918
	c-0.636,7.436-1.468,14.965-1.298,22.438c0.003,0.148-0.033,0.283-0.092,0.408c-0.484,1.029-2.819,1.193-2.853-0.219
	c-0.171-7.473,0.655-15.004,1.297-22.438c0.314-3.641,0.652-7.277,0.949-10.918c0.099-1.211,0.676-3.348,0.273-4.527
	c0.017,0.004,0.032,0.008,0.05,0.014c-0.018-0.039-0.033-0.078-0.045-0.117c-1.008-1.514-1.872-3.152-2.73-4.684
	c-6.688-11.916-11.049-25.461-14.455-38.645c-0.297-1.146-4.526-14.301-0.769-14.549c-2.056-0.887-3.604-2.346-3.618-5.092
	c-0.039-7.414,1.102-15.205,1.984-22.561c0.91-7.586,2.042-16.936,6.4-23.461c5.997-8.975,16.906-13.881,26.813-17.193
	c4.496-1.504,9.066-2.766,13.727-3.648c0.989-0.188,2.38-0.584,3.659-0.652c1.543-5.324,4.176-10.561,7.552-13.596
	c0.229-0.207,0.892-0.381,1.505-0.465c0.361-3.041,0.284-6.258-1.761-8.295c-2.198-2.191-5.073-3.58-7.407-5.623
	c-2.433-2.131-5.648-4.281-7.166-7.236c-1.299-2.527-1.44-5.389-1.462-8.199c-2.641,1.904-6.134,3.314-8.686,1.088
	c-3.188-2.781-3.646-8.141-3.467-12.074c0.12-2.664,0.518-6.211,2.011-8.83c-2.562-10.35-2.979-23.711,0.97-33.678
	c2.694-6.803,7.731-9.219,13.239-7.199c-1.141-7.309,4.014-16.59,10.322-19.406c7.624-3.402,7.918,5.584,5.192,10.504
	c4.434-1.826,9.017-3.279,13.691-4.352l3.46-1.115c0,0,3.092-0.367,7.339-0.688c1.168-0.123,2.338-0.229,3.51-0.307
	c3.875-0.258,8.156-0.547,12.228-0.021c0.086,0.006,0.173,0.012,0.258,0.018c1.928,0.137,3.66,0.631,5.232,1.344
	c0.488,0.193,0.973,0.398,1.442,0.635c5.492,2.752,9.7,7.602,10.882,13.746c0.602,3.123,1.119,7.977-1.585,10.355
	c5.81,0.416,11.353,5.744,11.712,11.643c0.127,2.07-0.101,4.322-1.424,6.031c-1.199,1.551-3.312,2.748-4.183,4.475
	c-0.604,1.197-0.136,2.098,0.025,3.328c0.241,1.859,0.052,3.607-0.257,5.443c-0.027,0.17-0.219,0.326-0.486,0.459
	c1.313,2.664,1.656,6.039,1.697,8.717c0.062,3.998-0.441,9.17-3.671,11.988c-2.748,2.396-5.896,1.584-8.499-0.199
	c-0.033,2.51-0.26,5.135-1.554,7.199c-1.781,2.842-4.636,5.188-7.238,7.246c-2.626,2.076-5.64,3.496-8.312,5.475
	c-2.264,1.676-3.202,3.869-3.482,6.268c3.977,2.955,6.247,8.477,7.918,12.928c0.169,0.449,0.336,0.906,0.503,1.361
	c0.147-0.037,0.274-0.063,0.363-0.063c6.037,0.047,23.085,0.318,27.476,7.332c1.014-0.918,2.314-1.551,3.987-2.158
	c0.345-0.125,0.696-0.232,1.043-0.352c-0.024-0.043-0.042-0.09-0.042-0.146c0.008-47.381,0.54-94.762,0.547-142.143
	c0-1.059,2.898-1.576,2.898-0.777c-0.008,47.371-0.54,94.738-0.547,142.109c0.758-0.246,1.517-0.488,2.267-0.756
	c0.842-0.301,1.529-0.73,2.173-1.205c0.021-46.896,0.581-93.787,0.594-140.682c-38.235,0-76.473,0-114.707,0
	c-0.841,0.592-2.579,0.711-2.528,0c-23.8,0-47.601,0-71.399,0c-0.848,0.66-3.125,0.742-2.478-0.369
	c2.467-4.236,5.091-8.389,7.848-12.455c1.27-1.871,2.563-3.727,3.892-5.559c47.587-65.746,132.313-106.74,213.38-96.662
	c10.109,1.258,20.234,3.137,30.243,5.633c1.98,0.494,3.957,1.012,5.93,1.555c56.521,15.568,108.311,51.158,130.289,107.16
	C493.863,200.36,490.996,201.215,490.572,200.135z M372.942,423.625c-3.905,1.297-8.136,1.801-11.646,0.896
	c-5.58,4.104-14.227,7.189-20.634,4.463c-0.391-0.166-0.172-0.441,0.263-0.689c-0.297-0.652-0.636-1.229-1.008-1.746
	c-3.938,0.828-7.765,2.502-11.196,4.58c-2.181,1.322-4.889,2.863-6.516,5.018c-0.017,0.059-0.026,0.113-0.043,0.172
	c-0.057,0.189-0.212,0.359-0.423,0.502c-0.043,0.07-0.076,0.148-0.117,0.221c0.146,0.002,0.266,0.012,0.326,0.039
	c3,1.289,5.645,3.914,8.608,5.41c2.047,1.033,4.119,1.895,6.221,2.607c2.298,0.781,4.633,1.369,7.021,1.729
	c2.453,0.367,4.962,0.506,7.544,0.383c0.063-0.004,0.121,0,0.183-0.004c2.056-0.107,4.11-0.313,6.154-0.596
	c12.813-1.787,25.131-7.143,33.409-17.443c0.035-0.043,0.081-0.084,0.132-0.123c-0.09-0.039-0.174-0.082-0.243-0.143
	c-4.37-3.77-11.534-5.654-17.286-5.199C373.37,423.725,373.127,423.694,372.942,423.625z M404.715,452.151
	c-1.529-8.594-6.521-16.188-15.354-18.377c-0.089-0.021-0.143-0.055-0.182-0.088c-9.269,8.451-21.766,12.99-34.201,14.297
	c-7.646,0.801-14.872,0.477-22.147-2.242c-3.422-1.277-6.724-3.043-9.775-5.047c-0.756-0.496-1.534-1.166-2.336-1.742
	c-1.525,3.402-2.436,7.004-3.174,10.668c-0.019,0.094-0.082,0.184-0.177,0.266c0.053,0.48,0.086,0.963,0.075,1.459
	c-0.037,1.732-0.521,3.152-1.309,4.299c0.084,0.105,0.129,0.238,0.11,0.41c-0.483,4.373-1.078,10.17,2.809,13.199
	c1.875,1.297,4.438,1.605,6.654,1.736c1.364,0.082,2.747,0.143,4.11,0.012c0.47-0.045,1.961-0.471,1.643-0.094
	c0.211-0.25,0.673-0.432,1.167-0.529c-1.094-5.318-1.347-10.705,0.38-16.262c0.308-0.99,3.221-1.395,2.898-0.357
	c-3.771,12.145,1.922,23.521,5.254,35.154c0.343-0.121,0.684-0.178,0.938-0.125c11.111,2.303,26.774,4.887,37.31-0.447
	c0.107-0.055,0.219-0.094,0.328-0.125c0.15-3.459-0.261-7.195,0.321-10.539c-2.046-1.145-3.276-2.766-3.057-4.84
	c0.037-0.352,0.309-0.637,0.668-0.834c-6.152-3.553-9.851-10.07-7.332-19.105c0.363-1.303,3.337-1.621,2.94-0.201
	c-4.236,15.195,10.433,23.098,23.683,19.293c0.6-0.172,1.055-0.053,1.334,0.197C404.516,468.434,405.902,458.817,404.715,452.151z
	 M343.777,428.075c5.218,1.748,11.633-0.764,15.832-4.123c-1.558-0.67-2.911-1.682-3.937-3.121
	c-0.104-0.146-0.099-0.297-0.022-0.439c-2.89-4.1-2.825-9.885-2.636-14.787c0.229-5.898,1.548-13.408-0.43-19.402
	c-9.015,1.668-17.946,1.865-27.021,1.408l-0.711,0.178l-2.723,0.248c0.227,9.305-2.936,21.146,3.225,28.148
	c5.524,6.277,14.871,3.035,18.555,11.516C343.961,427.817,343.905,427.948,343.777,428.075z M367.732,423.219
	c0.757-0.047,1.511-0.139,2.248-0.268C369.148,423.063,368.395,423.153,367.732,423.219z M323.126,426.348
	c0.116,2.082,0.072,4.15-0.195,6.199c1.312-0.963,2.702-1.793,3.933-2.502c3.678-2.117,7.558-3.988,11.691-4.996
	c-0.307-0.27-0.625-0.52-0.957-0.744c-1.826,0.727-5.285,1.965-7.88,2.123C327.461,426.735,325.245,426.713,323.126,426.348z
	 M314.469,450.375c-0.442-2.879-2.626-7.51-6.297-6.65c-1.137,0.268-1.672-0.211-1.42-0.688l-0.298,0.02
	c1.229,5.074,2.25,10.443,0.713,14.924C311.838,458.305,315.251,455.458,314.469,450.375z M188.395,413.01
	c-2.543-8.449-4.802-16.941-4.943-25.771c-0.02-1.168,2.883-1.748,2.897-0.777c0.33,20.43,11.979,39.066,12.31,59.496
	c0.003,0.18-0.069,0.344-0.186,0.494c16.042,1.197,29.382,10.9,44.296,15.926c5.783,1.949,11.486,2.186,16.81,5.314
	c3.218,1.893,6.633,3.721,9.702,5.914c-1.782-4.854-8.212-6.77-12.585-10.068c-5.441,1.129-12.672-0.209-13.272-6.885
	c-0.196-2.186,0.637-4.373,2.493-5.621c1.352-0.91,2.896-1.139,4.434-0.971c-2.438-8.539-2.301-18.049,4.049-24.977
	c5.358-5.848,12.528-8.979,20.158-10.496c-0.076-0.18-0.074-0.404,0.045-0.682c0.844-1.949,0.594-5.031,0.811-7.113
	c0.366-3.521,0.751-7.043,1.256-10.549c-3.531-1.666-6.463-4.707-8.385-8.691c-2.252-4.67-3.145-11.949,1.749-14.822
	c0.294-0.277,0.795-0.559,1.282-0.652c0.074-0.014,0.144-0.02,0.217-0.031c0.063-0.021,0.117-0.051,0.184-0.07
	c0.352-0.109,0.651-0.113,0.896-0.051c4.035-0.217,5.73,2.65,6.492,6.738c0.771,4.145,1.176,11.359,7.207,9.5
	c0.576-0.178,0.971-0.162,1.196-0.057c-0.397-5.404-0.848-10.811-1.271-16.223c-8.201-3.83-10.901-13.322-8.423-21.811
	c0.084-0.285,0.183-0.535,0.277-0.793c-1.598-8.119-17.719-9.037-25.411-9.17c1.482,4.195,2.732,8.645,2.613,13.061
	c-0.031,1.186-2.942,1.686-2.921,0.281c-0.243,0.023-0.461,0.008-0.617-0.064c-3.255-1.488-8.414,1.377-11.298,2.814
	c-0.729,0.363-5.024,2.305-6.979,3.803c-0.317,0.408-0.638,0.814-0.966,1.205c0,0.006-0.005,0.012-0.004,0.018
	c0.046,0.424-0.367,0.777-0.895,0.998c0.137,0.113,0.267,0.238,0.404,0.35c0.121,0.098-0.136,0.313-0.537,0.523
	c0,8.609,0,17.219,0,25.826c0,1.076-2.897,1.605-2.897,0.777c0-8.754,0-17.508,0-26.262c0-0.066,0.012-0.133,0.032-0.193
	c-0.191-0.104-0.29-0.26-0.221-0.479c-0.312-0.27-0.623-0.535-0.927-0.82c-2.198-0.652-4.603-2.771-5.948-3.576
	c-5.457-3.266-12.027-7.652-18.628-8.182c-0.854,0.357-2.199,0.463-2.211,0.119c-0.002-0.078,0.002-0.166,0-0.246
	c-0.359-0.131-0.282-0.428,0.001-0.73c0.026-2.324,0.385-4.943,1.03-7.607c-1.062-0.061-5.082,1.021-6.313,1.313
	c-4.339,1.025-8.651,2.26-12.815,3.857c-8.001,3.07-19.2,7.814-22.784,16.354c-5.476,13.051-6.593,28.244-7.24,42.277
	c-0.317,6.895,7.354,6.73,12.681,7.119c7.647,0.555,15.302,0.373,22.964,0.354C188.276,412.999,188.332,413.004,188.395,413.01z
	 M248.844,338.309c-1.259-3.174-2.715-7.023-5.02-9.896c0.09,0.986,0.228,1.979,0.379,2.963c0.04,0.258-0.081,0.488-0.286,0.686
	c-0.184,8.258-3.326,17.293-8.043,24.572c1.493-0.738,2.834-1.316,3.442-1.607c3.509-1.682,8.741-4.324,13.011-3.564
	C252.034,346.987,250.452,342.362,248.844,338.309z M288.622,409.645c-0.092-4.27-0.284-8.533-0.535-12.793
	c-3.036,0.969-5.963,1.043-8.643,0.381c-0.513,3.754-0.905,7.521-1.294,11.291c-0.038,0.377-0.063,0.779-0.084,1.193
	C281.592,409.735,285.102,409.788,288.622,409.645z M287.955,394.686c-0.127-1.994-0.262-3.988-0.407-5.982
	c-0.174,0.188-0.477,0.379-0.953,0.523c-4.967,1.531-8.385,0.037-9.527-5.15c-0.643-2.916-0.782-9.178-3.981-10.564
	c-0.178,0.215-0.443,0.402-0.82,0.52c-5.214,1.602-2.444,10.506-0.616,13.645c3.473,5.963,9.179,9.344,16.067,7.07
	C287.8,394.717,287.877,394.702,287.955,394.686z M261.284,437.739l-0.431,0.047c0,0-0.002,0.043-0.005,0.123
	C260.994,437.852,261.139,437.792,261.284,437.739z M288.676,413.567c-0.005-0.77-0.02-1.537-0.031-2.307
	c-3.564,0.164-7.111,0.145-10.676,0.125c-0.057,0.732-0.15,1.459-0.334,2.123c0.872-0.117,2.002-0.053,4.016,0.145
	c1.305-0.066,2.615-0.068,3.905-0.104C286.349,413.53,287.46,413.567,288.676,413.567z M200.79,240.399
	c-0.074,0.023-0.149,0.043-0.226,0.059c0.182,0.203,0.289,0.328,0.289,0.328S200.828,240.657,200.79,240.399z M200.448,235.655
	c-0.032-1.334-0.029-2.951,0.035-4.855C200.159,232.434,200.111,234.079,200.448,235.655z M213.436,330.075
	c-0.03,0.188-0.146,0.357-0.308,0.504c0.183,6.857,4.161,13.512,7.943,18.979c2.518,3.643,5.251,7.572,8.479,10.783
	c0.194,0.084,0.203,0.074,0.073,0.072c0.087,0.088,0.174,0.174,0.263,0.26c0.056,0.004,0.107,0.008,0.158,0.016
	c0.223-0.322,0.517-0.646,0.875-0.971c6.266-7.975,10.512-19.385,10.076-29.102c-0.005-0.113,0.023-0.221,0.07-0.322
	c-0.175-1.652-0.209-3.148-0.066-4.516c-0.609-0.406-0.354-0.918,0.186-1.281c0.721-3.643,2.896-6.369,7.224-8.936
	c3.794-2.248,7.688-5.07,10.568-8.459c2.678-3.145,2.51-7.266,2.531-11.176c0.005-0.713,1.417-1.215,2.271-1.021
	c0.359-0.01,0.684,0.068,0.877,0.268c2.096,2.158,5.218,4.869,7.186,1.271c1.631-2.98,2.006-6.766,1.802-10.107
	c-0.166-2.73-0.591-6.037-2.167-8.436c-0.091-0.014-0.165-0.102-0.215-0.287c-0.144-0.199-0.278-0.406-0.439-0.59
	c-2.713-3.082-5.645-0.129-7.749,2.201c-0.662,0.732-3.191,0.725-2.518-0.357c-0.212-0.063-0.357-0.178-0.377-0.361
	c-0.439-4.516-1.17-8.998-1.23-13.541c-0.004-0.303,0.229-0.561,0.563-0.758l-0.181-0.129c-5.697-2.521-11.099-5.629-16.598-8.537
	l-6.696-2.998c1.298,2.012,2.287,4.369,0.922,6.34c-1.444,2.086-5.108,2.332-7.355,2.301c-4.543-0.063-9.043-0.914-13.498-1.74
	c-3.135-0.58-6.77-1.684-10.074-1.586c-0.1,7.125-0.803,16.324-7.301,20.307c-0.196,0.121-0.731,0.244-1.259,0.311l-0.282,0.313
	c0,0-0.1-0.1-0.273-0.266c-0.596,0.021-0.97-0.08-0.447-0.42c-0.006-0.004-0.013-0.012-0.019-0.016
	c-0.698,0.281-1.576,0.426-1.848,0.125c-1.757-1.943-5.448-5.998-7.774-2.854c-0.198,0.27-0.372,0.555-0.544,0.844
	c0.023,0.098,0.041,0.197,0.065,0.295c0.101,0.385-0.239,0.73-0.718,0.965c-1.051,2.396-1.407,5.213-1.444,7.711
	c-0.049,3.211,0.243,6.889,1.924,9.719c2.162,3.646,4.594,2.328,7.117-0.271c0.062-0.063,0.154-0.121,0.271-0.178
	c0.379-0.922,2.852-1.307,2.858-0.064c0.025,4.334-0.024,8.58,3.271,11.791c2.979,2.9,6.197,5.461,9.597,7.844
	C215.114,318.139,214.529,323.391,213.436,330.075z M207.794,332.434c-2.572,5.037-4.132,11.293-4.211,16.064
	c5.084,0.256,10.065,2.748,14.432,5.129c1.407,0.77,2.8,1.563,4.181,2.375c-1.438-1.879-2.776-3.813-4.021-5.668
	c-3.916-5.842-8.178-12.734-7.949-20.027c0.006-0.176,0.159-0.326,0.391-0.453c0.091-0.527,0.189-1.086,0.291-1.67
	c0.037-0.213,0.072-0.432,0.107-0.65C209.821,328.917,208.738,330.586,207.794,332.434z M271.172,480.172
	c-0.012-1.541-1.697-2.947-2.677-3.951c-0.051-0.053-0.087-0.105-0.113-0.158c-0.016-0.012-0.035-0.018-0.05-0.029
	c-3.577-2.895-7.855-5.137-11.833-7.432c-4.562-2.631-9.599-2.697-14.493-4.348c-15.104-5.088-29.099-15.35-45.372-16.309
	c-0.952-0.057-0.949-0.441-0.579-0.814c-0.179-0.08-0.293-0.209-0.296-0.396c-0.181-11.193-3.759-21.85-7.012-32.557
	c-0.009-0.029-0.019-0.059-0.026-0.088c-0.021,0.023-0.046,0.045-0.068,0.066c-0.397,0.377-1.006,0.703-1.518,0.703
	c-10.022,0.027-20.484,0.756-30.37-1.289c-0.674-0.141-1.35-0.297-2.003-0.486c0.051,0.172-0.07,0.363-0.295,0.547
	c-0.011-0.025-0.023-0.021-0.036,0.027c-0.58,0.449-1.733,0.816-2.273,0.582c1.556,0.676,2.095,0.221,2.26-0.189
	c0.002,0.061,0.003,0.115,0.009,0.189c0.04,0.564,0.1,1.123,0.188,1.68c0.271,1.744,0.617,3.477,1.013,5.197
	c1.194,5.217,2.621,10.387,4.23,15.488c3.546,11.234,7.509,23.354,14.401,33.043c2.689,3.781,5.396,4.783,9.945,5.531
	c1.875,0.309,3.761,0.553,5.649,0.76c3.144,0.346,6.3,0.578,9.456,0.768c1.202,0.07,2.404,0.141,3.604,0.203
	c11.917,0.635,23.94,0.703,35.793,2.217c0.789-0.277,1.725-0.209,1.804,0.424c0.382,3.068,5.426,26.441,11.626,21.551
	c0.027-0.021,0.06-0.039,0.089-0.059c-3.737-2.684-5.503-7.068-6.92-11.328c-0.436-1.309,2.456-2.109,2.898-0.777
	c0.927,2.789,1.941,5.818,3.789,8.148c1.397,1.764,5.702,5.555,7.686,2.535c0.121-0.186,0.314-0.334,0.543-0.449
	c-5.172-2.896-8.688-5.836-10.454-11.611c-0.332-1.09,2.558-1.891,2.898-0.777c1.051,3.438,2.306,5.527,5.079,7.65
	c1.712,1.309,3.507,2.805,5.52,3.641c1.849,0.766,2.337-0.229,3.211-1.74c0.041-0.07,0.103-0.137,0.169-0.197
	c-1.632-0.51-3.188-1.33-4.463-2.174c-3.713-2.459-5.629-6.211-8.473-9.492c-0.602-0.691,2.152-1.701,2.711-1.059
	c1.875,2.164,3.231,4.809,5.231,6.861c1.502,1.541,11.343,8.26,10.309,2.262c-0.56-3.236-5.258-3.668-7.395-5.701
	c-1.585-1.51-2.678-3.416-4.19-5.002c-1.209-1.27-1.784-2.389-2.146-4.119c-0.098-0.469,0.696-0.889,1.479-1.055
	c0.698-0.408,1.816-0.568,2.233-0.078c1.418,1.674,3.909,2.928,5.949,3.627C268.523,480.424,271.184,481.54,271.172,480.172z
	 M290.646,479.174c-1.633-7.447,4.584-10.201,9.569-14.852c8.158-7.611,3.208-18.58,1.574-28.029
	c-3.236-0.742-7.049-2.52-9.322-5.17c-0.287,0.189-0.567,0.385-0.869,0.564c-9.085,5.447-19.688,3.719-29.223,7.328
	c0.179,5.945-0.876,13.986-8.358,13.975c-0.152,0-0.273-0.014-0.38-0.029c-0.447,0.229-0.983,0.314-1.41,0.109
	c-1.237-0.596-3.614-1.672-4.821-0.389c-0.975,1.035-1.272,2.551-0.991,3.928c0.851,4.164,4.59,5.455,8.294,5.131
	c-0.382-0.424-0.73-0.869-1.027-1.352c-0.749-1.211,2.037-2.246,2.664-1.23c4.256,6.885,16.196,7.209,16.337,16.801
	c0.003,0.176-0.064,0.334-0.173,0.477c0.855,0.973,1.689,2.17,1.635,3.268c0.166,0.021,0.313,0.064,0.426,0.145
	C279.755,483.549,286.902,485.227,290.646,479.174z M320.292,477.711c-0.001-0.057,0.01-0.109,0.022-0.162
	c-2.338-0.828-3.561-2.584-3.717-5.99c-0.012-0.268,0.159-0.504,0.423-0.695c-0.105-0.066-0.223-0.121-0.324-0.193
	c-0.051-0.035-0.084-0.072-0.121-0.109c-0.024-0.014-0.054-0.023-0.075-0.041c-3.742-2.779-3.748-7.939-3.344-12.322
	c-1.949,1.004-4.331,1.406-6.651,1.348c-0.405,0.791-0.906,1.549-1.524,2.26c-4.658,5.373-12.725,8.135-11.569,15.885
	c0.096,0.021,0.181,0.051,0.251,0.09c0.177-0.061,0.357-0.094,0.533-0.09c7.96,0.111,19.028,1.059,24.789,7.359
	c0.688,0.752,1.313,1.541,1.896,2.357C320.628,484.174,320.354,480.948,320.292,477.711z M333.764,474.989
	c-0.285-1.016-0.55-2.029-0.79-3.049c-1.838,0.973-4.504,0.902-6.349,0.867c-2.186-0.041-4.74-0.139-7.009-0.799
	c0.476,3.229,2.28,4.674,6.116,4.58c2.463-0.061,5.661-0.18,7.837-1.506C333.628,475.047,333.694,475.016,333.764,474.989z
	 M377.318,501.713c1.434-3.719,1.968-8.053,2.283-11.568c-11.082,5.047-26.267,2.953-37.936,0.6
	c1.003,3.836,1.678,7.707,1.615,11.646c3.085,2.953,10.734,2.66,14.554,2.699C364.205,505.155,371.65,505.02,377.318,501.713z
	 M401.646,471.624c-1.069,0.895-2.285,1.645-3.662,2.217c-0.136,0.08-0.287,0.152-0.472,0.205c-0.061,0.018-0.12,0.029-0.182,0.047
	c-0.642,0.23-1.305,0.438-2.012,0.592c-0.353,0.076-0.629,0.074-0.859,0.041c-5.01,0.824-10.192,0.254-14.529-1.598
	C380.502,479.161,401.663,479.571,401.646,471.624z M449.95,398.932c-0.021-0.16,0.069-0.313,0.229-0.447
	c-7.854,1.156-16.277,0.654-24.21,0.26c-0.025,5.148,0.124,11.414-2.258,16.088c-1.533,3.008-3.818,2.281-6.837,2.053
	c-1.693-0.127-3.388-0.213-5.081-0.275c-2.241-0.084-4.483-0.121-6.726-0.113c-4.117,0.012-8.235,0.154-12.354,0.35
	c-2.581,0.123-6.453,0.932-9.411,0.402c-0.041,0.049-0.077,0.1-0.118,0.146c-1.345,1.574-3.407,3.102-5.831,4.367
	c5.82,0.254,12.056,2.27,16.296,5.926c0.318,0.273,0.216,0.588-0.09,0.855c0.271,0.008,0.438,0.047,0.389,0.107
	c-1.2,1.494-2.49,2.895-3.854,4.205c0.579-0.256,1.269-0.439,1.608-0.355c2.702,0.67,5.101,1.875,7.177,3.461
	c0.154-0.053,0.297-0.092,0.408-0.102c6.696-0.674,13.471-0.012,20.229,0.377c3.09,0.178,6.178,0.291,9.252,0.199
	c2.976-0.088,5.939-0.365,8.885-0.988C452.756,432.249,451.44,410.883,449.95,398.932z M395.845,324.618
	c-7.968-9.354-5.707-23.555-4.196-35.109c0.84-6.424,2.471-14.02-1.549-19.734c-5.125-7.287-13.631-10.219-21.606-13.311
	c-0.73,0.93-1.807,2.246-3.071,3.66c-3.861,4.525-8.4,8.961-14.086,10.34c0.246,12.953-2.975,35.945,12.609,40.396
	c7.176,2.051,16.709,3.742,14.05,13.605c-0.059,0.211-0.274,0.426-0.563,0.609c-0.018,0.07-0.039,0.139-0.049,0.221
	c0.384,0.002,0.639,0.059,0.563,0.166c-0.182,0.26-0.367,0.516-0.554,0.771c0.231,2.309,1.734,6.117,2.083,7.057
	c0.837,2.252,3.778,9.691,7.265,7.748c0.21-0.117,0.565-0.199,0.936-0.238C391.371,335.991,393.241,330.042,395.845,324.618z
	 M370.008,254.415c0.037,0.016,0.075,0.029,0.112,0.043c-0.949-0.42-1.6-0.672-1.6-0.672l0.475,0.635
	C369.339,254.313,369.699,254.293,370.008,254.415z M353.597,342.096c1.763-0.33,3.441-0.836,5.041-1.506
	C356.968,341.075,355.201,341.604,353.597,342.096z M374.495,326.79c0.057-0.08,0.113-0.158,0.17-0.238
	c-0.006-0.061-0.011-0.119-0.016-0.18C374.598,326.51,374.549,326.655,374.495,326.79z M355.804,238.559l0.898-0.285
	c-0.071-0.008-0.131-0.02-0.173-0.037c-0.01,0.004-0.016,0.008-0.023,0.012C356.265,238.346,356.038,238.456,355.804,238.559z
	 M343.263,361.081c0.075-0.012,0.151-0.027,0.228-0.039c5.021-0.777,10.264-0.6,15.3,0.477c1.149-4.436,5.554-7.246,6.438-11.797
	c0.171-0.877,3.068-1.377,2.883-0.418c-0.422,2.17-1.643,3.943-2.928,5.682c-1.523,2.059-3.141,4.066-3.639,6.629
	c-0.035,0.18-0.188,0.342-0.402,0.48c3.025,0.834,5.951,1.996,8.67,3.514c0.503,0.279,0.989,0.586,1.477,0.889
	c0.015,0.008,0.026,0.016,0.04,0.025c4.218,2.629,7.88,6.104,10.557,10.461c6.512,10.602,10.318,27.406,2.704,38.563
	c2.598,0.697,6.912-0.27,9.244-0.377c1.726-0.08,3.451-0.152,5.18-0.217c4.035-0.152,8.074-0.236,12.107-0.107
	c0.905,0.029,9.282,0.975,9.422,0.746c0.625-1.016,1.011-2.168,1.275-3.326c0.813-3.553,1.098-7.172,1.201-10.801
	c0.027-0.951,0.044-1.902,0.053-2.854c-0.233-0.012-0.471-0.021-0.703-0.031c-0.118-0.006-0.516-0.064-0.524-0.258
	c-0.633-12.533-0.361-25.844-2.872-38.16c-0.163-0.805,2.749-1.508,2.898-0.777c0.414,2.039,0.746,4.107,1.021,6.195
	c0.082,0.625,0.157,1.252,0.229,1.881c0.093,0.813,0.178,1.631,0.255,2.449c0.165,1.76,0.298,3.529,0.406,5.305
	c0.408,6.695,0.492,13.449,0.839,19.98c0.036,0.705,0.074,1.408,0.109,2.113c0.079,0.002,0.169,0.004,0.291,0.008
	c2.468,0.09,4.938,0.158,7.405,0.199c6.531,0.105,13.771,0.645,20.302-0.605c-0.207-1.027-0.38-2.063-0.525-3.105
	c-0.015-0.098-0.028-0.197-0.043-0.297c-0.117-0.873-0.22-1.752-0.302-2.635c-0.229-2.457-0.328-4.943-0.354-7.451
	c-0.086-7.873,0.527-15.93,0.058-23.746c-0.042-0.688-0.09-1.375-0.149-2.061c-0.028-0.334-0.066-0.668-0.102-1.002
	c-0.384-3.773-1.084-7.475-2.303-11.057c-0.645-1.891-1.426-3.748-2.39-5.563c-2.235-4.213-5.897-7.84-10.913-8.082
	c-0.056,0.021-0.111,0.041-0.171,0.059c-0.387,0.121-0.854,0.189-1.26,0.217c-0.939,0.41-1.931,1.148-2.669,1.533
	c-1.829,0.951-3.705,1.779-5.642,2.488c-3.888,1.42-7.643,1.891-11.185,1.521c-6.647-0.688-12.533-4.377-17.039-10.629
	c-0.139-0.191-0.132-0.385-0.033-0.564c-0.014-0.012-0.024-0.021-0.037-0.033c-0.77,1.738-1.508,3.502-2.277,5.248
	c-0.218-0.031-0.429-0.072-0.66-0.082c-1.255,3.973-3.437,6.258-6.015,9.162c-0.23,0.26-0.459,0.516-0.695,0.787l-0.666,0.189
	l-2.772,0.791c-2.996-0.121-5.341-2.537-6.857-5.783c-1.145-2.451-2.012-5.057-2.551-7.713c-0.926,1.111-1.895,2.186-2.902,3.207
	c-6.536,6.621-14.771,11.16-23.865,11.406c-0.129,0.041-0.218,0.068-0.218,0.068l-0.217-0.063c-0.732,0.01-1.469-0.006-2.212-0.055
	c-0.096,0.836-0.162,1.672-0.208,2.506c-0.272,4.977,0.089,9.898-2.058,14.625C343.448,360.901,343.366,360.995,343.263,361.081z
	 M295.264,341.604c-0.126,0.334-0.543,0.6-1.021,0.766c-4.205,3.266-10.687,1.91-13.156,6.754c0.022,0.236,0.046,0.471,0.046,0.717
	c0,0.252-0.237,0.467-0.571,0.635c-0.063,0.213-0.137,0.406-0.188,0.637c-1.703,7.734,0.791,16.42,8.77,19.398
	c0.955,0.357,0.691,1.047,0.064,1.51c1.084,13.809,2.313,27.574,2.39,41.436c1.979-0.18,3.827-0.633,4.731-1.738
	c0.188-0.229,0.578-0.4,1.013-0.506c0.162-0.434,0.811-0.773,1.454-0.893c0.071-0.324,0.061-0.531,0.061-0.531l0.03,0.516
	c0.624-0.096,1.218,0.021,1.326,0.471c0.897,3.732,0.823,7.316-0.176,10.551c8.046,2.971,12.989,12.396,11.889,20.652
	c-0.021,0.172-0.095,0.324-0.198,0.461c1.681,0.473,3.059,1.553,4.043,2.99c0.68-2.514,1.541-4.967,2.73-7.313
	c-0.069-0.15-0.074-0.342,0.027-0.582c0.241-0.576,0.564-1.123,0.94-1.646c0.84-3.34,0.96-6.713,0.66-10.158
	c-0.004-0.047,0.004-0.094,0.011-0.139c-3.979-1.418-7.435-4.303-9.852-8.982c-3.738-7.238-1.569-14.426,2.249-20.906
	c-0.394-0.041-0.718-0.199-0.833-0.523c-2.899-8.18-6.118-16.211-10.082-23.938c-0.193-0.379,0.14-0.748,0.642-0.99
	c0.038-0.129,0.104-0.266,0.218-0.418c2.186-2.916,5.58-6.389,6.045-10.195c0.41-3.371-0.544-6.697-1.364-9.939
	c-0.376-1.488-0.871-2.102-1.808-3.305C302.317,342.483,300.578,337.86,295.264,341.604z M176.418,198.208
	c0.104-0.287,0.21-0.574,0.315-0.859c16.766-45.545,48.743-94.633,97.413-109.693c0.259-0.08,0.518-0.15,0.775-0.229
	c-0.949,0.123-1.896,0.254-2.845,0.391c-6.979,1-13.91,2.33-20.77,3.982c-28.089,6.77-54.949,18.887-78.817,35.35
	c-9.729,6.711-18.957,14.145-27.572,22.229c-15.289,14.348-28.63,30.754-39.363,48.83c18.512,0,37.021,0,55.531,0
	C166.197,198.208,171.308,198.208,176.418,198.208z M413.091,198.208c-9.098-36.359-27.619-71.311-58.987-93.094
	C337.7,93.723,319.007,86.129,299.72,85.627c-3.307,0.047-6.609,0.18-9.907,0.379c-6.058,0.629-12.145,1.992-18.209,4.209
	c-46.275,16.92-76.287,63.574-92.4,107.992C257.165,198.208,335.128,198.208,413.091,198.208z M489.77,198.208
	c-0.491-1.205-0.978-2.414-1.496-3.598c-4.034-9.205-8.896-17.807-14.449-25.82c-0.313-0.451-0.626-0.898-0.942-1.346
	C443.11,125.422,393.99,99.891,343.26,89.631c-8.201-1.658-16.459-2.781-24.727-3.414c11.657,2.711,22.902,7.703,33.396,14.451
	c18.254,11.736,32.531,27.537,43.352,45.607c1.826,3.049,3.55,6.164,5.181,9.334c5.025,9.768,9.137,20.063,12.406,30.645
	c1.221,3.949,2.325,7.938,3.313,11.951c0.308,0,0.614,0,0.922,0c24.185,0,48.368,0,72.554,0
	C489.695,198.208,489.732,198.208,489.77,198.208z" fill="#222424"></path>
</svg>