<?xml version="1.0" standalone="no"?>
<svg version="1.1" id="Layer_1" xmlns="http://www.w3.org/2000/svg" xmlns:xlink="http://www.w3.org/1999/xlink" x="0px" y="0px" viewBox="0 0 595.28 595.28" enable-background="new 0 0 595.28 595.28" xml:space="preserve">
<path id="color_x5F_7" fill="#FFFFFF" d="M448.793,398.748c-0.737,3.288-9.723,4.054-20.069,1.758
	c-10.375-2.297-18.17-6.832-17.433-10.12c0.737-3.26,9.723-4.054,20.069-1.757C441.706,390.953,449.53,395.488,448.793,398.748
	L448.793,398.748z M181.514,203.781L181.514,203.781c-2.75,1.077-3.175,4.394-2.183,7.115c0.907,2.438,3.033,4.507,5.726,3.571
	c2.041-0.681,3.231-1.758,3.572-3.146c0.368-1.673-0.567-3.316-1.502-4.252c-0.794-0.794-2.041-0.766-3.203,0.085
	c-0.992,0.737-1.786,2.041-1.191,3.175c0.397,0.737,0.907,0.936,1.247,0.964c0.907,0.085,1.616-0.794,1.672-0.907
	c0.17-0.198,0.142-0.511-0.085-0.681c-0.198-0.17-0.51-0.142-0.68,0.057c-0.198,0.228-0.567,0.567-0.822,0.539
	c-0.17-0.028-0.34-0.255-0.425-0.453c-0.312-0.567,0.227-1.39,0.879-1.871c0.539-0.426,1.389-0.709,1.899-0.198
	c0.794,0.794,1.502,2.126,1.219,3.316c-0.227,1.049-1.219,1.87-2.891,2.438c-2.069,0.709-3.742-0.992-4.45-2.977
	c-0.85-2.268-0.567-4.989,1.587-5.839c4.337-1.701,8.334-0.681,9.751,2.466c1.928,4.28,1.389,7.257-1.616,9.156
	c-3.742,2.324-9.581-0.028-9.638-0.057c-0.255-0.085-0.539,0.028-0.652,0.283c-0.113,0.255,0,0.538,0.255,0.651
	c0.17,0.057,2.863,1.163,5.896,1.163c1.559,0,3.231-0.313,4.649-1.19c3.458-2.184,4.139-5.67,2.041-10.403
	C190.925,203.101,186.361,201.882,181.514,203.781L181.514,203.781z M245.237,192.612L245.237,192.612
	c-2.721,1.077-3.146,4.394-2.154,7.115c0.907,2.466,3.033,4.507,5.726,3.571c2.041-0.68,3.232-1.757,3.543-3.146
	c0.397-1.644-0.567-3.316-1.474-4.252c-0.794-0.793-2.069-0.765-3.203,0.086c-0.992,0.736-1.786,2.041-1.191,3.174
	c0.397,0.737,0.879,0.936,1.247,0.965c0.879,0.084,1.587-0.794,1.672-0.908c0.17-0.198,0.142-0.51-0.085-0.68
	c-0.198-0.17-0.51-0.142-0.68,0.085c-0.198,0.198-0.567,0.538-0.822,0.511c-0.198-0.029-0.34-0.256-0.454-0.454
	c-0.283-0.567,0.255-1.389,0.907-1.871c0.539-0.425,1.389-0.708,1.899-0.198c0.794,0.794,1.502,2.126,1.219,3.316
	c-0.255,1.049-1.219,1.871-2.891,2.438c-2.069,0.709-3.742-0.992-4.479-2.976c-0.822-2.269-0.539-4.989,1.587-5.84
	c4.337-1.7,8.362-0.681,9.78,2.466c1.928,4.281,1.389,7.257-1.644,9.156c-3.713,2.324-9.553-0.028-9.609-0.057
	c-0.255-0.085-0.567,0.028-0.652,0.283c-0.113,0.256,0,0.539,0.255,0.652c0.17,0.085,2.863,1.162,5.868,1.162
	c1.587,0,3.26-0.312,4.677-1.19c3.458-2.183,4.139-5.669,2.013-10.403C254.648,191.933,250.113,190.713,245.237,192.612
	L245.237,192.612z M286.821,240.632L286.821,240.632c-2.75,1.077-3.175,4.394-2.154,7.114c0.879,2.467,3.005,4.508,5.726,3.601
	c2.013-0.709,3.203-1.758,3.543-3.175c0.369-1.645-0.567-3.316-1.502-4.252c-0.794-0.794-2.041-0.766-3.203,0.085
	c-0.992,0.737-1.758,2.041-1.162,3.175c0.369,0.736,0.879,0.936,1.219,0.964c0.907,0.085,1.616-0.794,1.701-0.879
	c0.17-0.227,0.113-0.538-0.085-0.709c-0.227-0.17-0.539-0.142-0.709,0.085c-0.17,0.199-0.539,0.539-0.822,0.511
	c-0.17-0.028-0.34-0.255-0.425-0.454c-0.312-0.566,0.227-1.389,0.879-1.871c0.567-0.425,1.389-0.708,1.899-0.197
	c0.822,0.793,1.502,2.154,1.219,3.316c-0.227,1.049-1.219,1.87-2.891,2.438c-2.069,0.709-3.713-0.992-4.45-2.977
	c-0.822-2.268-0.567-4.989,1.587-5.84c4.337-1.7,8.362-0.68,9.78,2.495c1.899,4.252,1.361,7.229-1.644,9.128
	c-3.742,2.324-9.581-0.029-9.638-0.029c-0.255-0.113-0.539,0-0.652,0.256c-0.113,0.255,0.028,0.538,0.283,0.651
	c0.17,0.085,2.863,1.163,5.868,1.163c1.559,0,3.231-0.313,4.649-1.191c3.487-2.183,4.167-5.669,2.041-10.402
	C296.232,239.951,291.668,238.732,286.821,240.632L286.821,240.632z M414.947,380.72c-2.608,2.126-10.148-2.835-16.866-11.056
	c-6.69-8.22-10.035-16.582-7.427-18.708s10.148,2.806,16.866,11.026C414.21,370.203,417.555,378.594,414.947,380.72L414.947,380.72z
	 M427.987,357.93L427.987,357.93l-5.159,12.67c-1.247,3.062,0.227,6.549,3.288,7.796s6.548-0.228,7.795-3.288l5.159-12.643
	L427.987,357.93z"></path>
<path id="color_x5F_6" fill="#E3482C" d="M448.793,398.748l-2.041,9.127c0,0-10.29,2.269-19.531-0.651
	c-9.609-1.275-17.972-7.71-17.972-7.71l2.041-9.128c-0.737,3.26,6.945,7.739,17.206,10.063l2.636-11.85l0.453,0.086l-2.636,11.877
	C439.212,402.802,448.056,402.008,448.793,398.748L448.793,398.748z M439.07,362.465l6.038-14.797
	c1.247-3.062-0.227-6.549-3.288-7.795c-3.062-1.248-6.548,0.197-7.795,3.26l-6.038,14.797L439.07,362.465z M414.947,380.72
	l-7.257,5.896c0,0-9.496-4.563-14.939-12.585c-6.775-6.945-9.326-17.179-9.326-17.179l7.228-5.896
	c-2.579,2.098,0.68,10.375,7.285,18.538l9.411-7.682l0.312,0.369l-9.411,7.682C404.913,377.971,412.368,382.817,414.947,380.72
	L414.947,380.72z"></path>
<path id="color_x5F_5" fill="#FFD2BB" d="M249.262,273.003c-2.438,1.928-13.011,5.981-13.068,4.054s3.317-6.378,3.317-6.378
	l0.312-4.054c0,0-1.02,0.313-4.507,1.503c-3.515,1.19-7.257,0.17-10.12-3.005c-2.891-3.203-3.883-8.249-3.883-8.249
	s-2.863,0.481-4.62-0.992c-1.758-1.502-1.389-7.257,0-8.277c1.361-0.992,3.231,0.766,3.231,0.766v-3.515
	c8.872,1.502,20.041,0.057,25.002-1.361c7.002-2.012,6.009,3.005,6.265,6.123s5.499,3.005,6.123-0.736
	c0.624-3.771,0.992-5.981,0.992-5.981s1.984-0.567,3.742-0.312c0.283,0.057,0.595,0.17,0.935,0.312
	c0.482,0.227,0.879,0.481,1.162,0.765c1.531,2.014-0.142,10.631-10.573,11.821l-1.871,15.562
	C251.7,271.047,251.7,271.047,249.262,273.003L249.262,273.003z M284.185,293.583L284.185,293.583l-9.609,12.358h-1.134
	l11.622,14.315l-21.742,37.729c0,0-14.627,6.377-15.505,9.382c-0.879,3.005,6.633,2.126,9.128,1.134
	c2.495-1.02,1.616,10.375,2.608,14.117c1.021,3.741,10.261,4.365,12.246,1.247c2.013-3.118,0.51-15.506,1.276-20.636
	c0.737-5.103,3.118-9.241,4.875-11.367c1.729-2.126,22.45-29.367,23.443-32.882C302.383,315.494,284.185,293.583,284.185,293.583
	L284.185,293.583z M197.36,270.905L197.36,270.905l-27.213,4.167l-13.011-15.59c0,0,3.005-3.572,3.997-4.309
	c1.021-0.766,3.685-3.94,4.337-6.095c0.68-2.155-1.899-3.516-3.572-2.665c-1.672,0.822-2.58,2.75-4.847,3.175
	c-2.239,0.397-2.239-7.767-3.827-12.358c-1.587-4.564-3.657-7.059-10.488-6.917c-6.832,0.17-9.099,2.92-8.929,5.442
	c0.17,2.494,6.18,11.168,7.172,17.149c0.992,6.01,1.247,7.909,4.082,9.837c2.835,1.927,18.879,25.993,22.989,26.872
	c4.139,0.879,32.683-3.203,32.683-3.203C198.324,284.568,197.36,270.905,197.36,270.905L197.36,270.905z M108.437,382.732
	L108.437,382.732l9.383,0.879l3.061-8.419l-9.978-3.544L108.437,382.732z M179.87,420.887L179.87,420.887l3.657,11.111l8.504-4.053
	l-1.956-10.177L179.87,420.887z"></path>
<path id="color_x5F_4" fill="#00CEC9" d="M411.888,392.548c0.108,0.156,0.212,0.311,0.346,0.469
	C412.101,392.86,411.996,392.704,411.888,392.548z M412.891,393.699c-0.04-0.037-0.068-0.073-0.107-0.11
	C412.822,393.626,412.851,393.662,412.891,393.699z M173.968,322.393c0-0.001-0.001-0.001-0.001-0.002
	C173.967,322.392,173.967,322.393,173.968,322.393z M210.372,352.778c0.029,0.006,0.057,0.011,0.085,0.016
	C210.428,352.789,210.4,352.784,210.372,352.778z M408.146,379.128c-0.006-0.004-0.012-0.007-0.018-0.011
	C408.135,379.121,408.14,379.124,408.146,379.128z M448.15,399.854c0.001-0.001,0.002-0.003,0.003-0.004
	C448.152,399.851,448.151,399.853,448.15,399.854z M505.032,438.547c-15.874,25.199-63.609,33.676-88.441,15.76
	c-24.86-17.887-63.949-24.237-153.638,6.493c-63.773,21.869-137.348-8.296-171.688-63.348c9.487-0.098,31.059-0.715,31.713-1.368
	c0.822-0.851-0.085-3.771,0-5.67c0.086-1.928-2.749-3.742-2.919-4.932c-0.17-1.163-1.587-2.24-1.587-2.24l-0.486-0.088l2.895-7.963
	l-9.978-3.544l-2.3,10.336c-0.606,0.106-1.184,0.269-1.413,0.522c-0.567,0.623-1.786,6.15-11.282,8.248
	c-3.571,0.776-5.979,1.309-7.593,1.751c-12.047-21.289-18.323-45.994-16.19-72.672c4.523-56.343,39.813-65.172,66.391-73.902
	c1.128,2.4,2.112,4.855,2.463,6.973c0.992,6.01,1.247,7.909,4.082,9.837c2.835,1.927,18.879,25.993,22.989,26.872
	c4.139,0.879,32.683-3.203,32.683-3.203c-1.095-0.837-1.891-4.118-2.434-7.447c0.914,4.531,2.668,9.47,6.034,11.898
	c0,0-6.969,6.829-14.496,13.382c1.409-1.237,2.779-2.472,4.12-3.658c-13.833-0.028-26.249,0.313-32.031,1.361
	c-4.791,0.85-8.504,3.146-10.998,6.803c-3.713,5.414-3.77,12.444-3.458,16.271l3.94-0.709c-0.227-3.346-0.085-9.071,2.806-13.323
	c1.899-2.722,4.705-4.45,8.419-5.103c4.875-0.906,15.021-1.247,26.781-1.275c-5.951,5.158-12.175,10.062-15.527,11.225
	c-1.438,0.501-1.597,2.179-0.771,4.564l-39.31,7.086l-28.913,42.009l19.672,7.002l20.324-28.035l33.335-4.96
	c0,0-23.669,28.006-23.329,30.331c0.34,2.324,19.672,48.67,19.674,48.67l19.672-6.009l-6.69-43.342l26.022-19.956l-0.011-0.011
	c0.652,0.028,1.299,0.024,1.938-0.017c0,0,25.505-32.085,34.689-47.54c-0.046,0.078-0.088,0.15-0.135,0.229
	c1.361,0.029,2.154,0.085,2.239,0.085c0.142,0,4.675-0.057,11.42-0.028l7.516,4.593c0,0,1.215-1.446,2.974-3.626l10.859,13.376
	l-21.742,37.729c0,0-1.825,0.796-4.221,1.956h-9.3v-20.522h-17.008v20.522H212.27v17.008h20.523v20.523h17.008v-20.523h9.184
	c0.111,2.248,0.232,4.399,0.568,5.669c1.021,3.741,10.261,4.365,12.246,1.247c2.013-3.118,0.51-15.506,1.276-20.636
	c0.737-5.103,3.118-9.241,4.875-11.367c1.729-2.126,22.45-29.367,23.443-32.882c0.99-3.486-17.208-25.397-17.208-25.397
	l-0.104,0.133c1.055-1.593,1.93-3.048,2.485-4.216c0,0-32.76-14.199-34.865-18.452l1.871-15.561c0.005,0.007,1.308,1.7,3.627,2.068
	c2.296,0.368,8.985-2.863,9.609-9.128c0.624-6.236-1.446-16.611-12.614-16.923c0,0,0.453-5.018-13.975-8.674
	c-14.4-3.657-21.458,1.814-28.658,0.822c-7.2-0.992-7.115-5.272-7.115-5.272s-1.445,16.837,6.378,22.988
	c2.282,1.801,5.554,2.898,9.211,3.504c-0.036-0.006-0.074-0.01-0.111-0.016v3.515c0,0-1.87-1.758-3.231-0.766
	c-1.389,1.02-1.758,6.775,0,8.277c1.757,1.473,4.62,0.992,4.62,0.992s0.75,3.802,2.838,6.901c-0.029-0.043-0.061-0.084-0.089-0.127
	c0,0-2.239,4.082-10.885,5.727c-8.617,1.615-15.874,0-15.874,0s-0.003,0.571,0.039,1.533l-27.195,4.164l-13.011-15.59
	c0,0,3.005-3.572,3.997-4.309c1.021-0.766,3.685-3.94,4.337-6.095c0.68-2.155-1.899-3.516-3.572-2.665
	c-1.672,0.822-2.58,2.75-4.847,3.175c-1.847,0.328-2.172-5.169-3.121-9.681c11.685-6.01,18.107-15.092,12.532-35.332
	c-17.745-64.544,57.685-101.027,108.68-77.556c50.995,23.472,41.811,45.638,89.263,60.208c47.424,14.57,66.586,21.827,77.613,54.652
	c11.027,32.825-4.819,62.872,52.016,101.367C531.111,368.36,520.906,413.347,505.032,438.547z M192.569,206.786
	c-1.644-3.685-6.208-4.904-11.055-3.005c-2.75,1.077-3.175,4.394-2.183,7.115c0.907,2.438,3.033,4.507,5.726,3.571
	c2.041-0.681,3.231-1.758,3.572-3.146c0.368-1.673-0.567-3.316-1.502-4.252c-0.794-0.794-2.041-0.766-3.203,0.085
	c-0.992,0.737-1.786,2.041-1.191,3.175c0.397,0.737,0.907,0.936,1.247,0.964c0.907,0.085,1.616-0.794,1.672-0.907
	c0.17-0.198,0.142-0.511-0.085-0.681c-0.198-0.17-0.51-0.142-0.68,0.057c-0.198,0.228-0.567,0.567-0.822,0.539
	c-0.17-0.028-0.34-0.255-0.425-0.453c-0.312-0.567,0.227-1.39,0.879-1.871c0.539-0.426,1.389-0.709,1.899-0.198
	c0.794,0.794,1.502,2.126,1.219,3.316c-0.227,1.049-1.219,1.87-2.891,2.438c-2.069,0.709-3.742-0.992-4.45-2.977
	c-0.85-2.268-0.567-4.989,1.587-5.839c4.337-1.701,8.334-0.681,9.751,2.466c1.928,4.28,1.389,7.257-1.616,9.156
	c-3.742,2.324-9.581-0.028-9.638-0.057c-0.255-0.085-0.539,0.028-0.652,0.283c-0.113,0.255,0,0.538,0.255,0.651
	c0.17,0.057,2.863,1.163,5.896,1.163c1.559,0,3.231-0.313,4.649-1.19C193.986,215.005,194.667,211.519,192.569,206.786z
	 M256.292,195.617c-1.644-3.684-6.179-4.904-11.055-3.005c-2.721,1.077-3.146,4.394-2.154,7.115
	c0.907,2.466,3.033,4.507,5.726,3.571c2.041-0.68,3.232-1.757,3.543-3.146c0.397-1.644-0.567-3.316-1.474-4.252
	c-0.794-0.793-2.069-0.765-3.203,0.086c-0.992,0.736-1.786,2.041-1.191,3.174c0.397,0.737,0.879,0.936,1.247,0.965
	c0.879,0.084,1.587-0.794,1.672-0.908c0.17-0.198,0.142-0.51-0.085-0.68c-0.198-0.17-0.51-0.142-0.68,0.085
	c-0.198,0.198-0.567,0.538-0.822,0.511c-0.198-0.029-0.34-0.256-0.454-0.454c-0.283-0.567,0.255-1.389,0.907-1.871
	c0.539-0.425,1.389-0.708,1.899-0.198c0.794,0.794,1.502,2.126,1.219,3.316c-0.255,1.049-1.219,1.871-2.891,2.438
	c-2.069,0.709-3.742-0.992-4.479-2.976c-0.822-2.269-0.539-4.989,1.587-5.84c4.337-1.7,8.362-0.681,9.78,2.466
	c1.928,4.281,1.389,7.257-1.644,9.156c-3.713,2.324-9.553-0.028-9.609-0.057c-0.255-0.085-0.567,0.028-0.652,0.283
	c-0.113,0.256,0,0.539,0.255,0.652c0.17,0.085,2.863,1.162,5.868,1.162c1.587,0,3.26-0.312,4.677-1.19
	C257.737,203.837,258.418,200.351,256.292,195.617z M426.116,378.396c3.061,1.247,6.548-0.228,7.795-3.288l5.159-12.643
	l6.038-14.797c1.247-3.062-0.227-6.549-3.288-7.795c-3.062-1.248-6.548,0.197-7.795,3.26l-6.038,14.797l-5.159,12.67
	C421.581,373.662,423.055,377.149,426.116,378.396z M291.188,255.231c1.559,0,3.231-0.313,4.649-1.191
	c3.487-2.183,4.167-5.669,2.041-10.402c-1.646-3.687-6.21-4.906-11.057-3.006c-2.75,1.077-3.175,4.394-2.154,7.114
	c0.879,2.467,3.005,4.508,5.726,3.601c2.013-0.709,3.203-1.758,3.543-3.175c0.369-1.645-0.567-3.316-1.502-4.252
	c-0.794-0.794-2.041-0.766-3.203,0.085c-0.992,0.737-1.758,2.041-1.162,3.175c0.369,0.736,0.879,0.936,1.219,0.964
	c0.907,0.085,1.616-0.794,1.701-0.879c0.17-0.227,0.113-0.538-0.085-0.709c-0.227-0.17-0.539-0.142-0.709,0.085
	c-0.17,0.199-0.539,0.539-0.822,0.511c-0.17-0.028-0.34-0.255-0.425-0.454c-0.312-0.566,0.227-1.389,0.879-1.871
	c0.567-0.425,1.389-0.708,1.899-0.197c0.822,0.793,1.502,2.154,1.219,3.316c-0.227,1.049-1.219,1.87-2.891,2.438
	c-2.069,0.709-3.713-0.992-4.45-2.977c-0.822-2.268-0.567-4.989,1.587-5.84c4.337-1.7,8.362-0.68,9.78,2.495
	c1.899,4.252,1.361,7.229-1.644,9.128c-3.742,2.324-9.581-0.029-9.638-0.029c-0.255-0.113-0.539,0-0.652,0.256
	c-0.113,0.255,0.028,0.538,0.283,0.651C285.49,254.153,288.183,255.231,291.188,255.231z M376.114,334.43h-16.669v6.01h-17.773
	c-0.51-7.398-3.345-33.137-18.539-35.972c-6.548-1.219-19.191-1.871-32.031-2.211c1.021,1.304,2.069,2.692,3.09,4.082
	c11.537,0.368,22.479,0.992,28.205,2.069c14.258,2.664,15.364,33.76,15.392,34.101l0.057,1.928h25.597v-6.01h8.674v54h-8.674v-7.001
	h-25.597l-0.057,1.927c-0.028,0.312-1.134,31.437-15.392,34.101c-15.619,2.948-69.562,2.467-70.214,2.467
	c-0.482,0.028-34.073,1.389-60.661,1.332l0.414,2.186l-0.002,0.001l-1.859-9.672l-10.205,3.119l1.409,4.281
	c-8.187-0.143-14.931-0.512-18.644-1.191c-3.713-0.652-6.52-2.381-8.391-5.103c-4.309-6.293-2.523-15.987-2.495-16.072l0.028-0.198
	v-55.162l-3.997,0.595v54.198c-0.283,1.616-1.786,11.679,3.146,18.879c2.495,3.656,6.208,5.953,10.998,6.803
	c4.137,0.737,11.643,1.135,20.68,1.276l0.678,2.059c-0.471,0.402-0.888,0.837-0.945,1.172c-0.17,0.822,1.616,6.208-5.471,12.869
	c-7.087,6.661-7.994,7.597-7.228,8.872c0.794,1.304,1.644,1.928,2.92,1.475c1.276-0.482,30.019-18.511,30.302-19.673
	c0.283-1.134-2.013-3.175-2.92-4.848c-0.54-1.012-1.953-1.461-3.164-1.851c25.115-0.115,53.662-1.269,55.493-1.351
	c2.211,0.029,54.879,0.482,70.866-2.522c15.194-2.862,18.028-28.573,18.539-35.972h17.773v7.002h16.668V334.43z M407.69,386.616
	l7.257-5.896c2.608-2.126-0.737-10.517-7.427-18.738c-6.718-8.22-14.258-13.152-16.866-11.026c-0.163,0.133-0.302,0.29-0.419,0.469
	c0.117-0.18,0.256-0.337,0.418-0.469l-7.228,5.896c0,0,2.551,10.234,9.326,17.179C398.194,382.053,407.69,386.616,407.69,386.616z
	 M431.36,388.629c-10.346-2.297-19.332-1.503-20.069,1.757c-0.138,0.615,0.023,1.274,0.444,1.954
	c-0.422-0.68-0.584-1.338-0.445-1.954l-2.041,9.128c0,0,8.363,6.435,17.972,7.71c9.241,2.92,19.531,0.651,19.531,0.651l2.041-9.127
	C449.53,395.488,441.706,390.953,431.36,388.629z M389.828,352.623c-0.006,0.044-0.021,0.081-0.026,0.126
	C389.807,352.703,389.821,352.667,389.828,352.623z M251.227,303.829c0.027-0.049,0.053-0.097,0.08-0.146
	C251.279,303.732,251.254,303.779,251.227,303.829z M390.18,351.543c-0.086,0.15-0.168,0.304-0.226,0.482
	C390.012,351.848,390.093,351.693,390.18,351.543z M250.475,305.143c0.086-0.147,0.175-0.297,0.258-0.441
	C250.65,304.846,250.561,304.996,250.475,305.143z M224.337,264.037c0.108,0.154,0.216,0.305,0.332,0.455
	C224.553,264.344,224.445,264.19,224.337,264.037z M257.171,301.916l2.278,1.39l-6.218-3.799c-0.199,0.662-0.542,1.477-1.002,2.413
	c0.049,0.019,0.098,0.025,0.123,0.025C252.721,301.945,254.45,301.916,257.171,301.916z"></path>
<path id="color_x5F_3" fill="#E84393" d="M252.295,305.941c0.142,0,4.677-0.057,11.424-0.028l-6.548-3.997
	c-2.721,0-4.45,0.029-4.819,0.029c-0.028,0-0.085,0-0.142-0.029c-0.539,1.163-1.276,2.467-2.154,3.94
	C251.417,305.885,252.21,305.941,252.295,305.941L252.295,305.941z M259.127,359.941L259.127,359.941h-9.326v-20.522h-17.008v20.522
	H212.27v17.008h20.523v20.523h17.008v-20.523h9.184c-0.227-4.394-0.397-9.127-2.041-8.447c-2.495,0.992-10.006,1.871-9.128-1.134
	C248.383,365.412,254.733,362.067,259.127,359.941L259.127,359.941z M359.445,334.43L359.445,334.43v6.01h-17.773
	c-0.51-7.398-3.345-33.137-18.539-35.972c-6.548-1.219-19.191-1.871-32.031-2.211c1.021,1.304,2.069,2.692,3.09,4.082
	c11.537,0.368,22.479,0.992,28.205,2.069c14.258,2.664,15.364,33.76,15.392,34.101l0.057,1.928h25.597v-6.01h8.674v54h-8.674v-7.001
	h-25.597l-0.057,1.927c-0.028,0.312-1.134,31.437-15.392,34.101c-15.619,2.948-69.562,2.467-70.214,2.467
	c-0.482,0.028-34.073,1.389-60.661,1.332l0.51,2.693l-2.806,1.332c1.191,0,2.409,0,3.628,0c25.965,0,57.487-1.275,59.414-1.361
	c2.211,0.029,54.879,0.482,70.866-2.522c15.194-2.862,18.028-28.573,18.539-35.972h17.773v7.002h16.668V334.43H359.445z
	 M162.635,423.977L162.635,423.977c-3.713-0.652-6.52-2.381-8.391-5.103c-4.309-6.293-2.523-15.987-2.495-16.072l0.028-0.198
	v-55.162l-3.997,0.595v54.198c-0.283,1.616-1.786,11.679,3.146,18.879c2.495,3.656,6.208,5.953,10.998,6.803
	c4.139,0.737,11.65,1.135,20.693,1.276l-1.332-4.025C173.095,425.025,166.349,424.656,162.635,423.977L162.635,423.977z
	 M151.41,324.311L151.41,324.311c-0.227-3.346-0.085-9.071,2.806-13.323c1.899-2.722,4.705-4.45,8.419-5.103
	c4.876-0.906,15.024-1.247,26.787-1.275c1.559-1.36,3.061-2.721,4.535-4.025c-13.833-0.028-26.249,0.313-32.031,1.361
	c-4.791,0.85-8.504,3.146-10.998,6.803c-3.713,5.414-3.77,12.444-3.458,16.271L151.41,324.311z"></path>
<path id="color_x5F_1" fill="#0984E3" d="M251.7,271.047c0,0,0,0-2.438,1.956c-2.438,1.928-13.011,5.981-13.068,4.054
	s3.317-6.378,3.317-6.378l0.312-4.054c0,0-1.02,0.313-4.507,1.503c-3.515,1.19-7.257,0.17-10.12-3.005
	c-0.425-0.454-0.794-0.964-1.134-1.475l0,0c0,0-2.239,4.082-10.885,5.727c-8.617,1.615-15.874,0-15.874,0s-0.085,16.355,7.03,21.486
	c0,0-22.762,22.309-30.444,24.974c-7.654,2.664,20.891,38.664,41.613,37.332c0,0,34.724-43.682,37.729-53.66l18,10.999
	c0,0,12.331-14.684,15.335-21.005C286.566,289.501,253.798,275.299,251.7,271.047L251.7,271.047z"></path>
<path id="color_x5F_1" fill="#191850" d="M204.446,218.38c0,0-0.085,4.28,7.115,5.272c7.2,0.992,14.258-4.479,28.658-0.822
	c14.428,3.656,13.975,8.674,13.975,8.674c11.168,0.312,13.238,10.687,12.614,16.923c-0.624,6.265-7.313,9.496-9.609,9.128
	c-2.324-0.369-3.628-2.069-3.628-2.069c10.432-1.19,12.104-9.808,10.573-11.821c-1.531-2.041-5.839-0.765-5.839-0.765
	s-0.369,2.211-0.992,5.981c-0.624,3.741-5.868,3.854-6.123,0.736s0.737-8.135-6.265-6.123c-7.002,2.013-26.306,4.025-34.101-2.126
	C203.001,235.217,204.446,218.38,204.446,218.38L204.446,218.38z M154.897,373.832c-0.34-2.325,23.329-30.331,23.329-30.331
	l-33.335,4.96l-20.324,28.035l-19.672-7.002l28.913-42.009l39.317-7.087l0,0c3.458,9.921,23.896,32.031,40.422,32.769l0.028,0.028
	l-26.022,19.956l6.69,43.342l-19.672,6.009C174.569,422.502,155.237,376.156,154.897,373.832L154.897,373.832z M120.059,385.482
	L120.059,385.482c-0.17-1.163-1.587-2.24-1.587-2.24l-8.022-1.445c0,0-2.693,0.085-3.26,0.709c-0.567,0.623-1.786,6.15-11.282,8.248
	c-9.524,2.07-10.772,2.41-10.772,3.912s0.425,2.494,1.757,2.75c1.332,0.255,35.263-0.511,36.085-1.332
	c0.822-0.851-0.085-3.771,0-5.67C123.064,388.486,120.229,386.672,120.059,385.482L120.059,385.482z M194.922,428.398
	L194.922,428.398c-0.737-0.936-2.523-1.134-2.523-1.134l-7.625,2.892c0,0-2.296,1.445-2.438,2.268
	c-0.17,0.822,1.616,6.208-5.471,12.869c-7.087,6.661-7.994,7.597-7.228,8.872c0.794,1.304,1.644,1.928,2.92,1.475
	c1.276-0.482,30.019-18.511,30.302-19.673c0.283-1.134-2.013-3.175-2.92-4.848C199.032,429.419,195.659,429.306,194.922,428.398
	L194.922,428.398z"></path>
</svg>