<?xml version="1.0" standalone="no"?>
<svg version="1.1" id="Layer_2" xmlns="http://www.w3.org/2000/svg" xmlns:xlink="http://www.w3.org/1999/xlink" x="0px" y="0px" viewBox="0 0 2000 2000" enable-background="new 0 0 2000 2000" xml:space="preserve">
<path id="color_x5F_16" fill="#4F8FBA" d="M901.3,1654l973.8-558.5v49.5l-978.6,561.3l-712.6-398.4v-55.1L901.3,1654z M649.1,851.8
	c0,0-2.5,2.9-5,7.3c3.9-1.4,7.7-2.7,11.4-3.9l2.5-6.2c0,0-29.6-6.2-30.4,5C626.8,865,649.1,851.8,649.1,851.8z M890.3,714.9
	c-1-1.6-2.1-3.1-3.2-4.5c3.4-9.2,12.3-31.2,14.4-20.1c2.3,12-6.8,24.7-9.4,27.9C891.5,717.1,890.9,715.9,890.3,714.9L890.3,714.9z
	 M988,858.5c0,0,51.8-69.6,95-54.9C1051.3,836.9,988,858.5,988,858.5z M892.2,718.5c3.9-2.2,21.4-11.6,20.8-1.7
	c-0.4,6.4-10.5,7.1-18.9,6.5C893.5,721.7,892.9,720.1,892.2,718.5z M1152.4,947.8v1.3v61.1c-9.6,3.7-17.8,8.5-24,14.1l-518.2,299.2
	l352.7-203.7l-0.2-62.6L1152.4,947.8z M610.2,1260.8v62.7l-271.3-156.7l0.1-62.6L610.2,1260.8z M610.2,1248.6l-271.7-154l-0.4-62.6
	l272.4,154.3v0.9l-0.4,0.2v61.2H610.2z M591.5,1110.6c-1.8-6.1-13.1-20.1,16.6-43.8s16.6-69.1,53.4-100.7
	c36.8-31.5,79.7-57.7,104.9-82.7s25.2-25,25.2-25s85.3,44.1,84.4,63.6s-84.7,72.1-130.3,97.4C700,1045,593.2,1116.7,591.5,1110.6z
	 M1206.6,829.5V979l-52.5,30.4c-0.6,0.2-1.1,0.4-1.7,0.6l-0.1-61v-1.3l0,0v-10.6l-189.7,109.5l-0.2-62.6l189.7-109.5v-0.2l-0.1-30.2
	l-0.2,0.1l0.2-21.4l20.5-11.9l0,0l34-19.8l0.1,38.3V829.5z"></path>
<path id="color_x5F_15" fill="#D1EDFB" d="M1746.3,1022.6c-0.2,8.4-4,16.2-10.3,21.5l-0.1,0.1c-0.4,0.3-0.8,0.6-1.2,0.9
	c-0.1,0.1-0.3,0.2-0.4,0.3c-0.3,0.2-0.6,0.4-0.9,0.7c-0.5,0.3-1,0.6-1.5,0.9c0.5-0.3,1-0.6,1.5-0.9c-0.5,0.3-1,0.6-1.5,0.9
	l-45.2,26.1c3.8-2.7,6.9-6.2,9.1-10.3c-2.1,4.1-5.2,7.6-9.1,10.3l-12.6,7.3c-19.3,11.1-43.4-2.8-43.4-25.1c0-9.5,4.7-18.3,12.3-23.7
	l0,0c0.7-0.5,1.4-0.9,2.1-1.4l56.9-32.8l-28.2-16c0,0.1,0,0.2,0,0.4l0,0c0,10.3-5.5,19.9-14.5,25.1l-45.2,26.1
	c3.8-2.7,6.9-6.2,9.1-10.3c-2.1,4.1-5.2,7.6-9.1,10.3l-12.6,7.3c-19.3,11.1-43.4-2.8-43.4-25.1l0,0c0-9.5,4.7-18.4,12.5-23.8
	l-0.1,0.1l0,0l0,0c0.7-0.5,1.4-0.9,2.1-1.4l57.8-33.3L1499.8,883v13.2c0,20-15.7,31.9-32.1,41.7c-15.7,9.4-41.2,22.9-74.7,22.9
	c-34.5,0-60.8-13.5-75.8-24.1c-14.4-10.2-28.2-22.7-28.2-44V763.6l-10.8-6.1V768c0,20-15.7,31.9-32.1,41.7
	c-9.6,5.8-22.9,13-39.4,17.8l-0.1-22.6v-13.7l0.1,38.3h-0.1V979l63.8,38.3v-8.4c0-26.2,36.8-47.5,82.2-47.5
	c45.4,0,82.2,21.2,82.2,47.5v30.4c0,21.9-25.7,40.3-60.6,45.8c15.2,8.6,24.7,20.6,24.7,33.9v30.4c0,26.2-36.8,47.5-82.2,47.5
	c-45.4,0-82.2-21.2-82.2-47.5v-26.9c-11.1,3.2-23.6,5-36.8,5c-14.5,0-28.1-2.2-39.9-6c0,0,0,0,0.1,0l-448.5,259l-99.2-57.2
	l-271.3-156.7v-3.6l-155.1,89.6L901.3,1654l973.8-558.5L1746.3,1022.6z M1070.1,1215.9c0-13.5,18.9-24.4,42.3-24.4
	c10.1,0,19.3,2,26.6,5.5l0,0c0.2,0.1,0.3,0.2,0.4,0.2c0.4,0.2,0.8,0.4,1.2,0.6c0.2,0.1,0.5,0.2,0.7,0.4c0.6,0.3,1.2,0.6,1.7,1
	c-0.6-0.3-1.1-0.7-1.7-1l0,0c0.6,0.3,1.2,0.6,1.7,1l0,0c7.2,4.4,11.7,10.3,11.7,16.8c0,0.2,0,0.4,0,0.6c0-0.2,0-0.4,0-0.6v15.7
	c0,13.5-18.9,24.4-42.3,24.4c-23.3,0-42.3-10.9-42.3-24.4L1070.1,1215.9L1070.1,1215.9z M1132.1,1291.5v15.7
	c0,13.5-18.9,24.4-42.3,24.4s-42.3-10.9-42.3-24.4v-15.7c0-13.5,18.9-24.4,42.3-24.4c10.1,0,19.3,2,26.6,5.5l0,0l0,0l0,0
	c0.2,0.1,0.3,0.2,0.4,0.2c0.4,0.2,0.8,0.4,1.1,0.6c0.2,0.1,0.5,0.2,0.7,0.4c0.6,0.3,1.2,0.6,1.7,1l0,0l0,0
	C1127.7,1279,1132.1,1284.9,1132.1,1291.5z M970.9,1258.3v-15.7l0,0c0-13.5,18.9-24.4,42.3-24.4c23.3,0,42.3,10.9,42.3,24.4v15.7
	c0,13.5-18.9,24.4-42.3,24.4C989.8,1282.7,970.9,1271.8,970.9,1258.3z M1036.2,1376.7V1361c0-13.5,18.9-24.4,42.3-24.4
	c10.1,0,19.3,2,26.6,5.4c0.4,0.2,0.7,0.3,1,0.5c-0.3-0.2-0.7-0.3-1-0.5c0.5,0.2,0.9,0.5,1.4,0.7c0.9,0.5,1.8,0.9,2.6,1.5l0,0
	c7.2,4.4,11.7,10.3,11.7,16.8v15.7c0,13.5-18.9,24.4-42.3,24.4S1036.2,1390.1,1036.2,1376.7z M1197.4,1425.5
	c0,13.5-18.9,24.4-42.3,24.4c-23.3,0-42.3-10.9-42.3-24.4v-15.7c0-13.5,18.9-24.4,42.3-24.4c10.1,0,19.3,2,26.6,5.5l0,0
	c0.2,0.1,0.3,0.2,0.4,0.2c0.4,0.2,0.8,0.4,1.2,0.6c0.2,0.1,0.5,0.2,0.7,0.4c0.6,0.3,1.2,0.6,1.7,1c-0.3-0.2-0.6-0.3-0.8-0.5
	c0.3,0.2,0.6,0.3,0.8,0.5l0,0c7.2,4.4,11.7,10.3,11.7,16.8L1197.4,1425.5L1197.4,1425.5z M1220,1349.9c0,13.5-18.9,24.4-42.3,24.4
	c-23.3,0-42.3-10.9-42.3-24.4v-15.7c0-13.5,18.9-24.4,42.3-24.4c10.1,0,19.3,2,26.6,5.4l0,0c0.4,0.2,0.7,0.3,1,0.5
	c-0.3-0.2-0.7-0.4-1-0.5c0.7,0.3,1.3,0.6,2,1c0.1,0.1,0.3,0.1,0.4,0.2c0.5,0.3,1,0.6,1.5,0.8c0.1,0,0.1,0.1,0.2,0.1l0,0
	c7.2,4.4,11.7,10.3,11.7,16.8l0,0v15.8H1220z M1595.8,1073.2c0,8.6-3.8,16.6-10.2,22c-0.3,0.2-0.6,0.5-0.9,0.7
	c-0.2,0.1-0.4,0.3-0.5,0.4c-0.3,0.2-0.6,0.4-0.9,0.7c-0.2,0.1-0.3,0.2-0.5,0.3c-0.5,0.3-1,0.6-1.5,0.9l-20.8,12l-24.4,14.1
	c3.4-2.4,6.1-5.4,8.2-8.8c-2.1,3.4-4.9,6.5-8.2,8.8l-12.6,7.3c-19.3,11.1-43.4-2.8-43.4-25.1c0-9.5,4.7-18.4,12.5-23.8l-0.1,0.1
	c0.7-0.5,1.4-0.9,2.1-1.4l57.9-33.4C1571.7,1037,1595.8,1051,1595.8,1073.2L1595.8,1073.2z M1659.3,1006.9c1.1-0.6,2.2-1.4,3.2-2.1
	C1661.5,1005.6,1660.5,1006.3,1659.3,1006.9l-30.6,17.7L1659.3,1006.9z"></path>
<path id="color_x5F_14" fill="#E9676A" d="M1352.6,969c-38.2,0-69.1,17.9-69.1,39.9s30.9,39.9,69.1,39.9s69.1-17.9,69.1-39.9
	S1390.8,969,1352.6,969z M1352.6,1044.8c-34.3,0-62.2-16.1-62.2-35.9c0-19.8,27.8-35.9,62.2-35.9c34.3,0,62.2,16.1,62.2,35.9
	C1414.8,1028.8,1386.9,1044.8,1352.6,1044.8z M1197.8,1009.8c-38.2,0-69.1,17.9-69.1,39.9s30.9,39.9,69.1,39.9s69.1-17.9,69.1-39.9
	S1235.9,1009.8,1197.8,1009.8z M1197.8,1085.6c-34.3,0-62.2-16.1-62.2-35.9s27.8-35.9,62.2-35.9c34.3,0,62.2,16.1,62.2,35.9
	S1232.1,1085.6,1197.8,1085.6z M1316.8,1079.2c-38.2,0-69.1,17.9-69.1,39.9s30.9,39.9,69.1,39.9s69.1-17.9,69.1-39.9
	C1385.8,1097,1354.9,1079.2,1316.8,1079.2z M1316.8,1155c-34.3,0-62.2-16.1-62.2-35.9s27.8-35.9,62.2-35.9
	c34.3,0,62.2,16.1,62.2,35.9C1378.9,1138.9,1351.1,1155,1316.8,1155z M980.2,1257.9l59.5-34.3c1.4,0.7,2.7,1.4,4,2.1l-59.8,34.5
	C982.6,1259.5,981.4,1258.8,980.2,1257.9z M1060.7,1309.1l59.8-34.5c-1.3-0.8-2.6-1.5-4-2.1l-59.5,34.3
	C1058.1,1307.6,1059.3,1308.4,1060.7,1309.1z M1083.2,1233.5l59.8-34.5c-1.3-0.8-2.6-1.5-4-2.1l-59.5,34.3
	C1080.6,1232,1081.9,1232.8,1083.2,1233.5z M1049.3,1378.6l59.8-34.5c-1.3-0.8-2.6-1.5-4-2.1l-59.5,34.3
	C1046.7,1377.1,1048,1377.9,1049.3,1378.6z M1126,1427.4l59.8-34.5c-1.3-0.8-2.6-1.5-4-2.1l-59.5,34.3
	C1123.4,1425.9,1124.6,1426.7,1126,1427.4z M1148.5,1351.8l59.8-34.5c-1.3-0.8-2.6-1.5-4-2.1l-59.5,34.3
	C1146,1350.3,1147.2,1351.1,1148.5,1351.8z"></path>
<path id="color_x5F_13" fill="#CC9AA0" d="M1231.1,310.6l-8.7,50.9c-11.6,6.8-29.5,11.1-49.6,11.1s-38-4.3-49.6-11.1l-8.7-50.9
	c4.5,13.1,28.9,23.1,58.3,23.1C1202.2,333.7,1226.6,323.7,1231.1,310.6z M1172.8,382.2c-19.1,0-36.1-3.9-47.8-10.1l8.1,47.5
	c0,10.2,17.8,18.5,39.7,18.5c21.9,0,39.7-8.3,39.7-18.5l8.1-47.5C1208.9,378.3,1191.9,382.2,1172.8,382.2z M1086.4,645
	c20.5,14.5,51.7,24.7,85.3-6.7C1171.7,638.4,1112.6,597.1,1086.4,645z M1308.7,773.8c20.4,14.4,51.2,24.5,84.6-6.6
	C1393.2,767.2,1334.7,726.3,1308.7,773.8z M1231.8,306.3L1231.8,306.3L1231.8,306.3L1231.8,306.3z"></path>
<path id="color_x5F_12" fill="#B25055" d="M1673.8,981.9L1673.8,981.9c0,10.3-5.5,19.9-14.5,25.1l-45.2,26.1
	c7.7-5.4,12.3-14.2,12.3-23.7l0,0c0-22.3-24.1-36.2-43.4-25.1l-12.6,7.3c0.7-0.5,1.4-0.9,2.1-1.4l57.9-33.4
	C1649.7,945.7,1673.8,959.6,1673.8,981.9z M1703,996.9l-57.9,33.4c-0.7,0.4-1.4,0.9-2.1,1.4l12.6-7.3c19.3-11.1,43.4,2.8,43.4,25.1
	l0,0c0,9.5-4.7,18.3-12.3,23.7l45.2-26.1c9-5.2,14.5-14.7,14.5-25.1l0,0C1746.4,999.7,1722.3,985.7,1703,996.9z M1552.4,1048.2
	l-57.9,33.4c-0.7,0.4-1.4,0.9-2.1,1.4l12.6-7.3c19.3-11.1,43.4,2.8,43.4,25.1l0,0c0,9.5-4.7,18.3-12.3,23.7l45.2-26.1
	c9-5.2,14.5-14.7,14.5-25.1l0,0C1595.8,1051,1571.7,1037,1552.4,1048.2z M1378.9,1119.1c0,19.8-27.8,35.9-62.2,35.9
	c-34.3,0-62.2-16.1-62.2-35.9s27.8-35.9,62.2-35.9S1378.9,1099.2,1378.9,1119.1z M1197.8,1097.2c-45.4,0-82.2-21.2-82.2-47.5
	s36.8-47.5,82.2-47.5c45.4,0,82.2,21.2,82.2,47.5C1280,1076,1243.2,1097.2,1197.8,1097.2z M1266.9,1049.7c0-22-30.9-39.9-69.1-39.9
	s-69.1,17.9-69.1,39.9s30.9,39.9,69.1,39.9C1235.9,1089.6,1266.9,1071.7,1266.9,1049.7z M1197.8,1013.8c-34.3,0-62.2,16.1-62.2,35.9
	s27.8,35.9,62.2,35.9c34.3,0,62.2-16.1,62.2-35.9S1232.1,1013.8,1197.8,1013.8z M1352.6,973c-34.3,0-62.2,16.1-62.2,35.9
	s27.8,35.9,62.2,35.9s62.2-16.1,62.2-35.9C1414.8,989.1,1386.9,973,1352.6,973z M1399,1119.1c0,26.2-36.8,47.5-82.2,47.5
	s-82.2-21.2-82.2-47.5c0-26.2,36.8-47.5,82.2-47.5S1399,1092.9,1399,1119.1z M1385.8,1119.1c0-22-30.9-39.9-69.1-39.9
	s-69.1,17.9-69.1,39.9s30.9,39.9,69.1,39.9S1385.8,1141.1,1385.8,1119.1z M1434.8,1008.9c0,26.2-36.8,47.5-82.2,47.5
	c-45.4,0-82.2-21.2-82.2-47.5c0-26.2,36.8-47.5,82.2-47.5C1398,961.5,1434.8,982.7,1434.8,1008.9z M1421.7,1008.9
	c0-22-30.9-39.9-69.1-39.9s-69.1,17.9-69.1,39.9s30.9,39.9,69.1,39.9C1390.8,1048.8,1421.7,1031,1421.7,1008.9z M1132.1,1291.5
	c0-6.5-4.4-12.4-11.7-16.8l-59.8,34.5c-1.3-0.7-2.6-1.5-3.7-2.3l59.5-34.3c1.4,0.7,2.7,1.4,4,2.1c-7.7-4.7-18.6-7.6-30.6-7.6
	c-23.3,0-42.3,10.9-42.3,24.4s18.9,24.4,42.3,24.4C1113.2,1315.9,1132.1,1304.9,1132.1,1291.5z M1112.4,1240.3
	c23.3,0,42.3-10.9,42.3-24.4c0-6.5-4.4-12.4-11.7-16.8l-59.8,34.5c-1.3-0.7-2.6-1.5-3.7-2.3l59.5-34.3c1.4,0.7,2.7,1.4,4,2.1
	c-7.7-4.7-18.6-7.6-30.6-7.6c-23.3,0-42.3,10.9-42.3,24.4C1070.1,1229.3,1089.1,1240.3,1112.4,1240.3z M1109.1,1344.2
	c-1.3-0.8-2.6-1.5-4-2.1C1106.5,1342.7,1107.8,1343.4,1109.1,1344.2z M1120.8,1361c0-6.5-4.4-12.4-11.7-16.8l-59.8,34.5
	c-1.3-0.7-2.6-1.5-3.7-2.3l59.5-34.3c-7.3-3.4-16.5-5.4-26.6-5.4c-23.3,0-42.3,10.9-42.3,24.4s18.9,24.4,42.3,24.4
	C1101.8,1385.4,1120.8,1374.5,1120.8,1361z M1185.8,1393l-59.8,34.5c-1.3-0.7-2.6-1.5-3.7-2.3l59.5-34.3
	C1183.2,1391.5,1184.5,1392.2,1185.8,1393c-7.7-4.7-18.6-7.6-30.6-7.6c-23.3,0-42.3,10.9-42.3,24.4s18.9,24.4,42.3,24.4
	c23.3,0,42.3-10.9,42.3-24.4C1197.4,1403.3,1193,1397.4,1185.8,1393z M1013.2,1267c-23.3,0-42.3-10.9-42.3-24.4s18.9-24.4,42.3-24.4
	c23.3,0,42.3,10.9,42.3,24.4S1036.5,1267,1013.2,1267z M1043.8,1225.8c-1.3-0.8-2.6-1.5-4-2.1l-59.5,34.3c1.2,0.8,2.4,1.6,3.7,2.3
	L1043.8,1225.8z M1204.3,1315.2c1.4,0.7,2.7,1.4,4,2.1l-59.8,34.5c-1.3-0.7-2.6-1.5-3.7-2.3L1204.3,1315.2
	c-7.3-3.4-16.5-5.4-26.6-5.4c-23.3,0-42.3,10.9-42.3,24.4s18.9,24.4,42.3,24.4c23.3,0,42.3-10.9,42.3-24.4
	C1220,1326.6,1213.9,1319.7,1204.3,1315.2z M1330.8,480.9c0,16.3,28.4,29.5,63.5,29.5s63.5-13.2,63.5-29.5c0-1.6-0.3-3.2-0.8-4.8
	c-1.5,4.2-4.8,8-9.6,11.4c-1.9-12.9-25-23-53.1-23s-51.2,10.2-53.1,23c-4.8-3.4-8.1-7.2-9.6-11.4
	C1331.1,477.6,1330.8,479.2,1330.8,480.9z M1394.4,500.8c-20.5,0-38.8-4.5-50.4-11.6c7.2-9.7,27-16.8,50.4-16.8s43.2,7,50.4,16.8
	C1433.2,496.3,1414.9,500.8,1394.4,500.8z M1235.5,347.9c0.5,1.6,0.8,3.2,0.8,4.8c0,7.5-5.9,14.3-15.7,19.5l0,0
	c-1.4,0.8-2.9,1.5-4.5,2.2c-0.1,0-0.2,0.1-0.2,0.1c-0.7,0.3-1.4,0.6-2.1,0.9c-0.1,0.1-0.3,0.1-0.4,0.2c-0.7,0.3-1.4,0.5-2.1,0.8
	c-0.2,0.1-0.3,0.1-0.5,0.2c-0.7,0.3-1.5,0.5-2.2,0.7c-0.1,0-0.3,0.1-0.4,0.1c-0.8,0.3-1.6,0.5-2.5,0.7c-0.1,0-0.2,0-0.2,0.1
	c-1.9,0.5-3.8,1-5.8,1.4c-0.1,0-0.1,0-0.2,0s-0.1,0-0.2,0c-0.8,0.2-1.7,0.3-2.5,0.5c-0.2,0-0.4,0.1-0.5,0.1s-0.1,0-0.2,0
	c-0.8,0.1-1.5,0.3-2.3,0.4c-0.3,0-0.5,0.1-0.8,0.1c-0.1,0-0.2,0-0.3,0c-0.7,0.1-1.3,0.2-2,0.3c-0.3,0-0.6,0.1-0.9,0.1
	c-0.2,0-0.3,0-0.5,0.1c-0.6,0.1-1.1,0.1-1.7,0.2c-0.4,0-0.7,0.1-1.1,0.1c-0.3,0-0.6,0.1-0.8,0.1c-0.4,0-0.9,0.1-1.3,0.1
	s-0.8,0.1-1.1,0.1c-0.4,0-0.8,0.1-1.3,0.1c-0.3,0-0.6,0-0.9,0.1c-0.4,0-0.8,0-1.2,0.1c-0.6,0-1.3,0.1-1.9,0.1c-0.2,0-0.3,0-0.5,0
	c-0.3,0-0.7,0-1,0c-1.1,0-2.2,0-3.4,0c0,0,0,0-0.1,0l0,0c-1.1,0-2.3,0-3.4,0c-0.3,0-0.7,0-1,0c-0.2,0-0.4,0-0.6,0
	c-0.6,0-1.2,0-1.8-0.1c-0.4,0-0.8,0-1.1-0.1c-0.3,0-0.6,0-0.9-0.1c-0.4,0-0.8-0.1-1.3-0.1c-0.4,0-0.8-0.1-1.1-0.1
	c-0.5,0-0.9-0.1-1.4-0.1c-0.3,0-0.5,0-0.8-0.1c-0.4,0-0.7-0.1-1.1-0.1c-0.6-0.1-1.1-0.1-1.7-0.2c-0.2,0-0.3,0-0.5-0.1
	c-0.3,0-0.6-0.1-0.9-0.1c-0.7-0.1-1.4-0.2-2-0.3c-0.1,0-0.2,0-0.3,0c-0.3,0-0.5-0.1-0.8-0.1c-0.8-0.1-1.5-0.3-2.3-0.4
	c-0.1,0-0.1,0-0.2,0c-0.2,0-0.4-0.1-0.5-0.1c-0.9-0.2-1.7-0.3-2.6-0.5c-0.1,0-0.1,0-0.2,0s-0.1,0-0.2,0c-2-0.4-3.9-0.9-5.8-1.4
	c-0.1,0-0.2,0-0.2-0.1c-0.8-0.2-1.7-0.5-2.5-0.7c-0.2,0-0.3-0.1-0.4-0.1c-0.7-0.2-1.5-0.5-2.2-0.7c-0.2-0.1-0.3-0.1-0.5-0.2
	c-0.7-0.3-1.4-0.5-2.1-0.8c-0.1-0.1-0.3-0.1-0.4-0.2c-0.7-0.3-1.4-0.6-2.1-0.9c-0.1,0-0.2-0.1-0.3-0.1c-1.6-0.7-3.1-1.4-4.5-2.2l0,0
	c-9.8-5.2-15.7-12-15.7-19.5c0-1.6,0.3-3.2,0.8-4.8c1.5,4.2,4.8,8,9.6,11.4c0.3-1.9,1-3.7,2.2-5.5l1.1,6.5c-0.2,0.2-0.4,0.5-0.6,0.8
	c0.2,0.1,0.3,0.2,0.5,0.3c3.6,2.1,7.9,4.1,12.6,5.7l0,0c0.9,0.3,1.9,0.6,2.9,0.9h0.1c0.1,0,0.1,0,0.2,0c0,0,0,0,0.1,0
	c0.9,0.3,1.8,0.5,2.7,0.8c0.1,0,0.2,0,0.3,0.1l0,0c0.1,0,0.1,0,0.2,0.1c0.9,0.2,1.7,0.4,2.6,0.7c0.1,0,0.2,0,0.2,0.1
	c0.1,0,0.3,0.1,0.4,0.1c0.9,0.2,1.7,0.4,2.6,0.6c0.1,0,0.1,0,0.2,0c0.2,0,0.4,0.1,0.6,0.1c0.8,0.2,1.7,0.3,2.5,0.5
	c0.1,0,0.1,0,0.2,0c0.3,0,0.5,0.1,0.8,0.1c0.8,0.1,1.6,0.3,2.4,0.4h0.1c0.4,0.1,0.7,0.1,1.1,0.1c0.8,0.1,1.5,0.2,2.3,0.3h0.1
	c0.5,0.1,0.9,0.1,1.4,0.1c0.7,0.1,1.4,0.1,2.1,0.2c0,0,0,0,0.1,0c0.6,0,1.2,0.1,1.8,0.1c0.6,0,1.2,0.1,1.8,0.1l0,0
	c0.8,0,1.5,0.1,2.3,0.1c0.5,0,0.9,0,1.4,0.1l0,0c1.2,0,2.5,0.1,3.7,0.1l0,0l0,0l0,0l0,0c1.3,0,2.5,0,3.8-0.1l0,0c0.5,0,1,0,1.5-0.1
	c0.7,0,1.5-0.1,2.2-0.1l0,0c0.6,0,1.2-0.1,1.8-0.1c0.6,0,1.2-0.1,1.8-0.1c0,0,0,0,0.1,0c0.7-0.1,1.4-0.1,2.1-0.2
	c0.5,0,0.9-0.1,1.4-0.1h0.1c0.8-0.1,1.5-0.2,2.3-0.3c0.4,0,0.7-0.1,1.1-0.1h0.1c0.8-0.1,1.6-0.2,2.5-0.4c0.3,0,0.5-0.1,0.8-0.1
	c0.1,0,0.1,0,0.2,0c0.9-0.1,1.7-0.3,2.5-0.5c0.2,0,0.4-0.1,0.6-0.1c0.1,0,0.1,0,0.2,0c0.9-0.2,1.7-0.4,2.6-0.6
	c0.1,0,0.3-0.1,0.4-0.1s0.2,0,0.2-0.1c0.9-0.2,1.8-0.4,2.6-0.7c0.1,0,0.1,0,0.2-0.1l0,0c0.1,0,0.2,0,0.2-0.1
	c0.9-0.2,1.8-0.5,2.6-0.7h0.1c0.1,0,0.1,0,0.2-0.1h0.1c1-0.3,1.9-0.6,2.9-0.9l0,0c4.8-1.6,9-3.5,12.6-5.7c0.2-0.1,0.3-0.2,0.5-0.3
	c-0.2-0.3-0.4-0.5-0.6-0.8l1.1-6.5c1.2,1.8,1.9,3.6,2.2,5.5C1230.7,355.9,1234,352,1235.5,347.9z"></path>
<path id="color_x5F_11" fill="#79B8D2" d="M1173.6,1016.6c3.7-0.9,7.6-1.6,11.7-2.1C1181.2,1015,1177.3,1015.7,1173.6,1016.6z
	 M1230,1019c-1.7-0.6-3.5-1.2-5.3-1.7C1226.5,1017.9,1228.3,1018.4,1230,1019z M1204.1,1085.4c2.1-0.1,4.1-0.3,6.2-0.5
	C1208.3,1085.1,1206.2,1085.3,1204.1,1085.4z M1204.1,1014c2.1,0.1,4.1,0.3,6.2,0.5C1208.3,1014.3,1206.2,1014.1,1204.1,1014z
	 M1163,1019.9c3.3-1.3,6.8-2.4,10.6-3.3C1169.9,1017.5,1166.3,1018.7,1163,1019.9z M1141.9,1065.4c-0.1-0.2-0.3-0.3-0.4-0.5
	C1141.6,1065.1,1141.7,1065.3,1141.9,1065.4z M1185.2,1084.9c-4-0.5-8-1.2-11.7-2.1C1177.3,1083.7,1181.2,1084.4,1185.2,1084.9z
	 M1146.2,1069.8c-0.8-0.7-1.6-1.5-2.4-2.2C1144.6,1068.3,1145.4,1069.1,1146.2,1069.8z M1173.6,1082.8c-3.7-0.9-7.3-2-10.6-3.3
	C1166.3,1080.8,1169.9,1081.9,1173.6,1082.8z M1230,1019c1.7,0.6,3.4,1.2,5,1.9C1233.4,1020.3,1231.7,1019.6,1230,1019z
	 M1143.1,1032.6c-1,1-1.8,2.1-2.6,3.1C1141.3,1034.7,1142.1,1033.6,1143.1,1032.6z M1197.8,1097.2c0.9,0,1.8,0,2.7,0l0,0
	C1199.6,1097.1,1198.7,1097.2,1197.8,1097.2z M1228.6,1080.9L1228.6,1080.9c-1.3,0.4-2.5,0.8-3.9,1.2
	C1226.1,1081.7,1227.3,1081.3,1228.6,1080.9z M1146.2,1029.6c-1.1,1-2.2,1.9-3.1,3C1144.1,1031.6,1145.1,1030.6,1146.2,1029.6z
	 M1251.8,1067.5L1251.8,1067.5c0.3-0.3,0.6-0.6,0.8-0.9C1252.3,1066.9,1252.1,1067.2,1251.8,1067.5z M1237.3,1022
	c1.5,0.7,3,1.5,4.4,2.3C1240.3,1023.5,1238.9,1022.7,1237.3,1022z M1241.7,1024.3c1.4,0.8,2.7,1.7,4,2.5
	C1244.5,1026,1243.2,1025.1,1241.7,1024.3z M1249.3,1029.6c1.7,1.4,3.2,2.9,4.5,4.5C1252.5,1032.6,1251,1031.1,1249.3,1029.6z
	 M1263.8,1037.8c-1.3-2.5-3.1-4.9-5.2-7.2C1260.7,1033,1262.4,1035.4,1263.8,1037.8z M1266.9,1049.7c0,3.6-0.9,7.1-2.4,10.5l0,0
	C1266,1056.8,1266.9,1053.3,1266.9,1049.7c0-4.1-1.1-8.1-3.1-11.9C1265.8,1041.6,1266.9,1045.6,1266.9,1049.7z M1258.5,1030.7
	c-2.7-2.8-5.9-5.4-9.6-7.8C1252.6,1025.3,1255.9,1027.9,1258.5,1030.7z M1279.5,1044.6c-0.1-0.6-0.2-1.2-0.4-1.8
	C1279.2,1043.4,1279.4,1044,1279.5,1044.6z M1279.6,1045c0.1,0.7,0.2,1.4,0.3,2.1C1279.8,1046.4,1279.7,1045.7,1279.6,1045z
	 M1280,1049.7c0-0.7,0-1.5-0.1-2.2C1279.9,1048.3,1280,1049,1280,1049.7z M1115.6,1080.2v-30.4c0-9.4,4.8-18.2,13-25.6l-518.3,299.3
	l99.2,57.2l448.5-259C1132.7,1113.6,1115.6,1098,1115.6,1080.2z M1197.8,1002.3c31.5,0,58.8,10.2,72.6,25.2v-10.1l-63.8-38.3
	l-53.2,30.7C1166.3,1005,1181.5,1002.3,1197.8,1002.3z M1244.2,1020.2c-1.6-0.9-3.3-1.7-5.1-2.4
	C1240.9,1018.5,1242.6,1019.3,1244.2,1020.2z M610.2,1187.5L339.1,1031l283-163.7c126-49,144.4-24.5,169.5-27.1s170.9,144,170.9,144
	L610.2,1187.5z M745.7,1019.6c45.7-25.4,129.4-77.9,130.3-97.4s-84.4-63.6-84.4-63.6s0,0-25.2,25s-68.1,51.2-104.9,82.7
	c-36.8,31.5-23.6,77-53.4,100.7s-18.4,37.6-16.6,43.8C593.2,1116.7,700,1045,745.7,1019.6z M1274,1032c0.2,0.3,0.4,0.6,0.6,0.9
	C1274.4,1032.6,1274.2,1032.3,1274,1032z M1272.4,1029.7c0.2,0.2,0.4,0.5,0.6,0.7C1272.7,1030.2,1272.5,1030,1272.4,1029.7z
	 M1270.5,1027.5c0.4,0.4,0.7,0.8,1.1,1.2C1271.2,1028.3,1270.8,1027.9,1270.5,1027.5z M1280,1049.7c0,0.5,0,1-0.1,1.5h0.1V1049.7z
	 M1276.5,1036.1c0.2,0.4,0.4,0.8,0.6,1.2C1277,1036.9,1276.8,1036.5,1276.5,1036.1z M1275.2,1033.8c0.3,0.5,0.6,1,0.9,1.5
	C1275.8,1034.8,1275.5,1034.3,1275.2,1033.8z M1278.2,1039.8c-0.2-0.6-0.5-1.2-0.7-1.8C1277.7,1038.6,1278,1039.2,1278.2,1039.8z
	 M1279,1042.4c-0.2-0.6-0.4-1.3-0.6-1.9C1278.6,1041.1,1278.8,1041.7,1279,1042.4z"></path>
<path id="color_x5F_10" fill="#CDEBF1" d="M637.9,847.4c-2.4-13.8,3.6-28.3,16.2-36l188-108.1c16.5-10.1,38.1-4.9,48.1,11.6l0,0
	c10.1,16.5,4.9,38.1-11.6,48.1l-127.5,73.4c-19.2-0.6-47.5,2.6-95.7,18.8l2.5-6.2C657.9,848.9,646.7,846.6,637.9,847.4z M988,858.5
	c0,0,8.2-2.8,20.1-7.9C996.2,855.7,988,858.5,988,858.5L988,858.5z M1013,848.5c-1.7,0.7-3.3,1.5-4.9,2.1
	C1009.7,849.9,1011.3,849.2,1013,848.5z M988,858.5c0,0,51.8-69.6,95-54.9c0,0-95-80.3-126.7-73.2c0,0-63.4,11.5-95,54.9
	c0,0,0.2,0.2,0.6,0.7c0.9-0.4,1.8-0.7,2.8-1l0,0c1.7-0.6,3.5-1,5.4-1.1l0,0c7.9-0.9,15.7,1.6,20.7,8.2c0,0,0,0.2,0.1,0.5l10.8,9.8
	c3,1.4,3.2,5.7,2.8,9.1c1.8-1.9,3.5-3.6,4.9-5.1c0.1-5.7,1-11.1,3.6-14.3c0.5-0.6,1.1-1.3,1.6-2c0,0-3-0.5,0.7-10.8s9-3.9,9.1-3.8
	l0,0c12.4-23.1,52-29,64.6,0.2c5,11.6,2.8,22.6-1.7,31.7c3-1.4,3.3,3.2,3.3,3.2s-7.4,19.4-6.8,22.7c0.3,1.8-3.3,6.2-6.5,9.6l0,0
	c-0.5,3.2-1.1,7.5-2,12.4C979.5,856.5,983.7,857.6,988,858.5z M1020,845.3c-2.4,1.1-4.7,2.2-7,3.2
	C1015.2,847.5,1017.5,846.4,1020,845.3z M1045,832.3c-1.3,0.8-2.6,1.5-4,2.3C1042.3,833.8,1043.6,833,1045,832.3z M1035.1,837.7
	c-2,1-3.9,2-5.8,3C1031.2,839.8,1033.1,838.8,1035.1,837.7z M1027.4,841.7c-1.3,0.6-2.5,1.2-3.8,1.8
	C1024.9,843,1026.1,842.3,1027.4,841.7z M1050.9,828.7c-1.3,0.8-2.6,1.6-3.9,2.4C1048.2,830.3,1049.6,829.5,1050.9,828.7z
	 M1035.1,837.7c2-1,3.9-2.1,5.9-3.2C1039,835.6,1037,836.7,1035.1,837.7z"></path>
<path id="color_x5F_9" fill="#BEDDED" d="M889.6,860.1c-0.2,0.1-0.3,0.2-0.5,0.3C889.2,860.2,889.4,860.1,889.6,860.1z M886.7,861.4
	c-0.1,0.1-0.3,0.1-0.4,0.2C886.4,861.6,886.5,861.5,886.7,861.4z M888.2,860.8c-0.2,0.1-0.4,0.2-0.6,0.3
	C887.8,860.9,888,860.8,888.2,860.8z M883.9,862.6c0.2-0.1,0.3-0.1,0.5-0.2C884.3,862.4,884.1,862.5,883.9,862.6z M882.4,863.1
	c0.2-0.1,0.3-0.1,0.5-0.2C882.8,863,882.6,863,882.4,863.1z M866.9,864.4L866.9,864.4L866.9,864.4L866.9,864.4z M863.6,861.8
	c0.1,0.1,0.1,0.2,0.2,0.3C863.7,862,863.7,861.9,863.6,861.8z M863,860.8c0,0.1,0.1,0.2,0.1,0.2C863.1,860.9,863.1,860.9,863,860.8z
	 M863.3,861.3c0,0.1,0.1,0.1,0.1,0.2C863.4,861.5,863.4,861.4,863.3,861.3z M864.4,863.1c0,0,0-0.1-0.1-0.1
	C864.4,863,864.4,863.1,864.4,863.1z M863.9,862.3c0.1,0.2,0.3,0.5,0.4,0.6C864.2,862.7,864,862.5,863.9,862.3z M880.1,863.8
	c0.1,0,0.2-0.1,0.3-0.1C880.3,863.7,880.2,863.7,880.1,863.8z M879.1,864c-0.2,0-0.3,0.1-0.5,0.1C878.7,864.1,878.9,864.1,879.1,864
	z M881.6,785.3c-0.1,0-0.2-0.1-0.4-0.1C881.3,785.2,881.5,785.2,881.6,785.3z M887.5,788.7c0.2,0.2,0.5,0.4,0.7,0.6
	C888,789.1,887.7,788.9,887.5,788.7z M885,786.9c0.2,0.1,0.4,0.3,0.7,0.4C885.5,787.2,885.2,787.1,885,786.9z M851.4,837.9
	c0.1,0.2,0.2,0.4,0.2,0.5C851.5,838.3,851.4,838.1,851.4,837.9z M883,785.9c-0.2-0.1-0.4-0.2-0.6-0.2
	C882.6,785.7,882.8,785.8,883,785.9z M875.2,864.7c-0.2,0-0.3,0-0.5,0.1C874.8,864.8,875,864.8,875.2,864.7z M873.6,864.9
	c-0.1,0-0.3,0-0.4,0C873.3,864.9,873.5,864.9,873.6,864.9z M876.1,784H876C876,783.9,876,784,876.1,784z M874.4,783.8
	c0.1,0,0.1,0,0.2,0C874.6,783.8,874.5,783.8,874.4,783.8z M883.7,786.2c0.2,0.1,0.4,0.2,0.6,0.3
	C884.1,786.4,883.9,786.3,883.7,786.2z M855.6,846.9c-0.1-0.2-0.2-0.3-0.2-0.5C855.4,846.6,855.5,846.7,855.6,846.9z M855.9,847.5
	c0.1,0.2,0.2,0.3,0.2,0.5C856,847.9,856,847.7,855.9,847.5z M857.8,851.3c-0.1-0.1-0.2-0.3-0.2-0.4
	C857.6,851,857.7,851.1,857.8,851.3z M856.4,848.7c0.1,0.2,0.2,0.3,0.3,0.5C856.6,849,856.5,848.8,856.4,848.7z M862.7,860.2
	c0,0.1,0.1,0.1,0.1,0.2C862.8,860.3,862.7,860.3,862.7,860.2z M855,845.7c-0.1-0.2-0.2-0.3-0.2-0.5
	C854.8,845.4,854.9,845.6,855,845.7z M852.2,839.7c-0.1-0.2-0.2-0.4-0.2-0.6C852,839.3,852.1,839.5,852.2,839.7z M854.2,844.1
	c0.1,0.2,0.2,0.4,0.3,0.5C854.3,844.4,854.3,844.2,854.2,844.1z M852.5,840.4c0.1,0.2,0.2,0.4,0.2,0.5
	C852.6,840.8,852.6,840.6,852.5,840.4z M853.9,843.4c-0.1-0.2-0.2-0.4-0.2-0.5C853.7,843,853.8,843.2,853.9,843.4z M853.3,842.2
	c-0.1-0.2-0.2-0.4-0.3-0.5C853.1,841.8,853.2,842,853.3,842.2z M857,849.8c0.1,0.2,0.2,0.3,0.2,0.5
	C857.1,850.1,857.1,849.9,857,849.8z M861.2,857.7c-0.1-0.1-0.1-0.2-0.2-0.4C861.1,857.4,861.2,857.6,861.2,857.7z M861.5,858.1
	c0.1,0.1,0.1,0.2,0.2,0.3C861.6,858.3,861.5,858.2,861.5,858.1z M858.1,851.8c0.1,0.2,0.2,0.3,0.2,0.5
	C858.2,852.2,858.2,852,858.1,851.8z M862.3,859.5c0.1,0.1,0.1,0.2,0.1,0.3C862.4,859.7,862.3,859.6,862.3,859.5z M860.6,856.5
	c0.1,0.1,0.1,0.3,0.2,0.4C860.7,856.8,860.7,856.6,860.6,856.5z M862.1,859.1c-0.1-0.1-0.1-0.2-0.2-0.3
	C862,858.9,862,859,862.1,859.1z M860.1,855.6c0.1,0.1,0.1,0.3,0.2,0.4C860.3,855.9,860.2,855.8,860.1,855.6z M858.8,853.3
	c-0.1-0.2-0.2-0.3-0.2-0.5C858.7,853,858.8,853.1,858.8,853.3z M859.3,854.2c-0.1-0.1-0.2-0.3-0.2-0.4
	C859.2,854,859.3,854.1,859.3,854.2z M859.8,855.2c-0.1-0.1-0.2-0.3-0.2-0.4C859.7,854.9,859.8,855,859.8,855.2z M886.9,788.3
	c-0.2-0.2-0.4-0.3-0.7-0.5C886.5,787.9,886.7,788.1,886.9,788.3z M905.3,840.9c-0.3-0.7-0.6-1.5-0.9-2.3
	C904.8,839.3,905.1,840.1,905.3,840.9z M901.9,830.8c0.2,0.5,0.3,1,0.5,1.5C902.2,831.8,902.1,831.3,901.9,830.8z M908.3,846.8
	c-0.1-0.1-0.2-0.2-0.2-0.3C908.1,846.7,908.2,846.8,908.3,846.8z M905.4,841.1c0.1,0.3,0.2,0.6,0.4,0.9
	C905.7,841.7,905.5,841.4,905.4,841.1z M891.5,794.7c0,0.1,0.1,0.2,0.1,0.3C891.5,794.9,891.5,794.8,891.5,794.7z M891.1,793.2
	c0-0.1,0-0.2-0.1-0.3C891,793,891.1,793.1,891.1,793.2z M906.3,843.2c0.1,0.2,0.2,0.5,0.3,0.7C906.5,843.7,906.4,843.5,906.3,843.2z
	 M891.3,794.1c-0.1-0.2-0.1-0.4-0.1-0.5C891.2,793.8,891.3,793.9,891.3,794.1z M890.9,792.6c0,0.1,0,0.2,0.1,0.3
	C891,792.8,891,792.7,890.9,792.6z M902.4,832.5c0.3,1,0.7,2,1,3C903.1,834.5,902.8,833.5,902.4,832.5z M903.5,835.6
	c0.3,0.9,0.6,1.8,0.9,2.7C904.1,837.4,903.8,836.6,903.5,835.6z M906.2,843.1c-0.1-0.3-0.3-0.6-0.4-0.9
	C906,842.4,906.1,842.8,906.2,843.1z M906.7,844.1c0.1,0.3,0.2,0.5,0.3,0.7C906.9,844.6,906.8,844.4,906.7,844.1z M967.6,809.2
	c5.2-0.4,17.9-3.9,11.2,11l0,0C985.5,805.4,972.7,808.9,967.6,809.2z M968.5,830.4L968.5,830.4L968.5,830.4z M978.3,820.8l0.4-0.4
	L978.3,820.8L978.3,820.8z M978.3,820.8L978.3,820.8L978.3,820.8L978.3,820.8z M973.7,825.7C973.7,825.7,973.8,825.7,973.7,825.7
	C973.8,825.7,973.7,825.7,973.7,825.7z M907.3,845.5c-0.1-0.2-0.2-0.3-0.3-0.5C907.2,845.1,907.2,845.3,907.3,845.5z M907.4,845.6
	c0.1,0.2,0.2,0.4,0.3,0.5C907.6,846,907.5,845.8,907.4,845.6z M907.7,846.2c0.1,0.1,0.2,0.2,0.2,0.3
	C907.9,846.4,907.8,846.3,907.7,846.2z M978.8,820.2L978.8,820.2l-0.1,0.1L978.8,820.2z M892.9,799.7c0.1,0.3,0.1,0.5,0.2,0.8
	C893,800.2,892.9,800,892.9,799.7z M895.5,809.3c0.1,0.4,0.2,0.8,0.3,1.2C895.7,810.1,895.6,809.7,895.5,809.3z M897.9,817.7
	c0.1,0.4,0.3,0.9,0.4,1.3C898.2,818.6,898.1,818.1,897.9,817.7z M897.9,817.6c-0.1-0.4-0.3-0.9-0.4-1.3
	C897.6,816.7,897.8,817.2,897.9,817.6z M895.9,810.6c0.5,1.8,1.1,3.7,1.6,5.6C896.9,814.3,896.4,812.4,895.9,810.6z M900.1,824.9
	c0.1,0.4,0.3,0.9,0.4,1.3C900.3,825.8,900.2,825.3,900.1,824.9z M898.4,819.1c0.6,1.9,1.1,3.8,1.7,5.7
	C899.5,823,898.9,821.1,898.4,819.1z M890.8,792.1c-0.3-0.4-0.7-0.9-1-1.3C890.1,791.3,890.5,791.7,890.8,792.1z M890.8,792.2
	C890.8,792.1,890.8,792.1,890.8,792.2C890.8,792.1,890.8,792.1,890.8,792.2z M901.9,830.7c-0.3-1-0.6-2-0.9-3
	c0.1,0.4,0.3,0.9,0.4,1.3C901.5,829.6,901.7,830.2,901.9,830.7z M900.9,827.6c-0.1-0.4-0.3-0.8-0.4-1.2
	C900.7,826.8,900.8,827.2,900.9,827.6z M891.8,795.7c0-0.1-0.1-0.3-0.1-0.4C891.7,795.4,891.7,795.5,891.8,795.7z M890.9,792.6
	c-0.1-0.2-0.1-0.3-0.1-0.4C890.8,792.2,890.9,792.4,890.9,792.6z M893.1,800.6c0.1,0.3,0.2,0.6,0.2,0.9
	C893.3,801.2,893.2,800.9,893.1,800.6z M888.7,789.7c0.2,0.2,0.5,0.5,0.7,0.8C889.2,790.2,888.9,790,888.7,789.7z M892.6,798.9
	c0,0.2,0.1,0.3,0.1,0.5C892.7,799.2,892.7,799.1,892.6,798.9z M891.9,796c0,0.1,0.1,0.2,0.1,0.4C891.9,796.3,891.9,796.2,891.9,796z
	 M892.1,796.8c0,0.1,0.1,0.2,0.1,0.3C892.1,797,892.1,796.9,892.1,796.8z M893.7,803c0.1,0.3,0.2,0.6,0.2,0.9
	C893.9,803.5,893.8,803.2,893.7,803z M893.4,801.8c0.1,0.2,0.1,0.5,0.2,0.7C893.6,802.3,893.5,802.1,893.4,801.8z M894,804
	c0.2,0.8,0.5,1.6,0.7,2.5C894.5,805.7,894.3,804.8,894,804z M894.7,806.6c0.1,0.4,0.2,0.8,0.3,1.2C895,807.4,894.9,807,894.7,806.6z
	 M895.1,807.9c0.1,0.4,0.2,0.8,0.3,1.1C895.3,808.7,895.2,808.3,895.1,807.9z M856.4,884.2c-0.9-0.8-1.9-1.6-2.8-2.4
	C854.5,882.6,855.4,883.4,856.4,884.2z M912,793.7c0.1-0.1,0.1-0.2,0.2-0.4C912.2,793.5,912.1,793.6,912,793.7z M911.4,795.1
	c0.1-0.1,0.1-0.2,0.2-0.4C911.5,794.8,911.4,795,911.4,795.1z M912.5,830.4C912.5,830.5,912.5,830.5,912.5,830.4
	C912.5,830.5,912.5,830.5,912.5,830.4z M912.4,829.9c0,0.1,0,0.1,0,0.2C912.4,830,912.4,830,912.4,829.9z M912.5,830.4
	c0,0,0-0.1,0-0.2C912.5,830.3,912.5,830.3,912.5,830.4z M910.8,796.6L910.8,796.6L910.8,796.6z M912.6,830.8
	C912.6,830.9,912.6,830.9,912.6,830.8C912.6,830.9,912.6,830.9,912.6,830.8z M912.6,830.6C912.6,830.6,912.6,830.7,912.6,830.6
	C912.6,830.7,912.6,830.6,912.6,830.6z M910.3,798.6c0-0.1,0.1-0.3,0.1-0.4C910.3,798.3,910.3,798.5,910.3,798.6z M904,804.9
	c0,0.1,0.1,0.1,0.1,0.2C904,805,904,805,904,804.9z M909.5,804.2c0,0.1,0,0.2,0,0.2S909.5,804.3,909.5,804.2z M910,800.1
	c0,0.1,0,0.2,0,0.3C909.9,800.3,909.9,800.2,910,800.1z M912.3,829.5c0,0.1,0,0.1,0,0.2C912.3,829.6,912.3,829.5,912.3,829.5z
	 M904.7,809.5v0.1C904.7,809.5,904.7,809.5,904.7,809.5z M904.7,808.8c0,0.1,0,0.1,0,0.2C904.7,808.9,904.7,808.8,904.7,808.8z
	 M904.6,808.1c0,0.1,0,0.1,0,0.2C904.7,808.2,904.7,808.2,904.6,808.1z M903.7,804.4c0,0.1,0.1,0.1,0.1,0.2
	C903.8,804.5,903.7,804.4,903.7,804.4z M904.6,807.4c0,0.1,0,0.1,0,0.2C904.6,807.6,904.6,807.5,904.6,807.4z M909.5,810.9
	c0-0.1,0-0.1,0-0.2C909.5,810.7,909.5,810.8,909.5,810.9z M912,828.2v0.1C912,828.3,912,828.3,912,828.2z M912.1,828.8
	c0,0.1,0,0.1,0,0.2C912.2,828.9,912.1,828.8,912.1,828.8z M911.8,827.2L911.8,827.2L911.8,827.2z M909.8,814
	C909.8,814,909.8,813.9,909.8,814C909.8,813.9,909.8,814,909.8,814z M912.7,831.2L912.7,831.2L912.7,831.2z M656.8,848.7
	C656.9,848.7,656.9,848.7,656.8,848.7C656.9,848.7,656.9,848.7,656.8,848.7z M657.4,848.8h0.1H657.4z M655.5,855.1
	C655.4,855.1,655.4,855.1,655.5,855.1C655.4,855.1,655.4,855.1,655.5,855.1C655.4,855.1,655.4,855.1,655.5,855.1z M657.9,848.9
	L657.9,848.9L657.9,848.9z M657.8,848.9c0,0-0.1,0-0.2,0C657.7,848.8,657.8,848.8,657.8,848.9z M929.8,849.5L929.8,849.5
	c-2.5,1.3-9.9,5.5-2.1,6c3.6,0.2,7.3,0.5,10.5,0.8c5.7-6,10.1-10.7,10.1-10.7l0,0c-4.5,2.5-8.9,4.2-12.8,4.4
	C933.5,850,931.6,849.9,929.8,849.5z M983.8,833.7v0.1V833.7z M901.3,852.7c0.2-0.1,0.3-0.3,0.5-0.4
	C901.7,852.4,901.5,852.5,901.3,852.7z M1206.6,791.2L935.5,634.7l-54.2,31.1l270.8,157L1206.6,791.2z M902.4,851.9
	c0.1-0.1,0.3-0.2,0.4-0.3C902.6,851.6,902.5,851.7,902.4,851.9z M977.3,842.9L977.3,842.9L977.3,842.9L977.3,842.9z M912.9,832
	L912.9,832L912.9,832z M864.7,785.1L864.7,785.1L864.7,785.1L864.7,785.1z M924.4,775.6c-2.7,3.4-4.8,6.9-6.8,10.2L924.4,775.6
	L924.4,775.6z M912.8,831.5C912.8,831.6,912.8,831.6,912.8,831.5C912.8,831.6,912.8,831.6,912.8,831.5z M914.7,790.2
	c1-1.4,2-2.8,2.9-4.4L914.7,790.2z M914.7,790.2L914.7,790.2L914.7,790.2L914.7,790.2z M924.4,775.6L924.4,775.6L924.4,775.6
	L924.4,775.6L924.4,775.6z M909.4,807.4c0,0.1,0,0.2,0,0.3C909.4,807.6,909.4,807.5,909.4,807.4z M991.8,788.3c0,0.1,0,0.2,0,0.3
	C991.8,788.6,991.8,788.4,991.8,788.3z M944.7,758.6L944.7,758.6L944.7,758.6z M947.1,757.8c-0.1,0-0.1,0-0.2,0
	C947,757.8,947.1,757.8,947.1,757.8z M843.9,812.4c0,0.2,0,0.3,0,0.5C843.9,812.7,843.9,812.6,843.9,812.4z M845.7,822.3
	c0,0.2,0.1,0.4,0.1,0.5C845.8,822.7,845.8,822.5,845.7,822.3z M844.7,817.8c0-0.2-0.1-0.3-0.1-0.5
	C844.6,817.4,844.6,817.6,844.7,817.8z M844.9,819c0-0.2-0.1-0.3-0.1-0.5C844.8,818.7,844.9,818.8,844.9,819z M845.1,819.8
	c0,0.2,0.1,0.4,0.1,0.5C845.2,820.1,845.1,819.9,845.1,819.8z M845.5,821.6c0-0.2-0.1-0.4-0.1-0.5
	C845.5,821.2,845.5,821.4,845.5,821.6z M844.4,816.5c0-0.2-0.1-0.3-0.1-0.5C844.4,816.2,844.4,816.3,844.4,816.5z M843.7,810.6
	c0-0.1,0-0.3,0-0.4C843.7,810.3,843.7,810.4,843.7,810.6z M843.8,811.7c0-0.2,0-0.3,0-0.5C843.8,811.4,843.8,811.6,843.8,811.7z
	 M844,813.6c0,0.2,0,0.3,0.1,0.5C844,813.9,844,813.8,844,813.6z M844.2,815.3c0-0.2,0-0.3-0.1-0.5
	C844.2,815,844.2,815.1,844.2,815.3z M846.3,875.6c1,0.8,1.9,1.6,2.9,2.5C848.3,877.3,847.3,876.4,846.3,875.6z M851.1,837.2
	c-0.1-0.2-0.2-0.4-0.2-0.5C850.9,836.8,851,837,851.1,837.2z M849,832c-0.1-0.2-0.1-0.4-0.2-0.6C848.8,831.6,848.9,831.8,849,832z
	 M849.5,833.3c-0.1-0.2-0.1-0.4-0.2-0.6C849.3,832.9,849.4,833.1,849.5,833.3z M850.3,835.3c0.1,0.2,0.2,0.4,0.2,0.6
	C850.4,835.7,850.4,835.5,850.3,835.3z M848.5,830.7c-0.1-0.2-0.1-0.4-0.2-0.6C848.3,830.3,848.4,830.5,848.5,830.7z M849.8,834
	c0.1,0.2,0.1,0.4,0.2,0.6C849.9,834.4,849.8,834.2,849.8,834z M847.1,826.7c-0.1-0.2-0.1-0.4-0.2-0.5
	C847,826.4,847,826.6,847.1,826.7z M846.5,824.9c0.1,0.2,0.1,0.4,0.2,0.5C846.6,825.3,846.6,825.1,846.5,824.9z M846.3,824.1
	c-0.1-0.2-0.1-0.4-0.2-0.5C846.2,823.8,846.2,824,846.3,824.1z M847.5,828.1c-0.1-0.2-0.1-0.4-0.2-0.6
	C847.4,827.7,847.5,827.9,847.5,828.1z M847.8,828.8c0.1,0.2,0.1,0.4,0.2,0.6C847.9,829.2,847.9,829,847.8,828.8z M903.8,815.9
	L903.8,815.9L903.8,815.9z M903.4,803.9c0,0.1,0.1,0.1,0.1,0.2C903.5,804,903.4,803.9,903.4,803.9z M903.1,803.4
	c0,0.1,0.1,0.1,0.1,0.2C903.2,803.5,903.1,803.5,903.1,803.4z M902.8,803.2c-0.1,0-0.1-0.1-0.2-0.1
	C902.7,803.1,902.8,803.1,902.8,803.2z M871.5,783.8h0.1H871.5z M864.8,863.8c0.5,0.2,1,0.3,1.4,0.4
	C865.8,864.1,865.3,863.9,864.8,863.8z M904.2,805.6L904.2,805.6L904.2,805.6z M904.5,807c0-0.1,0-0.1,0-0.2
	C904.5,806.9,904.5,807,904.5,807z M902.2,802.7c0.1,0,0.1,0.1,0.1,0.1S902.3,802.7,902.2,802.7z M904.4,806.4v-0.1
	C904.4,806.3,904.4,806.3,904.4,806.4z M870.8,864.9c0.2,0,0.3,0,0.5,0C871.1,864.9,870.9,864.9,870.8,864.9z M903.7,816.1
	C903.7,816.2,903.7,816.2,903.7,816.1C903.7,816.2,903.7,816.2,903.7,816.1z M843.7,809c0,0.1,0,0.3,0,0.4
	C843.7,809.3,843.7,809.2,843.7,809z M867.3,893.8c-0.9-0.8-1.9-1.7-2.8-2.5C865.4,892.1,866.3,892.9,867.3,893.8z M860.7,887.9
	c1,0.8,1.9,1.7,2.9,2.6C862.6,889.6,861.6,888.8,860.7,887.9z M870.1,784L870.1,784L870.1,784L870.1,784z M842.8,872.6
	c1,0.8,1.9,1.6,2.9,2.4C844.7,874.2,843.7,873.4,842.8,872.6z M977.4,821.8l-0.1,0.1C977.3,821.9,977.4,821.8,977.4,821.8z
	 M857.1,884.8c0.9,0.8,1.9,1.6,2.8,2.5C859,886.5,858,885.6,857.1,884.8z M849.9,878.7c1,0.8,2,1.7,3,2.6
	C851.9,880.4,850.9,879.5,849.9,878.7z M869.2,864.8c0.2,0,0.4,0,0.5,0.1C869.6,864.8,869.4,864.8,869.2,864.8z M864.7,863.6
	c-0.1-0.1-0.1-0.2-0.2-0.3C864.6,863.4,864.7,863.5,864.7,863.6z M864.7,863.7L864.7,863.7L864.7,863.7z M873,783.8
	c0.1,0,0.1,0,0.2,0C873.1,783.8,873,783.8,873,783.8z M911.3,877.6c0.1,0.3,0.2,0.6,0.3,0.9C911.5,878.2,911.4,877.9,911.3,877.6z
	 M938.7,897.4l-0.1,0.1C938.6,897.5,938.6,897.5,938.7,897.4z M940.6,895C940.6,895,940.6,894.9,940.6,895
	C940.6,894.9,940.6,895,940.6,895z M962,865.7C962,865.7,962,865.8,962,865.7C962,865.8,962,865.7,962,865.7z M963.7,863.2
	c-0.1,0.1-0.1,0.2-0.2,0.3C963.6,863.4,963.6,863.3,963.7,863.2z M936.7,899.9C936.7,899.9,936.7,900,936.7,899.9
	C936.7,900,936.7,899.9,936.7,899.9z M926.8,868.1c0.1-0.1,0.2-0.2,0.3-0.3C927,867.9,926.9,868,926.8,868.1z M970.1,853.1
	c0-0.1,0.1-0.1,0.1-0.2C970.2,852.9,970.1,853,970.1,853.1z M928.8,866.1c-0.1,0.1-0.2,0.3-0.4,0.4
	C928.6,866.3,928.7,866.2,928.8,866.1z M960.4,868.1c-0.1,0.1-0.1,0.2-0.2,0.3C960.3,868.3,960.3,868.2,960.4,868.1z M925.4,869.6
	c0.1-0.1,0.1-0.1,0.2-0.2C925.5,869.4,925.5,869.5,925.4,869.6z M944.6,889.7L944.6,889.7L944.6,889.7z M967.9,856.8
	c0-0.1,0.1-0.2,0.1-0.2S967.9,856.7,967.9,856.8z M972.3,848.6v-0.1C972.4,848.5,972.4,848.5,972.3,848.6z M971.7,849.9
	c0-0.1,0.1-0.1,0.1-0.2C971.8,849.8,971.8,849.8,971.7,849.9z M965,861.2c0.1-0.1,0.2-0.2,0.2-0.4C965.2,861,965.1,861.1,965,861.2z
	 M971,851.4c0-0.1,0.1-0.2,0.1-0.2C971.1,851.3,971,851.3,971,851.4z M950.7,881.7c0.1-0.1,0.1-0.1,0.2-0.2
	C950.8,881.5,950.7,881.6,950.7,881.7z M954.7,876.1c-0.1,0.1-0.1,0.2-0.2,0.2C954.6,876.2,954.7,876.2,954.7,876.1z M956.4,873.7
	c0.1-0.1,0.2-0.2,0.3-0.4C956.6,873.4,956.5,873.6,956.4,873.7z M958.3,871c0.1-0.1,0.2-0.3,0.3-0.4
	C958.5,870.8,958.4,870.9,958.3,871z M966.5,858.9c0.1-0.1,0.1-0.2,0.2-0.3C966.6,858.7,966.6,858.8,966.5,858.9z M948.8,884.1
	c-0.1,0.1-0.1,0.2-0.2,0.3C948.7,884.3,948.7,884.2,948.8,884.1z M946.7,886.9c-0.1,0.1-0.1,0.2-0.2,0.2
	C946.6,887.1,946.7,887,946.7,886.9z M908.1,866.8c0.3,1.3,0.7,2.4,1,3.6C908.7,869.2,908.4,868,908.1,866.8z M923.8,871.2
	c0.1-0.1,0.2-0.2,0.3-0.3C924,871,923.9,871.1,923.8,871.2z M922.4,872.6l0.1-0.1C922.4,872.5,922.4,872.5,922.4,872.6z M921,874
	c0.1-0.1,0.2-0.2,0.3-0.2C921.1,873.8,921,873.9,921,874z M919.6,875.3c0.1-0.1,0.1-0.1,0.2-0.2
	C919.7,875.2,919.6,875.2,919.6,875.3z M911.2,877.4c-0.1-0.3-0.2-0.7-0.3-1C911,876.8,911.1,877.1,911.2,877.4z M910.5,875.2
	c0.1,0.4,0.2,0.8,0.4,1.2C910.7,876,910.6,875.6,910.5,875.2z M918.4,876.4c0.1-0.1,0.1-0.1,0.2-0.2
	C918.5,876.3,918.5,876.3,918.4,876.4z M910,873.7c0.1,0.5,0.3,0.9,0.4,1.3C910.3,874.6,910.2,874.2,910,873.7z M910,873.6
	c-0.1-0.5-0.3-0.9-0.4-1.4C909.7,872.6,909.8,873.1,910,873.6z M909.6,872.1c-0.1-0.5-0.3-1-0.5-1.6
	C909.3,871,909.4,871.6,909.6,872.1z M916.2,878.4L916.2,878.4L916.2,878.4z M938.1,856.5c-0.1,0.1-0.2,0.2-0.3,0.3
	C937.8,856.7,938,856.6,938.1,856.5z M936.7,857.9c-0.1,0.1-0.3,0.3-0.4,0.4C936.5,858.2,936.6,858,936.7,857.9z M934.7,860
	c0.1-0.1,0.3-0.3,0.4-0.4C935,859.7,934.8,859.9,934.7,860z M933.6,861.2c-0.1,0.1-0.2,0.2-0.3,0.3
	C933.4,861.4,933.5,861.3,933.6,861.2z M913.3,880.6C913.3,880.7,913.2,880.7,913.3,880.6C913.2,880.7,913.3,880.7,913.3,880.6z
	 M917.4,877.3c-0.1,0.1-0.1,0.1-0.2,0.2C917.2,877.5,917.3,877.4,917.4,877.3z M915.2,879.2c0.1,0,0.1-0.1,0.2-0.1
	C915.3,879.1,915.3,879.2,915.2,879.2z M932,862.9c-0.1,0.1-0.2,0.3-0.4,0.4C931.7,863.1,931.8,863,932,862.9z M913.9,880.3
	C913.8,880.3,913.8,880.3,913.9,880.3C913.8,880.3,913.8,880.3,913.9,880.3z M914.5,879.8l-0.1,0.1
	C914.4,879.9,914.5,879.8,914.5,879.8z M930,864.8c0.1-0.1,0.1-0.1,0.2-0.2C930.2,864.7,930.1,864.8,930,864.8z M975.9,851.5
	c0,0.1,0,0.3-0.1,0.4C975.9,851.8,975.9,851.7,975.9,851.5z M975.7,853.2c0,0.1,0,0.3-0.1,0.4C975.6,853.5,975.6,853.3,975.7,853.2z
	 M988.8,858.2h0.1C988.8,858.2,988.8,858.2,988.8,858.2z M989.4,858h0.1C989.4,858,989.4,858,989.4,858z M988.4,858.4
	C988.3,858.4,988.3,858.4,988.4,858.4C988.3,858.4,988.3,858.4,988.4,858.4z M976.2,850c0,0.1,0,0.2-0.1,0.3
	C976.2,850.2,976.2,850.1,976.2,850z M895.7,910.8c-0.5-0.5-0.9-0.9-1.4-1.4C894.8,909.8,895.2,910.3,895.7,910.8z M976.7,846.7
	c0,0.1,0,0.3-0.1,0.4C976.7,846.9,976.7,846.8,976.7,846.7z M896.9,912c-0.2-0.2-0.5-0.5-0.7-0.7C896.5,911.5,896.7,911.8,896.9,912
	z M976.9,845.7c0-0.1,0-0.3,0.1-0.4C976.9,845.4,976.9,845.6,976.9,845.7z M977.1,844.4c0-0.1,0-0.2,0-0.3
	C977.1,844.2,977.1,844.3,977.1,844.4z M993.4,856.5c0.1,0,0.2-0.1,0.3-0.1C993.6,856.5,993.5,856.5,993.4,856.5z M996.3,855.4
	c0.1,0,0.2-0.1,0.4-0.1C996.6,855.3,996.5,855.4,996.3,855.4z M997.9,854.8c0.1,0,0.2-0.1,0.3-0.1
	C998.1,854.7,998,854.8,997.9,854.8z M994.9,856L994.9,856L994.9,856z M1006.2,851.4c-0.2,0.1-0.4,0.2-0.5,0.2
	c-0.5,0.2-1.1,0.4-1.6,0.7c-0.1,0-0.2,0.1-0.3,0.1c-0.6,0.2-1.2,0.5-1.8,0.7c-0.2,0.1-0.3,0.1-0.5,0.2c-0.4,0.2-0.9,0.4-1.3,0.5
	c-0.1,0.1-0.3,0.1-0.4,0.2c-0.5,0.2-1,0.4-1.5,0.6c-0.1,0-0.2,0.1-0.3,0.1c-0.4,0.2-0.8,0.3-1.2,0.5c-0.1,0-0.3,0.1-0.4,0.1
	c-0.5,0.2-0.9,0.4-1.3,0.5H995c-0.4,0.2-0.8,0.3-1.1,0.4c-0.1,0-0.2,0.1-0.3,0.1c-0.3,0.1-0.6,0.2-0.9,0.4c-0.1,0-0.1,0-0.2,0.1
	c-0.3,0.1-0.7,0.2-1,0.4c-0.1,0-0.1,0-0.2,0.1c0,0,0,0-0.1,0c-0.2,0.1-0.5,0.2-0.7,0.2c-0.1,0-0.1,0-0.2,0.1
	c-0.2,0.1-0.5,0.2-0.7,0.2c-0.1,0-0.1,0-0.2,0.1c-0.2,0.1-0.3,0.1-0.4,0.2h-0.1c-0.2,0.1-0.3,0.1-0.4,0.1c0,0,0,0-0.1,0
	s-0.1,0.1-0.2,0.1l0,0c-0.1,0-0.1,0-0.1,0l0,0c-4.3-0.9-8.5-2-12.7-3.2l0,0c-4.6,26.6-14.9,72.3-30.6,72.9
	c-11.8,0.5-18.3-5.9-21.9-11.9l0,0c-1.2,1.2-2.1,2-2.6,2.3c-4.9,2.3-7.2,9-22.1-5.4l0,0c-1.3,1.8-2.5,3.5-3.7,5.2
	c36.4,33.8,68.1,65.7,68.1,65.7l-352.3,203.4l542.2-313l-91.1-52.6C1042.5,835,1021,845.2,1006.2,851.4z M992.3,857
	c0,0,0.1,0,0.2-0.1C992.4,856.9,992.3,856.9,992.3,857z M990.3,857.7c0,0-0.1,0-0.1,0.1C990.2,857.7,990.3,857.7,990.3,857.7z
	 M1004,852.3c-0.1,0-0.2,0.1-0.3,0.1C1003.8,852.4,1003.9,852.4,1004,852.3z M1006.2,851.4c-0.2,0.1-0.3,0.1-0.5,0.2
	C1005.8,851.6,1006,851.5,1006.2,851.4z M1002,853.2c-0.2,0.1-0.3,0.1-0.5,0.2C1001.7,853.3,1001.8,853.2,1002,853.2z M1000.2,853.9
	c-0.1,0.1-0.3,0.1-0.4,0.2C999.9,854,1000.1,853.9,1000.2,853.9z M988,858.5L988,858.5C988.1,858.5,988.1,858.5,988,858.5
	C988.1,858.5,988,858.5,988,858.5z M983.1,835.6c0,0.1-0.1,0.1-0.1,0.2C983,835.7,983.1,835.6,983.1,835.6z M983.3,835.2
	c0-0.1,0.1-0.1,0.1-0.2C983.3,835.1,983.3,835.2,983.3,835.2z M982.8,836.1c0,0.1-0.1,0.1-0.1,0.2
	C982.7,836.3,982.7,836.2,982.8,836.1z M981.7,837.7c0-0.1,0.1-0.1,0.1-0.2C981.8,837.6,981.8,837.6,981.7,837.7z M982.3,836.9
	L982.3,836.9L982.3,836.9z M974.8,845.5L974.8,845.5L974.8,845.5z M983.6,834.5c0,0.1,0,0.1-0.1,0.2
	C983.5,834.7,983.6,834.6,983.6,834.5z M972.9,847.4C972.8,847.4,972.8,847.4,972.9,847.4C972.8,847.4,972.8,847.4,972.9,847.4z
	 M973.1,847.1L973.1,847.1L973.1,847.1z M991,857.4C991.1,857.4,991.1,857.4,991,857.4c0.1,0,0.2-0.1,0.2-0.1
	C991.2,857.4,991.1,857.4,991,857.4z M981.4,838.2c-0.1,0.1-0.1,0.1-0.2,0.2C981.3,838.3,981.3,838.2,981.4,838.2z M983.7,834.1
	c0,0.1,0,0.1,0,0.2C983.7,834.2,983.7,834.2,983.7,834.1z M992.6,852.7c-0.3,0.3-0.5,0.7-0.8,1C992.1,853.3,992.4,853,992.6,852.7z
	 M1034.1,814.4c-0.1,0-0.1,0.1-0.2,0.1C1034,814.5,1034,814.5,1034.1,814.4z M1013.8,830.3c0.9-0.8,1.8-1.6,2.7-2.5
	C1015.6,828.7,1014.7,829.5,1013.8,830.3z M975.4,824l0.1-0.1C975.5,823.9,975.5,823.9,975.4,824z M969.1,854.7L969.1,854.7
	L969.1,854.7z M979.1,840.9L979.1,840.9L979.1,840.9z M979.6,840.3c0-0.1,0.1-0.1,0.1-0.2C979.7,840.2,979.7,840.2,979.6,840.3z
	 M980.4,839.4c-0.1,0.1-0.1,0.1-0.2,0.2C980.2,839.6,980.3,839.5,980.4,839.4z M980.9,838.8c-0.1,0.1-0.1,0.1-0.2,0.2
	C980.8,838.9,980.8,838.9,980.9,838.8z M990.1,855.8c-0.2,0.3-0.4,0.5-0.6,0.7C989.7,856.3,989.9,856.1,990.1,855.8z M998.5,845.9
	c-0.5,0.5-0.9,1-1.4,1.5C997.6,846.9,998.1,846.4,998.5,845.9z M671.8,849.9c0.3-0.1,0.7-0.2,1-0.3
	C672.5,849.7,672.1,849.8,671.8,849.9z M831.9,863.9c-1-0.8-2-1.5-2.9-2.3C830,862.3,830.9,863.1,831.9,863.9z M828.8,861.4
	c-1-0.7-1.9-1.5-2.9-2.2C826.9,859.9,827.9,860.7,828.8,861.4z M814.1,850.6c0.8,0.5,1.6,1.1,2.4,1.7
	C815.7,851.7,814.9,851.2,814.1,850.6z M822.5,856.6c-0.9-0.7-1.7-1.3-2.6-1.9C820.8,855.3,821.6,856,822.5,856.6z M844.2,804.3
	c0-0.1,0-0.2,0.1-0.3C844.3,804.1,844.2,804.2,844.2,804.3z M844.5,803.1c0,0.1-0.1,0.2-0.1,0.2
	C844.5,803.3,844.5,803.2,844.5,803.1z M832.3,864.2c1,0.8,1.9,1.5,2.9,2.3C834.2,865.7,833.3,864.9,832.3,864.2z M844.7,802.4
	c0-0.1,0-0.1,0.1-0.2C844.8,802.3,844.8,802.4,844.7,802.4z M838.6,869.2c-1-0.8-1.9-1.6-2.9-2.3
	C836.7,867.7,837.6,868.4,838.6,869.2z M839.2,869.7c0.9,0.8,1.9,1.6,2.9,2.4C841.1,871.3,840.2,870.5,839.2,869.7z M819.5,854.4
	c-0.8-0.6-1.7-1.2-2.5-1.8C817.8,853.2,818.6,853.8,819.5,854.4z M795.8,840.7c-0.5-0.1-1-0.3-1.4-0.4
	C794.9,840.4,795.3,840.5,795.8,840.7z M796,840.7c0.5,0.1,1,0.3,1.5,0.5C797,841.1,796.5,840.9,796,840.7z M792.9,840.1
	c0.4,0,0.8,0.1,1.3,0.2C793.8,840.2,793.3,840.1,792.9,840.1z M799.5,842.1c-0.6-0.3-1.1-0.5-1.7-0.7
	C798.4,841.6,798.9,841.8,799.5,842.1z M668.1,851c0.1,0,0.3-0.1,0.4-0.1C668.4,850.9,668.2,851,668.1,851z M808.5,847
	c-0.8-0.5-1.6-1-2.3-1.4C806.9,846,807.7,846.5,808.5,847z M813.7,850.3c-0.8-0.5-1.6-1.1-2.4-1.6
	C812.1,849.3,812.9,849.8,813.7,850.3z M801.6,843c-0.6-0.3-1.2-0.6-1.8-0.9C800.3,842.4,801,842.7,801.6,843z M811,848.6
	c-0.8-0.5-1.6-1-2.3-1.5C809.5,847.6,810.2,848.1,811,848.6z M801.8,843.2c0.6,0.3,1.3,0.7,2,1C803.1,843.8,802.5,843.5,801.8,843.2
	z M806.2,845.5c-0.8-0.4-1.5-0.9-2.2-1.3C804.7,844.7,805.4,845.1,806.2,845.5z M825.7,859c-0.9-0.7-1.8-1.4-2.7-2.1
	C823.8,857.6,824.7,858.3,825.7,859z M844.1,804.9c0,0.1,0,0.2-0.1,0.3C844,805.1,844.1,805,844.1,804.9z M991.8,790.5v0.1
	C991.8,790.6,991.8,790.6,991.8,790.5z M991.4,794.7c0-0.1,0-0.1,0-0.2C991.4,794.5,991.4,794.6,991.4,794.7z M990.7,798.3
	c0,0.1,0,0.1,0,0.2C990.6,798.5,990.7,798.4,990.7,798.3z M991.7,792.4c0,0.1,0,0.2,0,0.2C991.7,792.6,991.7,792.5,991.7,792.4z
	 M984.3,812.7L984.3,812.7L984.3,812.7z M970.8,828.5C970.8,828.5,970.8,828.4,970.8,828.5C970.8,828.4,970.8,828.5,970.8,828.5z
	 M972.2,827.2L972.2,827.2L972.2,827.2z M979.9,818.9l0.1-0.1C979.9,818.8,979.9,818.8,979.9,818.9z M969,830
	C968.9,830,968.9,830.1,969,830C968.9,830.1,968.9,830,969,830z M969.8,829.4C969.7,829.4,969.7,829.4,969.8,829.4
	C969.7,829.4,969.7,829.4,969.8,829.4z M981,817.4C981,817.4,981.1,817.4,981,817.4C981.1,817.4,981,817.4,981,817.4z M843.7,808.4
	c0-0.1,0-0.3,0-0.4C843.7,808.1,843.7,808.2,843.7,808.4z M878.6,763l-127.5,73.4l0,0c19.2,0.6,29.2,5,40.5,3.8
	c0,0,32.8-17.9,53.4-38.6l0,0c0.1-0.3,0.2-0.5,0.4-0.8c3.6-6.9,9.7-12,16.4-14.7l0,0c-0.4-0.4-0.6-0.7-0.6-0.7
	c16.1-22,40.4-35.8,60.4-44.1l-27.1-15.6C897.7,739.8,891.7,755,878.6,763z M863.3,785.5L863.3,785.5L863.3,785.5z M843.9,805.9
	c0,0.1,0,0.2-0.1,0.4C843.9,806.1,843.9,806,843.9,805.9z M843.8,807.3c0-0.1,0-0.3,0-0.4C843.8,807,843.8,807.2,843.8,807.3z
	 M989.5,802.2C989.5,802.2,989.5,802.1,989.5,802.2C989.5,802.1,989.5,802.2,989.5,802.2z M991.5,784.6c0-0.1,0-0.2-0.1-0.4
	C991.4,784.3,991.5,784.4,991.5,784.6z M991,782c0,0.1,0.1,0.2,0.1,0.3C991.1,782.2,991,782.1,991,782z M791.6,840.1
	c0.4,0,0.8,0,1.2,0C792.4,840.1,792,840.1,791.6,840.1z M991.7,786.4L991.7,786.4L991.7,786.4z M899.3,854.2
	c-0.2,0.1-0.4,0.3-0.6,0.4C898.9,854.4,899.1,854.3,899.3,854.2z M892.5,858.5c0.2-0.1,0.4-0.2,0.6-0.4
	C892.9,858.2,892.7,858.4,892.5,858.5z M879.8,905c0.8,0.7,1.5,1.4,2.3,2.1C881.3,906.4,880.6,905.7,879.8,905z M900.5,853.3
	c-0.2,0.1-0.4,0.3-0.6,0.5C900.1,853.6,900.3,853.4,900.5,853.3z M891.1,859.3c0.2-0.1,0.4-0.2,0.6-0.3
	C891.5,859,891.3,859.1,891.1,859.3z M883.6,908.5c0.7,0.6,1.4,1.2,2,1.9C885,909.7,884.3,909.1,883.6,908.5z M874.8,900.5
	c-0.9-0.8-1.8-1.6-2.7-2.4C873,898.9,873.9,899.7,874.8,900.5z M878.7,904c-0.9-0.8-1.8-1.6-2.7-2.4
	C876.9,902.4,877.8,903.2,878.7,904z M868.3,894.7c0.9,0.8,1.8,1.6,2.8,2.5C870.1,896.3,869.2,895.5,868.3,894.7z M889.3,913.7
	c-0.7-0.6-1.3-1.2-2-1.8C888,912.5,888.7,913.1,889.3,913.7z M911.9,879.2c-0.1-0.2-0.2-0.4-0.3-0.7
	C911.7,878.8,911.8,879,911.9,879.2z M891,915.3c0.7,0.6,1.3,1.2,2,1.8C892.3,916.5,891.7,915.9,891,915.3z M897,855.7
	c0.4-0.2,0.7-0.5,1.1-0.7C897.7,855.2,897.4,855.5,897,855.7z M912.7,880.7c0.1,0,0.1,0.1,0.2,0.1
	C912.8,880.8,912.8,880.8,912.7,880.7z M912.7,880.7c-0.1-0.1-0.1-0.1-0.2-0.2C912.5,880.5,912.6,880.6,912.7,880.7z M644.1,859.1
	L644.1,859.1c2-3.4,3.9-5.9,4.6-6.9l-25,14.5C630.8,863.9,637.6,861.4,644.1,859.1z M911.9,879.4c0.1,0.2,0.2,0.4,0.3,0.6
	C912.1,879.8,912,879.6,911.9,879.4z M905.2,855.6c-0.2-0.8-0.4-1.5-0.6-2.3C904.8,854,905,854.8,905.2,855.6z M912.4,880.4
	c-0.1-0.1-0.1-0.2-0.2-0.4C912.3,880.2,912.4,880.3,912.4,880.4z M906.4,860.4c-0.4-1.5-0.8-3.1-1.2-4.7c1,4,1.9,7.7,2.8,11
	C907.5,864.7,907,862.6,906.4,860.4z M894.4,857.4c0.2-0.1,0.4-0.3,0.7-0.4C894.8,857.1,894.6,857.3,894.4,857.4z M895.7,856.5
	c0.2-0.1,0.4-0.3,0.6-0.4C896.1,856.3,895.9,856.4,895.7,856.5z M904,850.6L904,850.6c0.2,0.8,0.4,1.6,0.6,2.4
	C904.4,852.1,904.2,851.4,904,850.6z M732.4,837c0.1,0,0.1,0,0.2,0C732.5,837,732.4,837,732.4,837z M714.6,839.4
	c-0.4,0.1-0.7,0.1-1.1,0.2C713.8,839.5,714.2,839.4,714.6,839.4z M710.5,840.1c0.3-0.1,0.7-0.1,1-0.2
	C711.1,840,710.8,840,710.5,840.1z M717.5,838.9c-0.4,0.1-0.7,0.1-1.1,0.2C716.8,839,717.2,838.9,717.5,838.9z M707.5,840.7
	c0.3-0.1,0.5-0.1,0.8-0.2C708,840.6,707.8,840.6,707.5,840.7z M720.4,838.4c-0.3,0.1-0.7,0.1-1,0.2
	C719.7,838.5,720.1,838.5,720.4,838.4z M749.2,836.3c0.3,0,0.6,0,0.8,0C749.8,836.3,749.5,836.3,749.2,836.3z M722.2,838.1
	c0.3,0,0.7-0.1,1-0.1C722.9,838.1,722.5,838.1,722.2,838.1z M681,847.2c-0.4,0.1-0.8,0.2-1.2,0.3C680.2,847.4,680.6,847.3,681,847.2
	z M691.4,844.4c0.3-0.1,0.6-0.2,0.9-0.2C692,844.2,691.7,844.3,691.4,844.4z M695,843.5c0.1,0,0.3-0.1,0.4-0.1
	C695.3,843.4,695.2,843.4,695,843.5z M687.6,845.4c0.4-0.1,0.7-0.2,1.1-0.3C688.3,845.2,688,845.3,687.6,845.4z M683.8,846.4
	c0.4-0.1,0.8-0.2,1.2-0.3C684.5,846.2,684.2,846.3,683.8,846.4z M744,836.3c-0.3,0-0.6,0-1,0C743.4,836.3,743.7,836.3,744,836.3z
	 M741.9,836.4c-0.3,0-0.7,0-1,0C741.2,836.4,741.5,836.4,741.9,836.4z M738.6,836.5c0.3,0,0.7,0,1-0.1
	C739.3,836.5,739,836.5,738.6,836.5z M745.2,836.3c0.3,0,0.6,0,0.9,0C745.8,836.3,745.5,836.3,745.2,836.3z M747.2,836.3
	c0.3,0,0.6,0,0.9,0C747.8,836.3,747.5,836.3,747.2,836.3z M725,837.8c0.3,0,0.6-0.1,0.9-0.1C725.5,837.7,725.2,837.7,725,837.8z
	 M728.1,837.4c-0.2,0-0.3,0-0.5,0.1C727.8,837.4,727.9,837.4,728.1,837.4z M737.3,836.6c-0.3,0-0.7,0-1,0.1
	C736.7,836.6,737,836.6,737.3,836.6z M675.8,848.7c0.4-0.1,0.8-0.2,1.2-0.3C676.6,848.4,676.2,848.6,675.8,848.7z M734.1,836.8
	c0.3,0,0.6-0.1,0.9-0.1C734.7,836.8,734.4,836.8,734.1,836.8z"></path>
<path id="color_x5F_8" fill="#7EA0AE" d="M962.9,1119.8l-352.7,203.7v-136l352.3-203.4L962.9,1119.8z M887,710.4
	c3.4-9.2,12.3-31.2,14.4-20.1c2.3,12-6.8,24.7-9.4,27.9c0.1,0.1,0.1,0.2,0.1,0.3c3.9-2.2,21.4-11.6,20.8-1.7
	c-0.4,6.4-10.5,7.1-18.9,6.5l0,0c0.2,0.7,0.4,1.5,0.6,2.3l27.1,15.6c19.3-8,34.6-10.8,34.6-10.8c31.7-7.2,126.7,73.2,126.7,73.2
	c-6.2,6.6-13.7,12.7-21.7,18.2l91,52.5l-0.1-51.5l-270.8-157V705C883.4,706.6,885.3,708.4,887,710.4z"></path>
<path id="color_x5F_7" opacity="0.57" fill="#E9676A" enable-background="new    " d="M1181.8,381.9c0.9-0.1,1.8-0.1,2.7-0.2
	c-0.1,0-0.2,0-0.4,0c-0.4,0-0.8,0.1-1.1,0.1C1182.6,381.9,1182.2,381.9,1181.8,381.9z M1191.1,371.4c0.8-0.1,1.6-0.2,2.5-0.4l0,0
	c-0.9,0.1-1.7,0.3-2.6,0.4l0,0C1191,371.4,1191,371.4,1191.1,371.4z M1192.5,380.8c0.1,0,0.2,0,0.3,0c0.3,0,0.5-0.1,0.8-0.1
	c0.4-0.1,0.8-0.1,1.2-0.2c-0.8,0.1-1.7,0.3-2.6,0.4C1192.3,380.8,1192.4,380.8,1192.5,380.8z M1184.8,381.7c-0.1,0-0.2,0-0.3,0
	C1184.6,381.7,1184.7,381.7,1184.8,381.7z M1189.6,381.2c0.3,0,0.6-0.1,0.9-0.1c-0.5,0.1-0.9,0.1-1.4,0.2
	C1189.3,381.2,1189.4,381.2,1189.6,381.2z M1184,372.2c0.7-0.1,1.4-0.1,2.1-0.2C1185.3,372,1184.6,372.1,1184,372.2
	C1183.9,372.2,1183.9,372.2,1184,372.2C1183.9,372.2,1184,372.2,1184,372.2z M1185.5,381.6c0.3,0,0.6,0,0.8-0.1
	c0.4,0,0.7-0.1,1.1-0.1c-0.9,0.1-1.7,0.2-2.6,0.3C1185,381.7,1185.2,381.6,1185.5,381.6z M1166,382c0.6,0,1.2,0,1.8,0.1
	c-1,0-1.9-0.1-2.9-0.1C1165.2,382,1165.6,382,1166,382z M1165.3,372.4L1165.3,372.4L1165.3,372.4c-0.6,0-1.2-0.1-1.8-0.1l0,0
	C1164.1,372.3,1164.7,372.4,1165.3,372.4z M1169.4,382.2c1.1,0,2.2,0,3.3,0c-1.5,0-2.9,0-4.3-0.1
	C1168.7,382.1,1169,382.2,1169.4,382.2z M1161.7,372.2c-0.7-0.1-1.4-0.1-2.1-0.2C1160.3,372,1160.9,372.1,1161.7,372.2
	C1161.6,372.2,1161.7,372.2,1161.7,372.2z M1161.3,381.7h-0.1C1161.2,381.7,1161.2,381.7,1161.3,381.7z M1180.3,372.4
	c0.6,0,1.2-0.1,1.8-0.1l0,0C1181.6,372.3,1180.9,372.4,1180.3,372.4L1180.3,372.4L1180.3,372.4z M1178.1,372.5L1178.1,372.5
	c-0.5,0-1,0-1.5,0.1l0,0C1177.1,372.5,1177.6,372.5,1178.1,372.5z M1169,372.6L1169,372.6c-0.5,0-1,0-1.5-0.1l0,0
	C1168.1,372.5,1168.5,372.5,1169,372.6z M1177.8,382.1c0.6,0,1.3,0,1.9-0.1c0.4,0,0.8,0,1.2-0.1c-1.1,0.1-2.2,0.1-3.3,0.2
	C1177.6,382.1,1177.7,382.1,1177.8,382.1z M1177.3,382.1c-1.4,0-2.8,0.1-4.2,0.1c1.1,0,2.1,0,3.2,0
	C1176.6,382.2,1176.9,382.1,1177.3,382.1z M1172.8,372.6L1172.8,372.6L1172.8,372.6L1172.8,372.6
	C1172.7,372.6,1172.7,372.6,1172.8,372.6L1172.8,372.6z M1213.7,375.3c0.3-0.1,0.6-0.2,0.9-0.4c-0.7,0.3-1.4,0.5-2.1,0.8
	c0.3-0.1,0.5-0.2,0.8-0.3C1213.4,375.4,1213.5,375.3,1213.7,375.3z M1162.6,381.8c0.4,0,0.8,0.1,1.3,0.1c0.1,0,0.3,0,0.4,0
	c-1-0.1-2-0.1-3-0.2c0.1,0,0.1,0,0.2,0C1161.9,381.8,1162.2,381.8,1162.6,381.8z M1212.2,375.8c0.1,0,0.2-0.1,0.3-0.1
	C1212.4,375.8,1212.3,375.8,1212.2,375.8z M1208,377.2c0.1,0,0.3-0.1,0.4-0.1c0.3-0.1,0.7-0.2,1-0.3c-0.5,0.2-1.1,0.4-1.6,0.5
	C1207.9,377.3,1208,377.3,1208,377.2z M1209.5,376.8c0.3-0.1,0.5-0.2,0.8-0.3C1210,376.6,1209.7,376.7,1209.5,376.8z M1210.7,376.4
	c0.2-0.1,0.3-0.1,0.5-0.2c0.4-0.1,0.7-0.3,1-0.4c-0.6,0.2-1.3,0.5-1.9,0.7C1210.4,376.5,1210.5,376.4,1210.7,376.4z M1197,370.4
	c-0.9,0.2-1.8,0.3-2.7,0.5c0.1,0,0.1,0,0.2,0C1195.4,370.7,1196.2,370.5,1197,370.4z M1733.9,998.2c0.9,0.6,1.7,1.2,2.5,1.9
	C1735.6,999.4,1734.7,998.7,1733.9,998.2z M1208.2,367.6c0.4-0.1,0.9-0.3,1.3-0.4C1209,367.3,1208.6,367.5,1208.2,367.6z
	 M1211,327.2h-0.1C1210.9,327.2,1210.9,327.2,1211,327.2L1211,327.2z M1210.1,367c4.8-1.6,9-3.5,12.6-5.7c0.2-0.1,0.3-0.2,0.5-0.3
	c-0.2-0.3-0.4-0.5-0.6-0.8l1-5.6l-1.2,6.8c-3.7,2.2-8.1,4.1-13,5.7C1209.7,367.1,1209.9,367.1,1210.1,367L1210.1,367z M1207.1,367.9
	h0.1c0.3-0.1,0.6-0.2,1-0.3c-0.4,0.1-0.8,0.3-1.3,0.4C1207,368,1207,368,1207.1,367.9z M1197.6,370.3c0.1,0,0.1,0,0.2,0
	c0.9-0.2,1.7-0.4,2.6-0.6C1199.5,369.9,1198.6,370.1,1197.6,370.3L1197.6,370.3z M1199.6,379.5c-0.1,0-0.3,0.1-0.4,0.1
	c0.1,0,0.1,0,0.2,0C1199.4,379.5,1199.5,379.5,1199.6,379.5z M1196.1,380.2c0.2,0,0.4-0.1,0.5-0.1c0.5-0.1,1.1-0.2,1.6-0.3
	c-0.8,0.2-1.5,0.3-2.3,0.4C1196,380.2,1196,380.2,1196.1,380.2z M1200.4,369.7L1200.4,369.7L1200.4,369.7L1200.4,369.7z
	 M1203.7,368.9L1203.7,368.9c-0.9,0.2-1.9,0.5-2.9,0.7c0.1,0,0.2,0,0.2-0.1C1201.9,369.3,1202.8,369.1,1203.7,368.9z M1205.6,378
	c0.2,0,0.3-0.1,0.5-0.1c-0.2,0.1-0.5,0.1-0.7,0.2C1205.4,378,1205.5,378,1205.6,378z M1206.8,368L1206.8,368L1206.8,368L1206.8,368z
	 M1207.9,377.3c-0.6,0.2-1.2,0.4-1.9,0.6C1206.6,377.7,1207.3,377.5,1207.9,377.3z M1203.9,368.8c0.1,0,0.2,0,0.2-0.1
	c0.9-0.2,1.8-0.5,2.6-0.7C1205.9,368.3,1204.9,368.6,1203.9,368.8L1203.9,368.8z M1189.9,371.5c-0.8,0.1-1.6,0.2-2.4,0.3h0.1
	C1188.4,371.7,1189.1,371.6,1189.9,371.5z M1352.6,1056.4c-45.4,0-82.2-21.2-82.2-47.5v18.5c6.1,6.6,9.6,14.2,9.6,22.2l0,0v11.9
	c4,4.3,9.1,8.3,15.1,11.7c6.9-1.1,14.2-1.7,21.6-1.7c22.4,0,42.7,5.2,57.5,13.5c34.9-5.5,60.6-23.9,60.6-45.8v-30.4
	C1434.8,1035.1,1398,1056.4,1352.6,1056.4z M1197.8,1097.2c-45.4,0-82.2-21.2-82.2-47.5v30.4c0,26.2,36.8,47.5,82.2,47.5
	c13.2,0,25.7-1.8,36.8-5v26.9c0,26.2,36.8,47.5,82.2,47.5c45.4,0,82.2-21.2,82.2-47.5v-30.4c0,26.2-36.8,47.5-82.2,47.5
	s-82.2-21.2-82.2-47.5c0-18.6,18.5-34.6,45.4-42.4v-15c-0.6-0.7-1.2-1.4-1.8-2.1C1270.3,1081,1237.3,1097.2,1197.8,1097.2z
	 M1160.1,381.6c0.4,0,0.7,0.1,1.1,0.1c-1-0.1-2-0.2-2.9-0.3c0.3,0,0.7,0.1,1.1,0.1C1159.6,381.6,1159.8,381.6,1160.1,381.6z
	 M1444.8,489.2c-7.2-9.7-27-16.8-50.4-16.8s-43.2,7-50.4,16.8c11.6,7,29.9,11.6,50.4,11.6C1414.9,500.8,1433.2,496.3,1444.8,489.2z
	 M1467.7,937.9c-15.7,9.4-41.2,22.9-74.7,22.9c-34.5,0-60.8-13.5-75.8-24.1c-14.4-10.2-28.2-22.7-28.2-44V624.6
	c0-20.3,25.4-23.7,43.1-39.6c11.2-10,6.6-59.8,6.6-59.8c0-2.8,0.3-5.6,0.8-8.3c-17-6.9-27.8-17.1-27.8-28.4
	c0-20.9,36.4-37.8,81.3-37.8s81.3,16.9,81.3,37.8c0,10.8-9.7,20.5-25.2,27.4c0.7,3,1,6.2,1,9.4c0,0-4.6,49.8,6.6,59.8
	c17.7,15.9,43.1,19.3,43.1,43.1v268.1C1499.8,916.2,1484,928.1,1467.7,937.9z M1432.7,668.7c-12.5,0-22.6,10.1-22.6,22.6
	s10.1,22.6,22.6,22.6s22.6-10.1,22.6-22.6C1455.3,678.8,1445.2,668.7,1432.7,668.7z M1394.4,510.4c35.1,0,63.5-13.2,63.5-29.5
	c0-1.6-0.3-3.2-0.8-4.8c-1.5,4.2-4.8,8-9.6,11.4c-1.9-12.9-25-23-53.1-23s-51.2,10.2-53.1,23c-4.8-3.4-8.1-7.2-9.6-11.4
	c-0.5,1.6-0.8,3.2-0.8,4.8C1330.8,497.2,1359.3,510.4,1394.4,510.4z M1385.7,701.7c-6.7,0-12.2,5.5-12.2,12.2s5.5,12.2,12.2,12.2
	s12.2-5.5,12.2-12.2S1392.4,701.7,1385.7,701.7z M1480.1,752.2c-19.2-10.9-51-18.4-86.8,15c0,0-58.5-41-84.6,6.6V883
	c0,17.4,11.3,27.5,23,35.8c12.2,8.7,33.5,19.6,61.6,19.6c27.2,0,48-10.9,60.7-18.6c13.3-8,26.1-17.6,26.1-33.9L1480.1,752.2
	L1480.1,752.2z M1492.4,1083l0.1-0.1c0.2-0.2,0.5-0.4,0.7-0.5C1493,1082.6,1492.7,1082.8,1492.4,1083z M1172.7,811l-20.5,11.9
	L1172.7,811L1172.7,811z M1055.4,1258.3v-15.7c0,13.5-18.9,24.4-42.3,24.4c-23.3,0-42.3-10.9-42.3-24.4l0,0v15.7
	c0,13.5,18.9,24.4,42.3,24.4C1036.5,1282.7,1055.4,1271.8,1055.4,1258.3z M1155.2,1434.2c-23.3,0-42.3-10.9-42.3-24.4v15.7
	c0,13.5,18.9,24.4,42.3,24.4c23.3,0,42.3-10.9,42.3-24.4v-15.7C1197.4,1423.3,1178.5,1434.2,1155.2,1434.2z M1120.8,1376.7V1361
	c0,13.5-18.9,24.4-42.3,24.4c-23.3,0-42.3-10.9-42.3-24.4v15.7c0,13.5,18.9,24.4,42.3,24.4S1120.8,1390.1,1120.8,1376.7z
	 M1655.6,1024.4l-12.6,7.3c-7.7,5.4-12.3,14.2-12.3,23.7c0,22.3,24.1,36.2,43.4,25.1l12.6-7.3c7.7-5.4,12.3-14.2,12.3-23.7l0,0
	C1699,1027.2,1674.9,1013.2,1655.6,1024.4z M1737.3,1043c-1.6,1.5-3.4,2.9-5.4,4C1733.9,1045.9,1735.7,1044.5,1737.3,1043z
	 M1738.9,1002.6c0.6,0.7,1.2,1.4,1.8,2.2C1740.2,1004,1739.6,1003.3,1738.9,1002.6z M1505,1075.7l-12.5,7.2
	c-7.8,5.4-12.5,14.2-12.5,23.8c0,22.3,24.1,36.2,43.4,25.1l12.6-7.3c7.7-5.4,12.3-14.2,12.3-23.7l0,0
	C1548.4,1078.4,1524.3,1064.5,1505,1075.7z M1047.6,1291.5v15.7c0,13.5,18.9,24.4,42.3,24.4s42.3-10.9,42.3-24.4v-15.7
	c0,13.5-18.9,24.4-42.3,24.4S1047.6,1304.9,1047.6,1291.5z M1740.7,1004.7c0.6,0.8,1.1,1.5,1.6,2.3
	C1741.8,1006.3,1741.3,1005.5,1740.7,1004.7z M1570.4,991.6l0.1-0.1c0.2-0.2,0.5-0.4,0.7-0.5C1571,991.2,1570.7,991.4,1570.4,991.6z
	 M1553.7,1114.2l27.6-15.9c1.7-1,3.3-2.1,4.7-3.4c-1.4,1.3-3,2.4-4.7,3.4L1553.7,1114.2z M1662.5,1004.8c-1,0.8-2.1,1.5-3.2,2.1
	l-30.6,17.7l30.6-17.7C1660.5,1006.3,1661.5,1005.6,1662.5,1004.8z M1583,984.3l-12.5,7.2c-7.8,5.4-12.5,14.2-12.5,23.8l0,0
	c0,22.3,24.1,36.2,43.4,25.1l12.6-7.3c7.7-5.4,12.3-14.2,12.3-23.7l0,0C1626.4,987.1,1602.3,973.2,1583,984.3z M1177.7,1358.6
	c-23.3,0-42.3-10.9-42.3-24.4v15.7c0,13.5,18.9,24.4,42.3,24.4c23.3,0,42.3-10.9,42.3-24.4v-15.7
	C1220,1347.7,1201.1,1358.6,1177.7,1358.6z M1154.7,1231.5v-15.7c0,13.5-18.9,24.4-42.3,24.4c-23.3,0-42.3-10.9-42.3-24.4v15.7
	c0,13.5,18.9,24.4,42.3,24.4C1135.8,1255.9,1154.7,1245,1154.7,1231.5z M1147.8,370.2c0.1,0,0.1,0,0.2,0c-0.9-0.2-1.9-0.4-2.8-0.6
	l0,0C1146,369.9,1146.9,370.1,1147.8,370.2z M1146,379.5c-1.9-0.4-3.8-0.9-5.7-1.4C1142.2,378.6,1144.1,379,1146,379.5z
	 M1146.4,379.5c-0.1,0-0.2,0-0.4-0.1c0.1,0,0.1,0,0.2,0C1146.3,379.5,1146.4,379.5,1146.4,379.5z M1149.7,380.2
	c-0.2,0-0.5-0.1-0.7-0.1c0.2,0,0.4,0.1,0.5,0.1S1149.7,380.2,1149.7,380.2z M1153.1,380.8c0.4,0.1,0.8,0.1,1.1,0.2
	c-0.7-0.1-1.5-0.2-2.2-0.3c0.3,0,0.5,0.1,0.8,0.1C1152.9,380.7,1153,380.7,1153.1,380.8z M1158,371.8
	C1158.1,371.8,1158.1,371.8,1158,371.8c-0.7-0.1-1.5-0.2-2.3-0.3l0,0C1156.5,371.6,1157.3,371.7,1158,371.8z M1156.5,381.2
	c-0.5-0.1-1-0.1-1.4-0.2c0.3,0,0.6,0.1,0.9,0.1C1156.2,381.2,1156.4,381.2,1156.5,381.2z M1154.6,371.4L1154.6,371.4
	c-0.9-0.1-1.7-0.3-2.6-0.4c0.8,0.1,1.6,0.3,2.4,0.4C1154.6,371.4,1154.6,371.4,1154.6,371.4z M1151.1,370.8c0.1,0,0.1,0,0.2,0l0,0
	c-0.9-0.2-1.8-0.3-2.7-0.5l0,0C1149.4,370.5,1150.2,370.7,1151.1,370.8z M1122.4,361c0.2,0.1,0.3,0.2,0.5,0.3
	c3.6,2.1,7.9,4.1,12.6,5.7l0,0c0.2,0.1,0.4,0.1,0.6,0.2c-4.9-1.6-9.2-3.5-13-5.7l-1-5.6l0.7,4.4
	C1122.8,360.5,1122.6,360.8,1122.4,361z M1138.5,367.9c0.1,0,0.1,0,0.2,0c-0.4-0.1-0.8-0.3-1.3-0.4c0.3,0.1,0.6,0.2,1,0.3
	C1138.5,367.9,1138.5,367.9,1138.5,367.9z M1144.8,369.6L1144.8,369.6c-1-0.2-1.9-0.5-2.9-0.7c0.9,0.2,1.7,0.4,2.6,0.7
	C1144.6,369.6,1144.7,369.6,1144.8,369.6z M1067.4,710.8V496.4c0-20.3,25.4-23.7,43.1-39.6c11.2-10,6.6-59.8,6.6-59.8
	c0-2.8,0.3-5.6,0.8-8.3c-17-6.9-27.8-17.1-27.8-28.4c0-11.4,10.8-21.6,28-28.5l3.8,22.1c-1.2,1.8-1.9,3.6-2.2,5.5
	c-4.8-3.4-8.1-7.2-9.6-11.4c-0.5,1.6-0.8,3.2-0.8,4.8c0,7.5,5.9,14.3,15.7,19.5l0,0l8.1,47.5c0,10.2,17.8,18.5,39.7,18.5
	c21.9,0,39.7-8.3,39.7-18.5l8.1-47.5l0,0c9.8-5.2,15.7-12,15.7-19.5c0-1.6-0.3-3.2-0.8-4.8c-1.5,4.2-4.8,8-9.6,11.4
	c-0.3-1.9-1-3.7-2.2-5.5l3.6-21c15.6,6.9,25.4,16.6,25.4,27.4s-9.7,20.5-25.2,27.4c0.7,3,1,6.2,1,9.4c0,0-4.6,49.8,6.6,59.8
	c17.7,15.9,43.1,19.3,43.1,43.1v268c0,20-15.7,31.9-32.1,41.7c-9.6,5.8-22.9,13-39.4,17.8l-0.1-22.6c10.8-3.8,19.6-8.7,26.2-12.7
	c13.4-8.1,26.3-17.8,26.3-34.2V623.2c-19.4-10.9-51.4-18.6-87.6,15.2c0,0-59-41.3-85.3,6.7v76.7L1067.4,710.8z M1136.2,587.2
	c0,6.7,5.5,12.2,12.2,12.2s12.2-5.5,12.2-12.2s-5.5-12.2-12.2-12.2C1141.6,575,1136.2,580.5,1136.2,587.2z M1084.1,556.3
	c0,12.5,10.1,22.6,22.6,22.6s22.6-10.1,22.6-22.6s-10.1-22.6-22.6-22.6S1084.1,543.8,1084.1,556.3z M1130,374.5
	c-0.2-0.1-0.3-0.1-0.5-0.2c0.1,0,0.2,0.1,0.3,0.1C1129.9,374.4,1130,374.5,1130,374.5z M1140.3,378c-0.2-0.1-0.4-0.1-0.6-0.2
	c0.1,0,0.3,0.1,0.4,0.1C1140.1,378,1140.2,378,1140.3,378z M1141.7,368.8L1141.7,368.8L1141.7,368.8c-1-0.3-1.9-0.5-2.9-0.8
	c0.9,0.3,1.8,0.5,2.7,0.7C1141.5,368.8,1141.6,368.8,1141.7,368.8z M1137.5,367.6c-0.4-0.1-0.9-0.3-1.3-0.4
	C1136.6,367.3,1137,367.5,1137.5,367.6z M1138.7,368L1138.7,368L1138.7,368L1138.7,368z"></path>
<path id="color_x5F_6" fill="#F8B8BD" d="M1148.4,575c6.7,0,12.2,5.5,12.2,12.2s-5.5,12.2-12.2,12.2s-12.2-5.5-12.2-12.2
	C1136.2,580.5,1141.6,575,1148.4,575z M1172.8,333.7c32.6,0,59-12.3,59-27.5s-26.4-27.5-59-27.5s-59,12.3-59,27.5
	C1113.8,321.4,1140.2,333.7,1172.8,333.7z M1385.7,726.1c6.7,0,12.2-5.5,12.2-12.2s-5.5-12.2-12.2-12.2s-12.2,5.5-12.2,12.2
	S1378.9,726.1,1385.7,726.1z M1432.7,713.9c12.5,0,22.6-10.1,22.6-22.6s-10.1-22.6-22.6-22.6s-22.6,10.1-22.6,22.6
	C1410.1,703.7,1420.3,713.9,1432.7,713.9z M1393.2,767.2c-33.3,31.1-64.2,21-84.6,6.6V883c0,17.4,11.3,27.5,23,35.8
	c12.2,8.7,33.5,19.6,61.6,19.6c27.2,0,48-10.9,60.7-18.6c13.3-8,26.1-17.6,26.1-33.9V752.2C1460.8,741.3,1429.1,733.8,1393.2,767.2z
	 M1106.7,578.9c12.5,0,22.6-10.1,22.6-22.6s-10.1-22.6-22.6-22.6s-22.6,10.1-22.6,22.6S1094.2,578.9,1106.7,578.9z M1171.7,638.4
	c-33.6,31.4-64.8,21.2-85.3,6.7v76.7l120.3,69.4v13.7c10.8-3.8,19.6-8.7,26.2-12.7c13.4-8.1,26.3-17.8,26.3-34.2V623.2
	C1239.8,612.3,1207.8,604.7,1171.7,638.4z M1172.7,811L1172.7,811L1172.7,811L1172.7,811L1172.7,811z"></path>
<path id="color_x5F_5" fill="#FFD2BB" d="M968.8,830.2c-0.2,0.2-0.3,0.2-0.3,0.2L968.8,830.2L968.8,830.2z M972.7,847.5
	c-3.1,10.3-39,57.7-49.9,68.8c3.5,6,10.1,12.3,21.9,11.9c18.6-0.7,29.5-64.6,32.6-85.2C974.9,845.5,972.7,847.5,972.7,847.5z
	 M901.8,852.3c-0.2,0.1-0.3,0.3-0.5,0.4C901.5,852.5,901.7,852.4,901.8,852.3z M902.4,851.9c0.1-0.1,0.3-0.2,0.4-0.3
	C902.6,851.6,902.5,851.7,902.4,851.9z M908.3,846.8c0,0-1.6,1.5-4.3,3.7c0.8,3.4,1.7,6.8,2.4,9.9c10.1,2.9,31-3.2,31.6-3.9
	c0.1-0.1,0.2-0.2,0.2-0.3c-3.2-0.3-7-0.6-10.5-0.8c-7.8-0.5-0.4-4.7,2.1-6c-14-2.9-17.3-19-17.3-19s-3.2-12.7-3.1-24
	c-1.4,1.5-3.1,3.2-4.9,5.1c-0.3,2.6-0.9,4.7-0.9,4.7s-1.3,5.6-2.3,12.8C904.2,838.2,906.9,845.7,908.3,846.8z"></path>
<path id="color_x5F_4" fill="#00CEC9" d="M914.7,790.2L914.7,790.2c0,0-3-0.4,0.7-10.8c3.7-10.3,9-3.9,9.1-3.8
	c-2.7,3.4-4.8,6.9-6.8,10.2L914.7,790.2z M864.7,785.1c1.8-0.5,3.6-0.9,5.4-1.1C868.2,784.1,866.4,784.5,864.7,785.1z M924.4,775.6
	L924.4,775.6L924.4,775.6L924.4,775.6z M990.6,810.7c0,0-0.3-4.6-3.3-3.2c-2.4,4.9-5.5,9.2-8.4,12.7c0,0.1,0,0.1-0.1,0.2l-0.4,0.4
	c-5.2,6.1-9.9,9.7-9.9,9.7l9.9-9.7c0.2-0.2,0.3-0.4,0.5-0.6c6.7-14.8-6.1-11.3-11.2-11c-5.2,0.4-21.1-29.4-29.9-29.4
	c-8.8,0-19.7,12.8-19.7,12.8s-6,6.1,6.4-17l-6.8,10.2c-1,1.5-1.9,3-2.9,4.4l0,0l0,0c-0.5,0.7-1,1.4-1.6,2
	c-7.9,9.3-0.6,38.3-0.6,38.3s4.3,20.5,23.1,19.4c3.9-0.2,8.3-1.9,12.8-4.4l0,0c0,0-32.5,35-35.5,35.3c-1.2,0.1-4.9-13.6-8.9-30.2
	c-7.4,6-23.2,16.9-37.1,13.8c7.4,15.7,17.6,34.7,27.4,45c18.4,19.3,20.7,11.7,26,9.2c5-2.3,49-59.6,52.5-71.1c0,0,11.6-10.9,11-14.1
	C983.1,830.1,990.6,810.7,990.6,810.7z"></path>
<path id="color_x5F_3" fill="#E84393" d="M791.6,840.1c0,0,32.8-17.9,53.4-38.6c-7.8,18,19.7,62.2,19.7,62.2
	c0.7,0.2,1.4,0.4,2.1,0.6l0,0c7.4,15.7,17.6,34.7,27.4,45c1.4,1.4,2.6,2.7,3.8,3.9c-1.3,1.8-2.5,3.5-3.7,5.2
	C852.8,879.8,805,838.7,791.6,840.1z M912.9,880.8c1.9-0.2,15.4-14,25.2-24.3c-0.7,0.7-21.5,6.8-31.6,3.9
	C909.4,872.3,912,880.9,912.9,880.8z M903.7,816.2c0,0,3.3-11.3-1.9-13.8l-10.8-9.8c0.8,3.1,5.9,21.9,10.4,36.5
	C902.4,821.9,903.7,816.2,903.7,816.2z"></path>
<path id="color_x5F_2" fill="#FBC02D" d="M890.8,792.1c0,0,13.7,51.6,17.5,54.7c0,0-24.3,23.5-43.5,16.9c0,0-28.3-45.6-19.3-63
	S879.6,777.4,890.8,792.1z"></path>
<path id="color_x5F_1" fill="#0984E3" d="M924.4,775.6c12.3-23.1,52-29,64.6,0.2c12.5,29.2-20.5,54.7-20.5,54.7l10.3-10.1
	c6.9-15-6-11.5-11.2-11.1s-21.1-29.4-29.9-29.4c-8.8,0-19.7,12.8-19.7,12.8S912.1,798.7,924.4,775.6z"></path>
</svg>